<?xml version="1.0" encoding="UTF-8"?>
<svg id="Warstwa_1" xmlns="http://www.w3.org/2000/svg" version="1.1" viewBox="0 0 213.9784173 90">
  <!-- Generator: Adobe Illustrator 29.0.1, SVG Export Plug-In . SVG Version: 2.1.0 Build 192)  -->
  <defs>
    <style>
      .st0 {
        fill: #fff;
      }

      .st1 {
        fill: none;
      }

      .st2 {
        isolation: isolate;
      }

      .st3 {
        fill: #868686;
      }
    </style>
  </defs>
  <g class="st2">
    <g id="Warstwa_11" data-name="Warstwa_1">
      <g>
        <g>
          <g>
            <polygon class="st0" points="9.9046606 15.7881825 9.9046606 55.3438409 23.0898917 55.3438409 23.0898917 45.9515372 23.0898917 42.1586844 23.0898917 28.9734532 36.2750482 28.9734532 36.2750482 42.1586844 36.2750482 45.9515372 36.2750482 55.3438409 49.4602794 55.3438409 49.4602794 15.7881825 9.9046606 15.7881825"/>
            <rect class="st3" x="23.0899049" y="42.1587064" width="13.1851345" height="13.1851345"/>
          </g>
          <g>
            <path class="st0" d="M68.6279545,18.4552004h-.0115522l-2.6575696,7.5167877h5.3632896s-2.6941589-7.5167877-2.6941677-7.5167877ZM75.26659,30.8196539c.0635415.1709155.0972494.3086108.1010972.4135602.004331.1049582-.0255115.184396-.0895538.2387968-.0635415.0544008-.1685041.0890662-.3153445.1049582-.1468404.0158876-.3437462.0231088-.5902518.0231088-.2460225,0-.4424451-.0057761-.5897687-.0173283-.1468404-.0115566-.2580578-.0312964-.3336435-.0582574-.0755857-.0274442-.1309572-.0640335-.1670633-.1107343-.0356317-.0462176-.069814-.1044706-.1010972-.1747634l-1.3230131-3.6705312h-6.4118785l-1.2633106,3.6238304c-.0240708.0698096-.0558459.130474-.0953255.1810226-.0399627.0500698-.0977325.0929184-.1728351.1280626-.0755857.0346654-.1829465.0596981-.3216081.0755901-.139136.0158876-.3201586.0231088-.5430679.0231088-.2301305,0-.4188575-.0096283-.5656979-.0288849-.1468404-.0197398-.2503534-.0563335-.3100472-.1107343s-.0876211-.1343218-.0832901-.2387924c.0038566-.1049582.0375557-.2431322.1015803-.4140434l5.1726386-14.0071421c.031292-.0852184.0731786-.1555067.1251767-.2099119.0510318-.053922.1266174-.0967706.2262739-.1280626.0991821-.0308088.2262827-.0524769.3813019-.0640291.1545448-.0115566.3514594-.0173327.5897687-.0173327.2542012,0,.4650751.0057761.6316553.0173327.1670633.0115522.3023428.0332203.4053814.0640291.1030299.0312964.1829465.0755901.2383093.1338431.0553715.0587362.0991821.130474.1309572.215688,0,0,5.1726386,14.0076165,5.1726562,14.0076165Z"/>
            <path class="st0" d="M86.2604599,20.6346053c0-.5907306-.1352882-1.0895092-.4048982-1.4972933-.2705676-.4082629-.7236161-.7014649-1.3591192-.880076-.1988385-.0544008-.4231885-.0929184-.6735419-.1165104-.2503534-.0235876-.5777333-.034661-.9831147-.034661h-1.7283857v5.0802034h2.0028099c.5401776,0,1.0067023-.0640335,1.4005227-.1920961.3928629-.1280626.7207259-.3071613.9831147-.5363298.2623888-.2286854.4544805-.4982954.5782077-.8093089.1227696-.3105347.184396-.6485048.184396-1.0139235M89.3474817,31.2273413c0,.0621096-.0120442.1165104-.0361149.1627324-.0235876.0471796-.0755857.0861803-.1550192.1169891-.0794423.0308132-.1906597.0544008-.3331604.0702928-.1434758.0154044-.3341267.0226256-.5724448.0226256-.2065341,0-.3755302-.0072212-.5064698-.0226256-.1309572-.015892-.2363942-.0414035-.3158277-.0760689-.0794335-.0351442-.1410599-.0837689-.1848792-.1458741-.0438105-.0616264-.0813574-.1396192-.1131413-.2325376l-1.4183386-3.554504c-.1665802-.4039319-.3394152-.7751267-.518514-1.112618-.1786156-.3384577-.3914133-.629727-.6374358-.8743043-.2460225-.2445729-.5363298-.4352239-.8699646-.5709908-.3341267-.1357714-.7351683-.2041358-1.2041001-.2041358h-1.3706714v6.4210192c0,.0621096-.0173327.1165104-.0534388.1627324-.0356317.0471796-.0914777.084252-.1670633.111213-.0751113.0274442-.1781412.0500698-.3095728.0698096-.1314316.0192566-.2960879.0288849-.4944432.0288849-.1988385,0-.3634948-.0096283-.4949264-.0288849-.1309572-.0197398-.2363942-.0423654-.3153445-.0698096-.0799167-.026961-.1357714-.0640291-.1670633-.111213-.0317839-.0462176-.0476671-.1006228-.0476671-.1627324v-13.9604369c0-.3033135.0813662-.5146662.2445817-.6355075.1622404-.1198794.3350843-.1805395.5180308-.1805395h3.2771983c.3894894,0,.7134959.0101071.9715537.0288849.2585322.0202186.4905866.0414035.6976039.0645167.5955492.1006228,1.1222507.2604561,1.5786551.4775893.4573707.2176119.8406053.4934813,1.1501693.8276036.3100559.3341223.5425847.7168693.6976127,1.1477622.155028.4313761.2320544.9075246.2320544,1.4274837,0,.5050335-.0693308.9580732-.2084668,1.3576741-.1386528.4000797-.3394152.753463-.601804,1.0606199-.2619056.3066825-.5758094.5729191-.9417025.7977567-.3654187.2257995-.7746479.4159673-1.2271957.571474.2537181.1083272.4843317.2465012.691349.4135602.2060597.1670633.3991177.3673426.5777333.5998801.1786156.2334995.3476028.5016644.5069618.8044904.1583926.3028259.3172684.644657.4766361,1.0254801l1.3822237,3.3210001c.1112174.2797215.1829553.4761486.2142473.5883235.0317752.1131413.0481503.2002792.0481503.2623844"/>
            <path class="st0" d="M103.6180229,29.3978013c0,.1246935-.0038566.2330207-.0115522.3264179-.0081876.0934016-.0221469.1742846-.0423698.2445773-.0197398.0698096-.0452513.1323979-.0770264.18632-.0322583.0544008-.0876299.1208413-.1670633.1978722-.0794423.0779972-.2465056.1969146-.5007069.3557904-.2542012.1593546-.5700289.3143825-.947483.4660371s-.8102709.2802003-1.2989336.3846753c-.4886627.1049538-1.0230686.1574307-1.6027258.1574307-1.001405,0-1.9055605-.1632068-2.7119748-.4896291-.8059399-.3264179-1.4934411-.8078638-2.0615461-1.444812-.5685882-.6369482-1.0052616-1.4236315-1.3109777-2.360041-.3057162-.9359264-.4588202-2.013879-.4588202-3.2338622,0-1.2503089.1646563-2.365334.4944432-3.3441133.3297869-.9792581.792455-1.8083024,1.3884873-2.4881036.5960236-.6798012,1.309045-1.1983152,2.1395301-1.5555463.8300194-.3577099,1.7500582-.5363298,2.7591588-.5363298.4443778,0,.877669.0409203,1.2989336.1222909.4207902.081845.8102796.1843917,1.1679851.3086064.3572223.1246935.6749827.2681649.9532547.4318548.278272.1627324.4708468.296571.5782165.4020036.1068777.104475.1766829.184396.2084668.2387968.0317752.0544008.0577698.1184387.0775096.1920961s.0356317.1612829.0476583.2623844c.0120442.1006228.0178159.2214641.0178159.3610833,0,.1550236-.0081876.2874215-.0240708.3962275-.0158832.1088104-.0394796.1998005-.0717379.2734622-.0317752.0741406-.0698052.1285457-.1136157.1636943-.0438105.034661-.0982157.0519981-.161766.0519981-.112175,0-.2681693-.0755901-.4674822-.2272402-.1997961-.1511758-.4573707-.3182347-.7731896-.5007025-.3153533-.1829509-.698579-.3500143-1.150178-.5011857-.4511071-.1516545-.9927342-.2272402-1.6229488-.2272402-.6875012,0-1.3124185.1338431-1.8752261.4020036-.5632908.2681649-1.0452067.6624685-1.4438501,1.1829108-.4000753.5204423-.7091737,1.1554666-.9287095,1.9050774-.220019.7500896-.3297869,1.606578-.3297869,2.5694654,0,.9556661.1059201,1.8006024.3172684,2.5352832.2118402.7337232.5156237,1.3475626.9108936,1.8405607.3952611.4934813.8810424.8665999,1.4558854,1.1188773.5753262.2522729,1.2262381.3788948,1.9532189.3788948.614797,0,1.15161-.0741406,1.6113966-.2214641.4588115-.1473236.8502248-.3129374,1.1737568-.4949264.3235408-.1829465.5892855-.3480816.7972779-.4958883.2070173-.1473236.3711904-.2214641.4910786-.2214641.0558459,0,.103513.0115566.1439502.0351442.0394796.023592.0717379.0678813.0958086.1343218.0235876.0659574.0418778.1569519.053922.273941.0115522.1160316.0178159.2638339.0178159.4424451"/>
            <path class="st0" d="M118.6637742,31.2273413c0,.0621096-.0163751.1165104-.0476671.1627324-.0317664.0471796-.0876211.084252-.1670546.111213-.0794335.0274442-.184396.0500698-.3153445.0698096-.1314404.0192566-.2922401.0288849-.4833654.0288849-.2060597,0-.3731143-.0096283-.5002149-.0288849-.1271006-.0197398-.2306049-.0423654-.3100559-.0698096-.0794335-.026961-.1352882-.0640291-.1665802-.111213-.0317839-.0462176-.0476671-.1006228-.0476671-.1627324v-6.6887053h-7.0204206v6.6887053c0,.0621096-.0154088.1165104-.0471927.1627324-.0322583.0471796-.0876211.084252-.1665802.111213-.0794511.0274442-.1848704.0500698-.3163108.0698096-.1309484.0192566-.2960879.0288849-.494452.0288849-.1911429,0-.3533833-.0096283-.4886715-.0288849-.1352882-.0197398-.2426403-.0423654-.3215994-.0698096-.0794335-.026961-.1357626-.0640291-.1670546-.111213-.0317664-.0462176-.0476671-.1006228-.0476671-.1627324v-14.4736579c0-.061622.0158832-.1160316.0476671-.162728.031292-.0467008.0876211-.0837733.1670546-.111213.0789591-.026961.1863112-.0500698.3215994-.0698096.1352882-.0192566.2975286-.0288849.4886715-.0288849.1983641,0,.363486.0096327.494452.0288849.1314404.0197398.2368598.042853.3163108.0698096.0789591.0274442.1343218.0645167.1665802.111213.0317839.0466964.0471927.1011016.0471927.162728v6.0363483h7.0204206v-6.0363483c0-.061622.0158832-.1160316.0476671-.162728.031292-.0467008.0871467-.0837733.1665802-.111213.0794511-.026961.1829553-.0500698.3100559-.0698096.1271006-.0192566.2941728-.0288849.5002149-.0288849.1911429,0,.3519426.0096327.4833654.0288849.1309484.0197398.235911.042853.3153445.0698096.0794511.0274442.1352882.0645167.1670546.111213.031292.0466964.0476671.1011016.0476671.162728v14.4736579Z"/>
            <path class="st0" d="M126.0337302,31.2273413c0,.0621096-.0158832.1165104-.0471927.1627324-.0322583.0471796-.0880955.084252-.1670546.111213-.0794335.0274442-.184396.0500698-.3163108.0698096-.1309484.0192566-.2956135.0288849-.49396.0288849-.1911429,0-.3538577-.0096283-.4886715-.0288849-.1352882-.0197398-.2426403-.0423654-.3220913-.0698096-.0794335-.026961-.1352882-.0640291-.1670546-.111213-.031292-.0462176-.0471752-.1006228-.0471752-.1627324v-14.4736579c0-.061622.0173239-.1160316.0534301-.162728.0361061-.0467008.0953167-.0837733.1786156-.111213.0837733-.026961.1906509-.0500698.3220913-.0698096.1309484-.0192566.2879003-.0288849.4708556-.0288849.1983641,0,.3630116.0096327.49396.0288849.1319148.0197398.2368773.042853.3163108.0698096.0789591.0274442.1347962.0645167.1670546.111213.031292.0466964.0471927.1011016.0471927.162728v14.4736579Z"/>
            <path class="st0" d="M146.1215671,31.0873356c-.0322583.1092891-.0794511.1964314-.1434758.2623888-.0635679.0664406-.1511889.116506-.2619144.1516545-.1112174.0346654-.2489127.0596981-.4116451.0755901-.162258.0158876-.3630116.0231088-.6013121.0231088-.24698,0-.4554468-.0072212-.6263492-.0231088-.1709199-.015892-.3114967-.0409203-.4226965-.0755901-.1112174-.0351442-.1954651-.085214-.2503534-.1516545-.0558547-.0659574-.0991821-.1530997-.1309484-.2623888l-3.2299968-11.385191h-.0235964l-2.9796609,11.385191c-.0235964.1092891-.0635503.1964314-.1193874.2623888-.0558547.0664406-.1357801.116506-.2383356.1516545-.1030299.0346654-.235911.0596981-.3995921.0755901-.1627324.0158876-.3711992.0231088-.6254004.0231088-.2619144,0-.4804664-.0072212-.6557261-.0231088-.1742758-.015892-.3172772-.0409203-.4294434-.0755901-.1107255-.0351442-.1959395-.085214-.255642-.1516545-.0592105-.0659574-.1010972-.1530997-.1251679-.2623888l-4.075917-13.9252927c-.0481415-.1790987-.073653-.3187179-.0770264-.4198195-.0048142-.1006228.0274442-.1781368.0948423-.2330207.0673981-.053922.1767004-.0895494.3278718-.1049538.150697-.0154088.3528913-.0231132.6080589-.0231132.2460137,0,.4410044.0057761.5835138.0173327.1434582.0115522.2522686.0332203.3278718.0640291.0755857.0312964.1271006.0741406.1550192.1280626.0274442.0544052.0491079.1246935.065483.2099119l3.4683149,12.6321353h.011561l3.2897169-12.6085477c.0235788-.0856972.0534301-.1574307.0895362-.215688.0351574-.0582574.0929272-.1030255.1728351-.1343218.0794511-.0308132.1921092-.0544008.3394328-.0698096s.3398896-.0231132.5782077-.0231132c.2224349,0,.3995921.0077044.5305406.0231132.1309484.0154044.235911.038992.3153445.0698096.0794511.0312964.1372209.0760689.173327.1343218.0351398.0582574.064991.1299865.0895538.215688l3.5390864,12.6085433h.0240883l3.3965946-12.6205787c.0240708-.0770308.0476671-.1453953.0712635-.2036527.0245451-.0582574.074145-.1030255.1492387-.1343218.0755857-.0308132.1824634-.0544008.3215994-.0698096s.3244808-.0231132.5546113-.0231132c.2387924,0,.4265619.0096327.5656979.0288849.139136.0197398.2402332.0568123.3042754.111213.0635679.053922.0934016.1319148.0895538.2325376-.0043398.1011016-.0259859.2412039-.0659574.4198195,0,0-4.0874604,13.9137361-4.0874955,13.9137537Z"/>
            <path class="st0" d="M158.0931314,18.4552004h-.0125098l-2.6570777,7.5167877h5.3628064l-2.6932189-7.5167877ZM164.7313013,30.8196539c.0630584.1709155.0977238.3086108.1010972.4135602.0038478.1049582-.0250371.184396-.0895538.2387968-.0630759.0544008-.1689873.0890662-.3153445.1049582-.1468316.0158876-.3442294.0231088-.5897687.0231088-.2464881,0-.4434114-.0057761-.5897687-.0173283-.1473236-.0115566-.2585234-.0312964-.3346011-.0582574-.0751113-.0274442-.1309484-.0640335-.1661058-.1107343-.0361061-.0462176-.0698228-.1044706-.1011147-.1747634l-1.3239794-3.6705312h-6.4113953l-1.263785,3.6238304c-.0235964.0698096-.0548884.130474-.0948423.1810226-.0399715.0500698-.0977413.0929184-.1723607.1280626-.0760776.0346654-.1839217.0596981-.3230577.0755901-.139136.0158876-.3196842.0231088-.5421015.0231088-.2301481,0-.4188663-.0096283-.5652235-.0288849-.1473236-.0197398-.2503534-.0563335-.3100559-.1107343s-.0876035-.1343218-.0842476-.2387924c.0048142-.1049582.0380388-.2431322.1015891-.4140434l5.1726298-14.0071421c.031292-.0852184.074145-.1555067.1251855-.2099119.0515149-.053922.1266262-.0967706.2262827-.1280626.0991821-.0308088.2267571-.0524769.3822682-.0640291.1540704-.0115566.3509762-.0173327.5897687-.0173327.2537093,0,.4645832.0057761.6316377.0173327.1661058.0115522.301394.0332203.4048982.0640291.1025555.0312964.181989.0755901.2383181.1338431.0548884.0587362.0991821.130474.1309484.215688,0,0,5.1726474,14.0076165,5.1726825,14.0076165Z"/>
          </g>
          <g>
            <path class="st0" d="M69.298123,44.8510117c0-.6138394-.1169891-1.1260985-.3514594-1.5382136-.2344615-.4116363-.5242945-.7183144-.8699734-.9205219-.3456789-.2017244-.70291-.3297913-1.0721765-.3846753-.3697497-.053922-.7293878-.0813662-1.0789233-.0813662h-1.8949659v6.0479049h1.8472988c.6201031,0,1.1338029-.0775096,1.5435153-.2330207.4092292-.155028.752501-.370716,1.030773-.6470641.278272-.2753818.4886627-.6056606.6321385-.9903271.1425094-.3846753.2137641-.8020833.2137641-1.2527203M71.4559609,44.6878005c0,.753463-.1275838,1.4332598-.381785,2.0393948-.2542012.6061438-.6176872,1.1227251-1.0904668,1.5497702-.4727795.4275195-1.0524367.7577896-1.7399379.9903271-.6875012.2335039-1.5078835.3500099-2.461147.3500099h-1.7519733v5.4302133c0,.062584-.0178159.1169891-.0534388.1632068-.035623.0467008-.0919608.0837733-.1670633.1107343-.0755857.0274442-.1786156.0505486-.3100472.069814-.1309572.0197398-.2960879.0293681-.4944432.0293681-.1988385,0-.363486-.0096283-.4944432-.0293681-.1309572-.0192566-.2368685-.0423698-.3158277-.069814-.0794423-.026961-.1357714-.0640335-.1670633-.1107343-.0317752-.0462176-.0476583-.1006228-.0476583-.1632068v-13.9137405c0-.3110135.0832901-.5324776.2503534-.6643924.1665802-.1319148.3533833-.1983553.5604006-.1983553h3.3012603c.3331604,0,.653319.0139637.9590352.0414079.3057162.026961.6677614.0856928,1.084695.1747634.4174168.0890662.842046.2561295,1.275346.5007025.4328168.2450561.8006426.5459581,1.1025109.9031892.3018684.3577143.5344059.7712745.6971295,1.2411637.1627236.4703724.2445729.9888864.2445729,1.5555463"/>
            <path class="st0" d="M78.921137,42.2755725h-.0115522l-2.6580528,7.5167877h5.3632896l-2.6936845-7.5167877ZM85.5597725,54.640026c.0635415.1709112.0972494.3086064.1010972.4135602.004331.1049538-.0255115.184396-.0895538.2388012-.0635415.0544052-.1685041.0890618-.3158189.1049538-.1463572.015892-.343755.0231132-.5897687.0231132s-.4424451-.0057805-.5897687-.0173327c-.1468404-.0115522-.2580578-.031292-.3336435-.058253-.0760689-.0274442-.1309572-.0640335-.1670633-.1107343-.0356317-.0462176-.069814-.1044706-.1010972-.1747677l-1.3230131-3.67101h-6.4118785l-1.2633018,3.6243092c-.0240708.069814-.0558459.130474-.0953255.1810226-.0404371.0500742-.0977325.0929184-.1728438.128067-.0755857.0346654-.1834297.0597025-.3220825.0755857-.139136.015892-.3196755.0231132-.5425847.0231132-.2301393,0-.4188575-.0096283-.5656979-.0288849-.1468404-.0197398-.2503534-.0563291-.3100472-.1107343-.0597025-.0544052-.0876299-.1343218-.0832901-.2387924.0038478-.1049538.0375557-.2431322.1010972-.4140434l5.1731218-14.0071421c.031292-.085214.0731786-.1555067.1246935-.2099119.0515149-.0539176.1271006-.0967706.2267571-.1280626.0991733-.0308132.2262827-.0524769.3813019-.0640335.1545536-.0115566.3509762-.0173283.5897687-.0173283.2542012,0,.4650751.0057761.6316553.0173283.1670633.0115566.3018684.0332203.4053814.0640335.1030211.031292.1824634.0755857.2383093.1338387.0553715.0587362.0991733.1304696.1309572.215688l5.1726386,14.0076165Z"/>
            <path class="st0" d="M96.7437223,36.111065c.0871379-.1006228.1728351-.1786156.2561251-.2330207.0837733-.053922.1766917-.0967706.2802047-.1280626.1030299-.0312964.2262827-.0529601.3697497-.0645167.1425006-.0110734.3134206-.0173327.5122503-.0173327.2383093,0,.4251124.0173327.5599174.0524769.1352882.0351486.2306137.0799211.2859852.1343218.0558459.0544052.0736618.1160316.053922.18632-.0197398.0698096-.0654742.1434714-.1367289.2214641l-2.7057199,2.4702921c-.0794335.0779928-.1530953.1376909-.2205022.1805395-.0678901.0428486-.1449165.0779928-.2325376.1049538-.0871379.0274442-.188727.0467008-.3037923.0582574-.1155484.0120354-.2566083.0178159-.4231885.0178159-.1829553,0-.3259391-.0096327-.428969-.0293725-.1030299-.0192566-.1747677-.0500698-.2147217-.092914-.0399627-.042853-.0515149-.0953299-.0356317-.157435.015892-.0621052.0597025-.1362458.1309572-.2219429l2.2526802-2.4818443ZM101.0107646,54.5234147c0,.1555111-.0269698.2874259-.0804086.3962275-.0534476.1088104-.123244.1978722-.20895.2681605-.0871379.069814-.1834297.1203626-.2903074.1516545-.1068777.0308088-.2137641.0462176-.3201586.0462176h-.6783649c-.2132722,0-.4005585-.0211805-.5603918-.0640335-.1603253-.0423698-.3124542-.1203626-.4564132-.2335039-.143467-.1116918-.2874259-.2657534-.4313761-.460261-.1434758-.1935412-.2960791-.4424451-.4573707-.7452798l-4.7051564-8.5769288c-.2460225-.4429283-.49396-.9070414-.7438303-1.3928183-.249879-.4852981-.4824078-.9575944-.6976127-1.4159271h-.0235876c.0158832.5594386.0274354,1.1309127.035623,1.7134601.0077044.5825474.0115522,1.1612427.0115522,1.7360857v9.1012233c0,.0544052-.0168495.1068777-.0500742.157435-.0332159.0505574-.0900281.089545-.1699448.116506-.0794335.0274442-.1843873.0505486-.3143869.069814-.1295077.0192566-.2956047.0288849-.4963671.0288849-.2012456,0-.3668682-.0096283-.4968591-.0288849-.1299821-.0192566-.2325288-.0423698-.3081233-.069814-.0755857-.026961-.1299821-.0659574-.1636899-.116506-.0332159-.0505486-.0500742-.1030299-.0500742-.157435v-13.9137405c0-.3110135.0900369-.5324776.2705764-.6643924.1805395-.1323979.3774541-.1983553.5902518-.1983553h1.0091006c.2373605,0,.4361902.0197398.5960323.0582574.1603165.0394796.3037923.1035086.4308929.1925748.1266174.0890662.2498703.2137597.3687833.3726399.1189218.1598377.2436066.3596382.3745638.6003589l3.6166136,6.6189002c.2229093.4039319.4381053.7982355.6451314,1.1824276.2075005.3851585.4072965.7635701.599397,1.1366932s.381785.7399825.5700289,1.1010614c.1877607.3615621.3740806.7245737.5589511,1.0899924h.0115522c-.0163664-.6138394-.0259947-1.2531991-.0298513-1.9171128-.0038566-.6643968-.0057805-1.3032733-.0057805-1.9171128v-8.1802181c0-.0544052.0163664-.1054369.0500742-.1516545.0332159-.0467008.0900281-.0876211.1699448-.1222821.0794423-.0356274.1843873-.0601813.3143869-.0760689.1299909-.0154044.2994613-.0235876.5088857-.0235876.1843873,0,.3437462.0081832.4780681.0235876.1343218.015892.2392756.0404415.3143869.0760689.0755857.034661.130474.0755857.1636899.1222821.0332159.0462176.0505574.0972494.0505574.1516545,0,0,0,13.9137405.0000351,13.9137493Z"/>
            <path class="st0" d="M114.6140715,51.1205213c0,.707241-.1328811,1.3364892-.3986434,1.8877447-.2667286.5517386-.6364695,1.0201784-1.1087658,1.4043705-.4732627.3846753-1.0293323.6740251-1.6682088.8685238-.6398429.1935412-1.329268.2907905-2.0682929.2907905-.5165901,0-.9951413-.042853-1.4361457-.128067-.4410044-.0856972-.8343416-.1901678-1.1800293-.3143869-.3456789-.1242104-.6355119-.2527605-.8699734-.3846753-.2344615-.1323979-.3971938-.2450561-.4886627-.3379745-.0914777-.0934016-.1588758-.2118314-.2026863-.3557904-.0438105-.143467-.0654742-.3355674-.0654742-.5767669,0-.170428.0076956-.3124542.0240708-.4251124.015892-.112175.0394796-.2036527.0712547-.2734578.0317752-.0702884.0712547-.1184387.1193962-.1458741.0476583-.0274442.1030211-.0409203.1665802-.0409203.1112174,0,.2681693.0659574.4708468.1978722.2026951.1323979.462668.2758649.7804284.4313761.3182435.1555024.7014605.3013852,1.150178.4366646.4491919.1362458.9672227.2041358,1.5555507.2041358.4448522,0,.8526319-.058253,1.221424-.1747677.3697584-.1160228.68751-.2816454.9537466-.4954095.2657622-.213281.4708556-.4756698.6138394-.7866833.1429838-.3105303.2147217-.6634305.2147217-1.0601411,0-.4275195-.1001484-.7919718-.2980206-1.0952897-.1988385-.3028259-.4612273-.5695457-.7866745-.7987186-.3264135-.228681-.6976127-.4385973-1.1145463-.6287651s-.8444443-.3846753-1.2811265-.5825474c-.4371566-.1983553-.8622602-.4178912-1.275346-.6586163-.4135602-.2407251-.7823523-.5242945-1.1082914-.8507168s-.5897687-.7091649-.7929382-1.1477622c-.2022031-.4390805-.3037923-.9652944-.3037923-1.5791383,0-.6292482.1174723-1.190132.3519338-1.6836132.2339871-.4934813.5599174-.9075202.9768598-1.2411637.417408-.3341223.9137751-.5883235,1.4900677-.7635701.5762926-.1747634,1.1978452-.2623844,1.8651146-.2623844.3418223,0,.6855773.0293681,1.0312474.0876211s.6711349.1362458.976851.2330207c.3061906.0972494.5782077.2060553.8165257.3259347.2387924.1208457.3952699.2180951.4708556.2917569s.1251679.1319148.1487643.1747634c.0240708.0428486.0433274.0972494.0597025.1632111.0158832.0659574.0279186.1458784.0356317.2387968.0076956.0934016.0120354.2137597.0120354.3615621,0,.1396192-.0062549.2638295-.0178159.3726399-.011561.108806-.0298513.2002792-.053922.273941-.0235964.0736618-.0577698.1280626-.1010972.162728-.0438193.0351442-.0934016.0529601-.1487643.0529601-.0876211,0-.2248244-.0544008-.4111531-.1632111-.1872775-.108806-.4150009-.2310924-.6855773-.3668594-.2700844-.1362501-.5897687-.2604605-.9595095-.3736019-.3692665-.112175-.7847594-.1685085-1.2454947-.1685085-.428477,0-.8020833.0563291-1.1203268.1685085-.3172772.1131413-.5801404.2623844-.7862001.4491875-.2065341.18632-.3615533.4073009-.4650751.6639136-.1035218.2561251-.1550368.5286254-.1550368.816047,0,.4193363.0996564.7804196.2984949,1.0832499.1978722.3033135.4621937.571474.7919806.8044948s.7053083.4467761,1.1265817.6412836c.4207814.1935412.8502248.3899726,1.2873814.5883279.4366646.1978722.8656336.4154841,1.2868894.6523614.4212558.2368685.7967947.5165901,1.1261073.8391558.3302789.3225657.5960236.70291.7987099,1.1419817.2026863.4390805.3038011.9575944.3038011,1.5555419"/>
            <path class="st0" d="M128.265757,41.1337797c0,.1473236-.0081876.2753861-.0240708.3841921-.0163751.1092891-.0413947.1964314-.0775184.2623888-.0356142.0664406-.0794335.1150652-.1309484.1458784s-.1092847.0462176-.1728351.0462176h-4.3382882v13.0750679c0,.062584-.0158832.1169891-.0476671.1632068-.0317664.0467008-.0876211.0837733-.1665802.1107343-.0794511.0274442-.1848704.0505486-.3158364.069814-.1314404.0197398-.2965623.0293681-.4949264.0293681-.1906509,0-.3533833-.0096283-.4886715-.0293681-.1352882-.0192566-.2426403-.0423698-.3215994-.069814-.0794335-.026961-.1352882-.0640335-.1670546-.1107343-.0317664-.0462176-.0476671-.1006228-.0476671-.1632068v-13.0750635h-4.3382882c-.0635503,0-.1213201-.0154044-.1728351-.0462176s-.0934016-.0794379-.1251855-.1458784c-.0317664-.0659574-.0577698-.1530997-.0770264-.2623888-.0202229-.108806-.0298513-.2368685-.0298513-.3841921s.0096283-.2777932.0298513-.3904514c.0192566-.1126582.04526-.2041314.0770264-.273941.0317839-.0698096.073653-.1203626.1251855-.1516545.0515149-.0308088.1092847-.0467008.1728351-.0467008h10.7265791c.0635503,0,.1213201.015892.1728351.0467008.0515149.0312964.0953167.081845.1309484.1516545.0361061.0698096.0611432.1612829.0775184.273941.0158832.1126582.0240708.2431278.0240708.3904514"/>
            <path class="st0" d="M146.4814864,54.9077034c-.0327503.1092847-.0794511.1964314-.1430014.2623888-.0630584.0664406-.1516633.116506-.2618969.1516545-.1117094.0346654-.2493871.0597025-.4116451.0755857-.1627324.015892-.363486.0231132-.601804.0231132-.2460137,0-.4554468-.0072212-.6254004-.0231132-.1718687-.015892-.3124454-.0409203-.4226965-.0755857-.1121838-.0351486-.1954651-.085214-.2513198-.1516545-.0558547-.0659574-.0996564-.1530953-.1299821-.2623888l-3.2309632-11.3851954h-.0235964l-2.9796609,11.3851954c-.0235964.1092847-.0635503.1964314-.1193874.2623888-.0558547.0664406-.1357801.116506-.2387924.1516545-.1030474.0346654-.2349446.0597025-.3991177.0755857-.1627324.015892-.3707072.0231132-.6254004.0231132-.2619144,0-.4804664-.0072212-.6557261-.0231132-.1738014-.015892-.3162933-.0409203-.428477-.0755857-.1121838-.0351486-.1969058-.085214-.2566259-.1516545-.0597025-.0659574-.1010972-.1530953-.1246935-.2623888l-4.0758994-13.9252927c-.0481415-.1790943-.073653-.3187135-.0775184-.4198195-.0043222-.1006228.0279361-.1781368.0953343-.2330163.0673981-.053922.1766829-.0895494.3278718-.1049582.1506794-.0154044.3528913-.0231088.6075845-.0231088.2464881,0,.4410044.0057761.5839882.0173283s.2522861.0332203.3278718.0640335c.0755857.031292.1271006.0741406.1550368.1280626.0274442.0544052.0491079.1246935.065483.2099119l3.4688068,12.6321353h.0105946l3.2906657-12.6085433c.0235964-.0856972.0524813-.1574307.0885874-.215688.0361061-.058253.0938935-.1030299.173327-.1343262.0794511-.0308088.1916173-.0544008.3398896-.0698096.1463748-.0154044.3394328-.0231088.5782252-.0231088.2224173,0,.3991002.0077044.5295742.0231088.1319323.0154044.2363854.0389964.3158364.0698096.0799255.0312964.1376953.0760689.1738014.1343262.034191.058253.064991.1299865.0885874.215688l3.5400528,12.6085433h.0231044l3.3970689-12.6205787c.0235788-.0770308.0471752-.1453953.0707715-.2036527.0255115-.058253.074145-.1030299.1497131-.1343262.0760776-.0308088.1829553-.0544008.3220913-.0698096s.3230577-.0231088.5546289-.0231088c.2383181,0,.4265443.0096283.5656979.0288849.139136.0197398.2402507.0568079.3033091.111213.0635679.0539176.0938935.1319148.0905201.2325332-.0053061.1011016-.0269522.2412039-.0669237.4198195,0,0-4.0874604,13.9137405-4.0874955,13.9137493Z"/>
            <path class="st0" d="M165.1380795,47.7763114c0-.8545646-.0775184-1.6494266-.2320456-2.3836286-.1545448-.734202-.4130858-1.3711546-.7736728-1.9108491-.3610789-.5396989-.8425292-.9614466-1.4462659-1.2642726-.6027528-.3033091-1.348999-.4549636-2.2372626-.4549636-.8887556,0-1.6350017.1636899-2.2377546.4896291-.6037367.3264179-1.093357.7616462-1.4703367,1.3051928-.3774541.5440342-.6465721,1.1790586-.8093045,1.9055605-.1627148.7260232-.244081,1.4900677-.244081,2.2897527,0,.8858565.0751113,1.7014247.2257907,2.4471789.1511714.7462374.4048982,1.3889705.7616374,1.928665.3572311.5401776.8357823.9595183,1.4347049,1.2584964.599397.2994613,1.3509317.4487088,2.2555704.4487088.8969256,0,1.650393-.1632068,2.2613334-.4896291.6119067-.3259391,1.1030029-.7669435,1.4765916-1.3225299.3731143-.5551033.6383846-1.1983196.7977435-1.9281818.1579182-.7303542.2373517-1.5040357.2373517-2.3191207M167.3074696,47.636209c0,1.2195001-.1473411,2.3191207-.4410044,3.2978957-.2946471.9787749-.7327525,1.812159-1.3172326,2.4996602-.5835138.6875012-1.3162663,1.2161266-2.198275,1.5849187-.8824831.3687833-1.9118154.5531794-3.087505.5531794-1.1598063,0-2.1626433-.1685041-3.0095122-.5064786-.8454106-.3379745-1.5449384-.8295275-2.0966859-1.4746677-.5531881-.6441739-.9643413-1.4448164-1.2344433-2.399995-.2700844-.9556705-.4048982-2.054808-.4048982-3.2983788,0-1.1886825.1473236-2.2680802.4410044-3.2396383.2936808-.9705918.7346852-1.796267,1.3229955-2.4760682.5878536-.6797968,1.3225387-1.2040913,2.2055138-1.5733578.8815168-.3687877,1.9098827-.5531794,3.0860467-.5531794,1.1367019,0,2.1250964.1670633,2.9681.5011857.8420372.3336391,1.5430409.8213443,2.1034327,1.4626279.5599174.6408004.9777998,1.4332598,1.2512752,2.3768906.2739498.9441095.4111531,2.0259143.4111531,3.2454144"/>
            <path class="st0" d="M186.274066,54.9077034c-.0322583.1092847-.0794511.1964314-.1434758.2623888-.0635679.0664406-.1511889.116506-.2619144.1516545-.1112174.0346654-.2489127.0597025-.4111531.0755857-.1627324.015892-.363486.0231132-.601804.0231132-.24698,0-.4554468-.0072212-.6263492-.0231132-.1709199-.015892-.3114967-.0409203-.4226965-.0755857-.1112174-.0351486-.1954651-.085214-.2503534-.1516545-.0558547-.0659574-.0991821-.1530953-.1309484-.2623888l-3.2299968-11.3851954h-.0235964l-2.9796609,11.3851954c-.0235964.1092847-.0635503.1964314-.1193874.2623888-.0558547.0664406-.1357801.116506-.2383356.1516545-.1030299.0346654-.235911.0597025-.3995921.0755857-.1627324.015892-.3711992.0231132-.6254004.0231132-.2619144,0-.4804664-.0072212-.6557261-.0231132-.1742758-.015892-.3172772-.0409203-.4294434-.0755857-.1107255-.0351486-.1959395-.085214-.255642-.1516545-.0592105-.0659574-.1010972-.1530953-.1251679-.2623888l-4.075917-13.9252927c-.0481415-.1790943-.0731786-.3187135-.0775184-.4198195-.0038478-.1006228.0279361-.1781368.0953167-.2330163.0669237-.053922.1762085-.0895494.3283462-.1049582.1497306-.0154044.3528913-.0231088.6070926-.0231088.2465056,0,.4410044.0057761.5844801.0173283.1429838.0115566.2522686.0332203.3268879.0640335.0760776.031292.1275926.0741406.1555111.1280626.0279361.0544052.0495822.1246935.064991.2099119l3.4688068,12.6321353h.011561l3.2897169-12.6085433c.0235788-.0856972.0534301-.1574307.0895362-.215688.0351574-.058253.0929272-.1030299.1723607-.1343262.0799255-.0308088.1925836-.0544008.3399072-.0698096s.3398896-.0231088.5782077-.0231088c.2224349,0,.3995921.0077044.5305406.0231088s.235911.0389964.3153445.0698096c.0794511.0312964.1372209.0760689.173327.1343262.0351398.058253.064991.1299865.0895538.215688l3.5390864,12.6085433h.0240883l3.3965946-12.6205787c.0240708-.0770308.0476671-.1453953.0712635-.2036527.0245451-.058253.074145-.1030299.1492387-.1343262.0755857-.0308088.1824634-.0544008.3215994-.0698096s.3244808-.0231088.5546113-.0231088c.2387924,0,.4265619.0096283.5656979.0288849.139136.0197398.2402332.0568079.3042754.111213.0635679.0539176.0934016.1319148.0895538.2325332-.0043398.1011016-.0259859.2412039-.0659574.4198195,0,0-4.0874604,13.9137405-4.0874604,13.9137493Z"/>
            <path class="st0" d="M203.0233592,54.5234147c0,.1396192-.0072212.2619056-.0235964.3668594-.0158832.1049538-.0433274.1925748-.0828069.2623888-.0399715.069814-.0861803.1203626-.1376953.1511714-.0515149.031292-.1092847.0467008-.1723607.0467008h-7.4017224c-.1824634,0-.3557904-.0597025-.5185052-.1805395-.1627324-.1198794-.2440986-.332194-.2440986-.6350287v-13.4481822c0-.3028259.0813662-.514183.2440986-.6350243.1627148-.1198794.3360418-.1805395.5185052-.1805395h7.3174748c.0645167,0,.1213201.0158876.1738014.0467008.0515149.0308132.0929096.081845.1246935.1516545.031292.0698096.0577698.1574307.0775184.2623844.019731.104475.0298337.2349446.0298337.3899726,0,.1401023-.0101027.2623844-.0298337.3668594-.0197486.1054369-.0462264.1911341-.0775184.2566083-.0317839.0659574-.0731786.1145865-.1246935.1458784-.0524813.0308132-.1092847.0462176-.1738014.0462176h-6.029619v4.7316299h5.1721555c.0635503,0,.1213377.0173327.1728351.0524813.0515149.0346654.0948423.0832901.1309484.1453997.0361061.062584.0616176.1478067.0775008.2566083.0154088.1088104.0235964.2368685.0235964.3846753,0,.1396192-.0081876.2599817-.0235964.3610789-.0158832.1006228-.0413947.1824721-.0775008.2445729-.0361061.062584-.0794511.1073608-.1309484.1343218-.0515149.026961-.1093023.0404459-.1728351.0404459h-5.1721555v5.3955479h6.1138667c.0630759,0,.1208457.015892.1723607.0467008.0515149.0308176.0977413.0794423.1376953.1458741.0394796.0659574.0669237.1516545.0828069.2561251.0163751.1049538.0235964.2349446.0235964.390447"/>
          </g>
          <line class="st1" x1="203.0233592" y1="16.2645331" x2="9.846737" y2="16.2645331"/>
        </g>
        <g>
          <path class="st0" d="M17.2614919,73.6845625c.0351486.0966608.053922.1741528.0563203.2340661.0019986.0591139-.014381.1038469-.0495295.1350071-.0351486.0303608-.0934674.050329-.1749478.0591139-.0810851.0087849-.1901282.0135815-.3259347.0135815-.1366059,0-.2452494-.0039972-.3263344-.0103838-.0814848-.0063954-.142997-.0175787-.1845366-.0327503-.0419393-.0151804-.0726954-.0367474-.092668-.0631111-.0195729-.0263636-.0383463-.0591139-.0559206-.0982596l-.731751-2.0770252h-3.5461232l-.6990007,2.0506615c-.0131818.0391457-.0307561.0734949-.0527229.1022568-.0219668.0279625-.053922.0527273-.0954616.071896-.0419393.0199682-.1010533.0343491-.1781456.0431341-.0766882.0087849-.1769464.0135815-.2999708.0135815-.1274169,0-.2316679-.005596-.3131526-.0167792-.0810851-.0111832-.1382004-.0319509-.1713548-.0631111-.0327547-.0303608-.0483304-.0750937-.0459321-.1350071.0019986-.0591139.020772-.1374054.0559206-.2340661l2.8611037-7.9230564c.0171746-.0487301.0403405-.0878758.0691024-.1190273.0283578-.0303608.0703015-.0543261.125023-.071896.0551212-.0175787.1254183-.0303608.2112956-.0367474.0854775-.0063954.194121-.0095844.3259347-.0095844.1405987,0,.257232.0031977.3495004.0095844s.1669623.0191688.2240777.0367474.1010533.0423434.1318094.0758932c.0307561.0327503.0551212.0734949.0726954.1214255l2.860704,7.9238558ZM13.5899461,66.6905758h-.0067908l-1.4698974,4.2515193h2.9665538l-1.4898656-4.2515193Z"/>
          <path class="st0" d="M24.3741149,73.9146315c0,.035948-.0067908.0663088-.0199726.0926636s-.0415396.0487301-.0854775.0655094c-.0439379.0175787-.1054501.0311514-.1845366.0399452s-.1845366.0135815-.316346.0135815c-.1146348,0-.2077025-.0047966-.280398-.0135815-.0722957-.0087849-.1306146-.0231659-.1745525-.0431341-.0439379-.0191688-.0782871-.0471312-.1022524-.0822798-.0243651-.0351486-.0451371-.0790909-.0627113-.1318094l-.7844782-2.0107252c-.0922683-.2284701-.1877299-.4377715-.2863893-.629503-.0990591-.1909233-.2168916-.3554917-.3526937-.4936965-.1366059-.1390042-.2967731-.2460488-.4813097-.3235408-.1845366-.0766926-.4066201-.1150389-.6658463-.1150389h-.7581146v3.6316007c0,.035948-.0099841.0663088-.029557.0926636-.0199726.0263636-.0507287.0471312-.0922683.0623116-.0419393.0159798-.0990591.0287619-.1713548.0399452-.0726954.0111832-.1637646.0167792-.2736072.0167792s-.2009118-.005596-.2736072-.0167792-.1310143-.0239653-.1745525-.0399452c-.0439379-.0151804-.0750937-.035948-.0922683-.0623116-.017974-.0263636-.0263636-.0567156-.0263636-.0926636v-7.8967015c0-.1717545.0447373-.2907818.1350071-.3594888.08987-.0678989.1857358-.1022568.286789-.1022568h1.812607c.2152927,0,.394633.005596.5372303.0167792.142997.0111832.2712133.0231659.3858481.035948.3295278.0575151.6207136.1477892.8731491.2708136.2528396.1230244.4649346.2787991.6362894.4681323.1713548.1885338.2999708.4050212.3854484.6486717.0858773.24445.128616.5136647.128616.8076442,0,.285994-.0383463.5416272-.1154342.767699-.0766882.2268713-.1877299.4265883-.3327255.5999416-.1449912.1741528-.3187443.3243315-.5208551.4521525-.2021109.1270216-.4285868.2348656-.6790281.3227414.1405987.0615122.2680156.1398037.3826504.2340661.1142351.0942625.2204846.2077025.3195437.3395119.0986594.1318094.1921268.2835957.2799982.4545508.0878758.1717545.1757473.3650761.2636231.5799735l.7649054,1.878907c.0615122.158173.1010533.2692147.1186319.3331252s.0263636.1126406.0263636.147798ZM22.666958,67.9232094c0-.3339246-.0750937-.6167209-.2244774-.8475893-.149388-.230069-.3998293-.3962363-.7513239-.4976848-.1098426-.0303608-.2340661-.0527273-.3722665-.0655094-.1386001-.0135815-.3199434-.0199682-.5440211-.0199682h-.955833v2.8742855h1.107615c.2987717,0,.5568032-.0367474.7744898-.1086434.2172869-.0726954.3986302-.1741528.5436213-.3035639s.2516404-.2819968.3199434-.4577485c.0679033-.1757517.1022524-.3674744.1022524-.573578Z"/>
          <path class="st0" d="M31.5921836,72.8801161c0,.0702972-.0019986.1318094-.006391.1845366s-.0123824.0990591-.0231659.1382048c-.0107835.0399452-.0251645.0750937-.0427388.1054457-.0175743.0311514-.0483304.0686983-.0922683.1126406s-.1362062.1110417-.2768049.2005164c-.1409984.0902741-.3155465.1781412-.5240485.2636187-.2089017.086277-.4485594.158173-.7185736.2180863-.2704139.0591139-.5659878.0886753-.8867306.0886753-.5536054,0-1.053693-.091873-1.4994544-.2772002-.4461611-.1845366-.8264176-.456949-1.1403697-.8172285-.3143518-.3602883-.5560037-.8052459-.7253599-1.3348904-.1689565-.5296445-.253639-1.1391705-.253639-1.8293775,0-.7069862.0910692-1.3380881.2736072-1.8916891.1821383-.5536098.4381712-1.0225328.7677034-1.4067864.3299275-.385053.7241652-.6782331,1.1835081-.8803396.4589432-.2021065.9678157-.3035639,1.525818-.3035639.2460488,0,.4857066.0231659.7185736.0694977s.4481597.1046463.6458737.1749522.3734657.1509869.5276459.2436505c.1537805.091873.2604254.1677574.3195437.2276707.0595136.0591139.0978599.1038469.1154342.1350071.0175743.0303608.0319552.0671082.0427388.1086434s.0199726.0910736.0263636.1485886c.0067908.0567156.0099841.1246233.0099841.2037054,0,.0886753-.0043925.1629696-.0131818.2244818-.0091847.0615122-.0223665.11344-.0399408.1549753s-.038746.0726954-.0627113.091873c-.0243651.0199682-.0543217.0303608-.08987.0303608-.0615122,0-.1477892-.0431341-.2584312-.1286116-.1102423-.086277-.2528396-.1805395-.4273877-.2835957s-.3866475-.1981181-.6358896-.2835957c-.2500416-.0854775-.549213-.1286116-.8983136-.1286116-.3798567,0-.7253599.0758932-1.0369181.2276707s-.5779749.3746604-.7984595.6686399c-.221284.2947789-.3922391.6542678-.5136647,1.0776583-.1218253.42419-.182538.9091015-.182538,1.4539176,0,.5408277.0587142,1.0185444.1757473,1.4339494s.2847904.7621118.5036806,1.0409109c.218486.2795985.4869013.4904988.8052459.6334914.3179448.1421932.6782287.2140892,1.0800566.2140892.3403113,0,.6374885-.041544.8915228-.1254227.253639-.0830792.4701265-.1765511.6490715-.280398.178945-.1030562.3259347-.1965193.4409692-.2795985.1146348-.0838787.2053042-.1254227.271613-.1254227.0307561,0,.0575194.0063954.0794862.0199682.0219668.0127821.0399408.0383463.0531226.0750937.0131818.0375469.0231659.0894747.029557.1549753.0067908.0663088.0099841.149388.0099841.2508366Z"/>
          <path class="st0" d="M39.2392389,73.9146315c0,.035948-.0091891.0663088-.0263636.0926636-.0175787.0263636-.0487301.0471312-.0922683.0623116-.0443376.0159798-.1022568.0287619-.1749522.0399452-.0723001.0111832-.1613707.0167792-.2668164.0167792-.1142395,0-.2065078-.005596-.2768049-.0167792s-.127821-.0239653-.1713592-.0399452c-.0439335-.0151804-.0750937-.035948-.0922683-.0623116-.0175787-.0263636-.0263636-.0567156-.0263636-.0926636v-3.783387h-3.8828414v3.783387c0,.035948-.0087849.0663088-.0263636.0926636s-.0483348.0471312-.0922683.0623116c-.0439335.0159798-.1022568.0287619-.1745481.0399452-.0726954.0111832-.163769.0167792-.2736072.0167792-.1054457,0-.1957198-.005596-.2704095-.0167792s-.1342076-.0239653-.1777458-.0399452c-.0439335-.0151804-.0750937-.035948-.0922683-.0623116-.017974-.0263636-.0263636-.0567156-.0263636-.0926636v-8.1866839c0-.0351486.0083896-.0663088.0263636-.0926636.0171746-.0263636.0483348-.0471312.0922683-.0623116.0435382-.0151804.1030562-.0287619.1777458-.0399452.0746896-.0103838.1649637-.0159798.2704095-.0159798.109847,0,.2009118.005596.2736072.0159798.0723001.0111832.1306146.0247648.1745481.0399452s.0746896.035948.0922683.0623116.0263636.0575151.0263636.0926636v3.4143138h3.8828414v-3.4143138c0-.0351486.0087849-.0663088.0263636-.0926636.0171746-.0263636.0483348-.0471312.0922683-.0623116.0435382-.0151804.1010533-.0287619.1713592-.0399452.0702972-.0103838.1625655-.0159798.2768049-.0159798.1054457,0,.1945251.005596.2668164.0159798.0726954.0111832.1306146.0247648.1749522.0399452.0435382.0151804.0746896.035948.0922683.0623116.0171746.0263636.0263636.0575151.0263636.0926636v8.1866839Z"/>
          <path class="st0" d="M42.6403753,73.9146315c0,.035948-.0087849.0663088-.0263636.0926636s-.0483348.0471312-.0922683.0623116c-.0439335.0159798-.1022568.0287619-.1745481.0399452-.0726954.0111832-.163769.0167792-.2736072.0167792-.1054457,0-.1957198-.005596-.2704095-.0167792s-.1342076-.0239653-.1777458-.0399452c-.0439335-.0151804-.0750937-.035948-.0922683-.0623116-.017974-.0263636-.0263636-.0567156-.0263636-.0926636v-8.1866839c0-.0351486.0095844-.0663088.0295613-.0926636.0195729-.0263636.0527273-.0471312.098655-.0623116.0463318-.0151804.1054457-.0287619.1781412-.0399452.0726954-.0103838.1593677-.0159798.2604298-.0159798.109847,0,.2009118.005596.2736072.0159798.0723001.0111832.1306146.0247648.1745481.0399452s.0746896.035948.0922683.0623116.0263636.0575151.0263636.0926636v8.1866839Z"/>
          <path class="st0" d="M53.0754347,73.8355494c-.0175787.0623116-.0439335.1110417-.0790909.1485886s-.0834834.0663088-.1449956.0854775c-.0615122.0199682-.1374054.0343491-.2272754.0431341-.0902741.0087849-.2013159.0135815-.3331252.0135815-.1362018,0-.251636-.0047966-.3459073-.0135815-.0946666-.0087849-.1725539-.0231659-.2340661-.0431341-.0615122-.0191688-.107844-.0479307-.1386001-.0854775s-.0547214-.086277-.0723001-.1485886l-1.7866387-6.4395862h-.0131774l-1.6476433,6.4395862c-.0131774.0623116-.0355527.1110417-.0659047.1485886-.0307561.0375469-.0750937.0663088-.1318094.0854775-.0575151.0199682-.1310099.0343491-.2208799.0431341-.0902741.0087849-.2057083.0135815-.3463026.0135815-.1449956,0-.266017-.0047966-.3622825-.0135815-.0970649-.0087849-.176147-.0231659-.2376592-.0431341-.0615122-.0191688-.1086434-.0479307-.1413937-.0854775-.0331544-.0375469-.0563203-.086277-.0694977-.1485886l-2.2543757-7.8767246c-.0263636-.1014574-.0407446-.1805395-.0427388-.2372639-.0023983-.0575151.0151804-.1014574.0527273-.1318094.0371428-.0311514.0978555-.0511284.1813389-.0599133s.1953245-.0127821.3359188-.0127821c.1362018,0,.2440546.0031977.3231367.0095844s.1393995.0191688.1813389.0367474c.041544.0175787.0702972.041544.0858816.071896.0151804.0311514.0271631.0702972.035948.1190273l1.9184569,7.145773h.0063954l1.8193978-7.1329909c.0131774-.0479307.0295613-.0886753.0495295-.1214255.0195729-.0335497.0515237-.0583145.095466-.0758932s.1066493-.0311514.1881297-.0399452c.0810851-.0087849.1877343-.0127821.3195437-.0127821.1230244,0,.2208799.0039972.2931801.0127821.0726954.0087849.1310099.0223665.1749522.0399452s.0758932.0423434.095466.0758932c.0199682.0327503.0363521.0734949.0495295.1214255l1.9576026,7.1329909h.0131774l1.878907-7.1393775c.0131774-.0439335.0263636-.0822798.039541-.1150389.0131774-.0335497.0403405-.0583145.0822798-.0758932.041544-.0175787.1010533-.0311514.1781412-.0399452.0766926-.0087849.1789406-.0127821.3063575-.0127821.1318094,0,.2360603.005596.3131482.0159798.0766926.0111832.1330129.0319509.1681615.0631111.0351486.0303608.0515237.0742943.0495295.1318094-.0023983.0567156-.014381.1358065-.0363521.2372639l-2.2611664,7.8703379Z"/>
          <path class="st0" d="M63.3323529,70.9356997c0,.5184613-.0758932.9809975-.2272754,1.3876176-.1517863.4066201-.3682738.7501291-.6494712,1.0313265s-.623907.4944959-1.0281288.6390874c-.4046171.1453909-.8635603.2180863-1.3776291.2180863-.4705306,0-.8987177-.0686983-1.2857561-.2045048-.3866431-.1358065-.7181695-.3371136-.9953785-.6031394-.2768049-.266017-.4896993-.5991422-.6390874-.9985674-.149388-.4002246-.2240777-.8611708-.2240777-1.3844199v-5.2932208c0-.0351486.0083896-.0663088.0263636-.0926636.0171746-.0263636.0483348-.0471312.0922683-.0623116.0435382-.0151804.1010533-.0287619.1713592-.0399452.0702972-.0103838.1625655-.0159798.2768049-.0159798.1054457,0,.1953245.005596.2700141.0159798.0746896.0111832.1330129.0247648.1749522.0399452.041544.0151804.0715007.035948.0890706.0623116.0171746.0263636.0263636.0575151.0263636.0926636v5.1550248c0,.3954368.0483348.7405359.1449956,1.0345154.0966608.2947789.2360603.5400283.4186028.7349487.1821383.1957198.4018235.3427096.6590556.4417687s.5460196.1485886.8667581.1485886c.3295322,0,.6231075-.0487301.8799443-.1453909.257232-.0966608.4749231-.2412522.6526689-.4345738.1781412-.1933216.3143518-.4329837.4086143-.7189689.0946666-.2851945.1417978-.6191104.1417978-1.0017651v-5.2141387c0-.0351486.0087849-.0663088.0263636-.0926636s.0483348-.0471312.0922683-.0623116.1022568-.0287619.1749522-.0399452c.0723001-.0103838.1633649-.0159798.2736072-.0159798.1054457,0,.194121.005596.2668164.0159798.0723001.0111832.1294111.0247648.1713592.0399452.041544.0151804.0726954.035948.0922683.0623116.0199682.0263636.0295613.0575151.0295613.0926636,0,0,0,5.2077433-.0000264,5.2077257Z"/>
          <path class="st0" d="M74.8550679,73.9146315c0,.035948-.0091891.0663088-.0271631.0926636-.0183693.0263636-.0499249.0471312-.0950619.0623116-.0455324.0159798-.1030562.0287619-.1733534.0399452-.0699018.0111832-.161766.0167792-.2748107.0167792-.104251,0-.1937257-.005596-.2684153-.0167792s-.1334082-.0239653-.1765511-.0399452c-.0427388-.0151804-.0734949-.035948-.0914689-.0623116s-.0271631-.0567156-.0271631-.0926636v-7.4285692h-.0131774l-3.0056995,7.462119c-.0131774.0303608-.0319509.0567156-.0563203.0790909-.0239653.021567-.0591139.0407446-.1054457.0559162-.0459365.0151804-.1010533.0263636-.1645684.0327503-.0639105.0063954-.1398037.0103838-.2276707.0103838-.0922683,0-.1713592-.0047966-.2372639-.0135815s-.1206261-.0207676-.1645684-.035948c-.0439335-.0159798-.0782915-.0343491-.1022568-.0567156-.0243607-.021567-.0407446-.0455324-.0495295-.071896l-2.8738902-7.462119h-.0067908v7.4285692c0,.035948-.0091891.0663088-.0271631.0926636s-.0495295.0471312-.0950619.0623116c-.0451371.0159798-.104251.0287619-.1765511.0399452s-.1653591.0167792-.2784038.0167792c-.1086434,0-.1989176-.005596-.271613-.0167792-.0723001-.0111832-.1298152-.0239653-.1729493-.0399452-.0431341-.0151804-.0723001-.035948-.0882712-.0623116s-.02357-.0567156-.02357-.0926636v-7.8439743c0-.1845366.0487301-.316346.1469897-.3954368s.2077025-.1190273.3279333-.1190273h.6962071c.1429926,0,.2676159.0135815.3750646.0399452.1070446.0263636.2005164.0678989.2808021.1254227.0802856.0567156.1473851.1294111.2009118.2172869s.1006579.1909233.1406031.3099593l2.4389123,6.1767581h.0331544l2.5379714-6.1567899c.0487301-.1318094.1026521-.24445.1605713-.3363229.0579192-.0926636.1218297-.1661585.1909233-.221284.0691024-.0543261.1461903-.0942625.2308684-.1182278.0850822-.0239653.1833331-.0367474.2947789-.0367474h.7301521c.0667041,0,.1306146.0103838.1905279.0295613.0603175.0199682.1118412.0511284.1541758.0926636s.0770879.0942625.1038469.158173.0403405.1413937.0403405.2340661c0,0,0,7.8439743.0000176,7.8439743Z"/>
          <path class="st0" d="M85.4151547,68.0550187c0,.4257888-.0702972.8108419-.2109002,1.1535515-.1409984.3427096-.3419102.6350902-.6031394.8763424-.2616245.2420517-.582363.4289866-.9626194.5607959s-.8340078.1973187-1.361254.1973187h-.9690149v3.0716042c0,.035948-.0099885.0663088-.0295613.0926636-.0199682.0263636-.0507243.0471312-.0922683.0623116-.0419393.0159798-.0990591.0287619-.1713592.0399452-.0726954.0111832-.163769.0167792-.2736072.0167792s-.2009118-.005596-.2736072-.0167792-.1310099-.0239653-.1745481-.0399452c-.0439335-.0151804-.0750937-.035948-.0922683-.0623116-.017974-.0263636-.0263636-.0567156-.0263636-.0926636v-7.8703379c0-.1757517.0459365-.3011656.1382048-.3754599.0922683-.0750937.1957198-.1126406.3099593-.1126406h1.8257844c.1845366,0,.361483.0079855.5308392.0231659.1689609.0159798.3690732.0487301.5999416.0990591.2304731.050329.465734.1453909.704992.2835957.2396534.1382048.4429634.3083604.6099301.5104669s.2955783.4361726.3854484.7021984c.0902741.266017.1354024.5591971.1354112.8803396ZM84.2220622,68.1468917c0-.3467067-.0651052-.6366891-.1945251-.8699558-.1298152-.2324673-.2899823-.4066201-.4813097-.5208508s-.3890414-.1869349-.5931509-.2172869c-.2045048-.0311514-.4034224-.0463318-.5967439-.0463318h-1.048097v3.4214999h1.0217333c.3427096,0,.6275-.0439335.8535806-.1318094.2264759-.0878758.4165998-.2101008.5703803-.3658755.1537805-.1565741.2700141-.3427096.3495004-.5607959.0790909-.2172869.1186319-.4537513.1186319-.7085939Z"/>
          <path class="st0" d="M92.5409507,73.6845625c.0351486.0966608.053922.1741528.0563203.2340661.0019942.0591139-.014381.1038469-.0495295.1350071-.0351486.0303608-.0934631.050329-.1749522.0591139-.0810851.0087849-.1901238.0135815-.3259303.0135815-.1366059,0-.2452494-.0039972-.3263344-.0103838-.0814804-.0063954-.1429926-.0175787-.1845366-.0327503-.0419393-.0151804-.0726954-.0367474-.0926636-.0631111-.0195729-.0263636-.0383463-.0591139-.0559162-.0982596l-.731751-2.0770252h-3.5461232l-.6990007,2.0506615c-.0131774.0391457-.0307561.0734949-.0527273.1022568-.0219712.0279625-.053922.0527273-.095466.071896-.0419393.0199682-.1010533.0343491-.1781412.0431341-.0766926.0087849-.1769464.0135815-.2999708.0135815-.1274169,0-.2316679-.005596-.3131482-.0167792-.0810851-.0111832-.1382048-.0319509-.1713592-.0631111-.0327503-.0303608-.0483348-.0750937-.0459365-.1350071.0019942-.0591139.0207676-.1374054.0559162-.2340661l2.8611081-7.9230564c.0171746-.0487301.0403405-.0878758.0691024-.1190273.0283578-.0303608.0702972-.0543261.1250186-.071896.0551168-.0175787.1254227-.0303608.2112956-.0367474.0854775-.0063954.194121-.0095844.3259303-.0095844.1406031,0,.257232.0031977.3495004.0095844s.1669579.0191688.2240777.0367474.1010533.0423434.1318094.0758932c.0307561.0327503.0551168.0734949.0726954.1214255,0,0,2.860704,7.9238558,2.8607128,7.9238558ZM88.8694049,66.6905758h-.0067908l-1.4698974,4.2515193h2.9665538l-1.4898656-4.2515193Z"/>
          <path class="st0" d="M100.4116839,73.6182625c0,.0878758-.0147763.1629696-.0443376.2244818s-.068303.1118412-.1158383.1509869c-.0479307.0399452-.1010533.0686983-.1601672.086277s-.1182278.0263636-.1773505.0263636h-.3750646c-.1182278,0-.2216794-.0119827-.3103546-.0367474-.0886753-.0239653-.1725539-.0678989-.2520401-.1318094-.0794862-.0631111-.1589724-.1501875-.2384586-.2604298-.0798815-.1094429-.1641643-.250046-.2532349-.4218005l-2.6022772-4.8514522c-.1362018-.250046-.2732119-.5128652-.4114079-.787676s-.2668164-.5416272-.3858437-.8012575h-.0131774c.0087849.3171454.0155757.6398868.0199682.9690149.0039972.3299275.0063954.6574567.0063954.9825964v5.1478299c0,.0311514-.0091891.0607128-.0275584.0894747-.0187734.0287619-.0499249.050329-.0942625.0655094-.0439335.0159798-.1018527.0287619-.1737487.0399452s-.1633649.0167792-.2748107.0167792-.2029059-.005596-.2748107-.0167792-.1286116-.0239653-.1701556-.0399452c-.0419393-.0151804-.071896-.0367474-.0906694-.0655094-.0183693-.0287619-.0275584-.0583145-.0275584-.0894747v-7.8703379c0-.1757517.0495295-.3011656.149388-.3754599.0998585-.0750937.2088973-.1126406.3267298-.1126406h.5580023c.131414,0,.2412522.0111832.3299275.0335497.0882712.021567.1677574.0583145.2380633.1086434s.1382048.1206261.2041095.2109002.134603.2029059.2069031.3395119l2.0007367,3.7442413c.1230244.2284701.2420517.451353.3566864.6686399.1146348.2180863.2248771.4321843.3311222.6430757s.2112956.4186028.3155465.6231075c.1038469.2037054.2069031.4098178.3087558.6159215h.0067908c-.0087849-.3467067-.014381-.7085851-.0167792-1.084045-.0019942-.3762593-.0031977-.737347-.0031977-1.0848444v-4.6269792c0-.0311514.0091891-.0599133.0279625-.086277.0183693-.0263636.0495295-.0495295.0938672-.0686983.0439335-.0199682.1018527-.0343491.1737487-.0431341s.1657632-.0127821.2819968-.0127821c.1018527,0,.1901238.0039972.2640228.0127821.0742943.0087849.1322135.0231659.1741528.0431341.041544.0191688.071896.0423434.0902741.0686983.0187734.0263636.0279625.0551168.0279625.086277,0,0,0,7.8703379-.0000088,7.8703379ZM98.0518625,63.2035666c.0483348-.0575151.095466-.1014574.1413937-.1326088.0463318-.0303608.0978555-.0543261.1549753-.071896s.1254227-.0295613.2045048-.0367474c.0790909-.0063954.1733534-.0095844.2835957-.0095844.1318094,0,.2348656.0095844.3095552.0295613s.1274169.0455324.158173.0758932c.0307561.0311514.0407446.0663088.0299567.1054457-.0111832.0399452-.0363521.0814804-.0758932.1254227l-1.4966564,1.397202c-.0439335.0439335-.0842828.0782915-.1218297.1022568-.0371428.0239653-.0802856.0439335-.1286116.0591139-.0483348.0159798-.104251.0263636-.1677574.0335497-.0639105.0063954-.1417978.0095844-.2340661.0095844-.1014574,0-.1805395-.005596-.2372639-.0167792-.0575151-.0103838-.0970649-.0279625-.1190273-.0527273-.0219712-.0239653-.0283578-.0535267-.0195729-.0886753s.0327503-.0766926.0723001-.1254227c0,0,1.2462151-1.4035886,1.2462239-1.4035886Z"/>
          <path class="st0" d="M107.2606838,71.6938143c0,.3994252-.0734949.7557163-.2204846,1.0672745-.1473939.3123488-.3518899.5767757-.6131191.7948621-.2616245.2172869-.5691855.3810559-.9230784.4904988-.3538928.1102423-.7349487.1653591-1.143563.1653591-.2855899,0-.5504121-.0247648-.7944667-.0726954-.2436505-.0487301-.4613415-.107844-.6526689-.1781412-.1909233-.0702972-.3514945-.1421932-.4809144-.2172869-.1298152-.0750937-.2200893-.1382048-.2704095-.1909233-.0507243-.0527273-.0878758-.1198267-.1118412-.2013159-.0243607-.0814804-.0363521-.1901238-.0363521-.3267298,0-.0958613.0043925-.1765511.0131774-.2404528.0087849-.0631111.0219712-.1150389.039541-.1549753.0175787-.0391457.039541-.0663088.0659047-.0822798.0263636-.0151804.0571197-.0231659.0922683-.0231659.0615122,0,.1481845.0375469.2604298.1126406.1118412.0742943.2560373.1557747.4317802.2436505s.3878467.1701556.6358896.2468482c.2484471.077492.5352317.1158383.8603714.1158383.2460488,0,.4713212-.0327503.6758348-.0990591.2041095-.0663088.3798523-.1589724.5272462-.280398.1469897-.1206261.2604298-.2692147.3395119-.4449664s.1186319-.3754599.1186319-.5999416c0-.2412522-.0551168-.4481553-.1649637-.6191104-.109847-.1717545-.2548338-.321942-.4349779-.451353-.1801441-.1302105-.3854484-.2484471-.6163168-.3562911s-.4669287-.2172869-.7085851-.3299275c-.2416563-.1118412-.4769172-.235665-.7053874-.3722709-.2284701-.1358065-.4329837-.2963778-.6131191-.4809144s-.3263344-.4010241-.4381756-.6494712c-.1122365-.2484471-.1681615-.5456155-.1681615-.8931217,0-.3562911.0647099-.6734365.1945251-.9522356.1294111-.2795985.3095552-.5136647.5404236-.7021984.2308684-.1893332.505275-.3331252.8240193-.4321843.3183401-.0990591.6622533-.1477892,1.0317218-.1477892.1889291,0,.3790617.0159798.569985.0487301.1913274.0335497.3714715.077492.5404236.1318094.1693562.0551168.319939.116629.4517571.185336.1318181.0678989.2184904.1230244.2604298.1645684.0415352.041544.0691024.0742943.0822798.0990591.0131774.0239653.0239653.0543261.0331544.091873.0087849.0375469.0151804.0822798.0195729.1350071s.006782.1214255.006782.2045048c0,.0790909-.0036018.149388-.0099797.2109002-.006782.0615122-.0163751.11344-.0295526.1549753s-.0319596.0726954-.0563115.0926636c-.0239653.0191688-.0515325.0295613-.0822798.0295613-.0483348,0-.1242192-.0311514-.2272754-.0926636-.1034515-.0615122-.2296737-.1302105-.3790617-.2077025-.149388-.0766926-.3263344-.1469897-.5308392-.2109002-.2041095-.0631111-.4337831-.0950619-.6886169-.0950619-.2372639,0-.4441669.0319509-.6199098.0950619-.1757517.0639105-.3207384.1485886-.4349779.2540343s-.2001123.2308684-.257232.3754599c-.0571197.1453909-.0854775.2987761-.0854775.4617368,0,.2372639.0547214.4417687.1649637.6127237.1094429.1717545.2556332.3235408.4381756.4553502.1821383.1318094.3898408.2524355.6231075.3618783.2328626.1102423.4701265.221284.7117828.3331252s.4789114.235665.7117828.3690732c.2328626.1342076.4405739.2923806.6231075.4745189.1821471.1829377.3295234.3978264.4417599.6462735.1118324.2484471.1677574.5416272.1677574.8803308Z"/>
          <path class="st0" d="M114.1356432,66.0443024c0,.0838787-.0039884.1557747-.0127733.2172869s-.0231747.1110417-.0431341.1485886-.0439423.0647099-.0727042.0822798c-.0279537.0175787-.0599133.0263636-.0950707.0263636h-2.3997666v7.395819c0,.035948-.0087849.0663088-.0263548.0926636s-.0479307.0471312-.091873.0623116c-.0439423.0159798-.1022568.0287619-.1749434.0399452s-.163769.0167792-.2732119.0167792c-.1054545,0-.1957111-.005596-.2708048-.0167792-.0742855-.0111832-.1342164-.0239653-.1781412-.0399452-.0439423-.0151804-.0742855-.035948-.091873-.0623116s-.0263548-.0567156-.0263548-.0926636v-7.395819h-2.3993625c-.0355439,0-.0670994-.0087849-.0958613-.0263636-.0283578-.0175787-.0515325-.044733-.0691024-.0822798s-.0319596-.0870764-.0427476-.1485886c-.011192-.0615122-.0163751-.1334082-.0163751-.2172869,0-.0830792.0052007-.1573736.0163751-.2204846.0107879-.0639105.0251601-.1158383.0427476-.1549753.0175699-.0399452.0407446-.0686983.0691024-.086277.0287619-.0175787.0603175-.0263636.0958613-.0263636h5.9327035c.0351574,0,.0670994.0087849.0950707.0263636.0287619.0175787.0527273.0463318.0727042.086277.019977.0391457.0343491.0910736.0431341.1549753.0087849.0631111.0127733.1374054.0127557.2204846Z"/>
          <path class="st0" d="M123.5358007,73.8355494c-.0175699.0623116-.0439423.1110417-.0790821.1485886s-.083088.0663088-.1446002.0854775c-.0623028.0199682-.1373966.0343491-.2276707.0431341s-.2013159.0135815-.3331252.0135815c-.1357977,0-.251636-.0047966-.3458985-.0135815s-.1725539-.0231659-.2340661-.0431341c-.0615122-.0191688-.107844-.0479307-.1382048-.0854775-.0311514-.0375469-.0551168-.086277-.0727042-.1485886l-1.7862434-6.4395862h-.0135815l-1.6480386,6.4395862c-.0127733.0623116-.0351574.1110417-.0655006.1485886-.0311514.0375469-.0750937.0663088-.1318094.0854775-.0575238.0199682-.1310187.0343491-.2212753.0431341-.0894659.0087849-.2053042.0135815-.3458985.0135815-.1446002,0-.2660258-.0047966-.3626778-.0135815s-.1757517-.0231659-.2372639-.0431341c-.0615122-.0191688-.1086522-.0479307-.1414025-.0854775s-.055925-.086277-.0695065-.1485886l-2.2543757-7.8767246c-.0263548-.1014574-.0407446-.1805395-.0431341-.2372639-.0015989-.0575151.015971-.1014574.0527273-.1318094.0375469-.0311514.0982509-.0511284.1813389-.0599133.0838787-.0087849.1957111-.0127821.3363229-.0127821.1366059,0,.24445.0031977.323532.0095844s.1389954.0191688.1805482.0367474c.0423434.0175787.0702972.041544.0862682.071896.0151804.0311514.0271631.0702972.035948.1190273l1.9180527,7.145773h.0071861l1.8189937-7.1329909c.0135815-.0479307.0295526-.0886753.0495295-.1214255.019977-.0335497.051919-.0583145.0958613-.0758932s.1062452-.0311514.1877343-.0399452.1877343-.0127821.3195437-.0127821c.1230244,0,.2204846.0039972.2931888.0127821s.1310187.0223665.1749434.0399452.0758844.0423434.0958613.0758932c.0191688.0327503.035948.0734949.0487389.1214255l1.9579891,7.1329909h.0135815l1.8781164-7.1393775c.0135815-.0439335.0263548-.0822798.0399364-.1150389.0127733-.0335497.0407446-.0583145.0822798-.0758932s.1014486-.0311514.1781412-.0399452.1789494-.0127821.3067528-.0127821c.1318094,0,.235665.005596.3123576.0159798.0774832.0111832.1334082.0319509.1685656.0631111.0351574.0303608.0511284.0742943.0495295.1318094-.0023895.0567156-.0143722.1358065-.0367387.2372639l-2.2607711,7.8703379Z"/>
          <path class="st0" d="M134.3798697,69.7222349c0,.6902158-.0814892,1.3117244-.2436593,1.8661249-.1629608.5536098-.4058119,1.024931-.7285533,1.4139725-.3227414.388242-.7285533.6878175-1.2162584.8963194-.4881093.2085019-1.0576901.3131482-1.7079519.3131482-.6414769,0-1.1958949-.0958613-1.6640272-.2867934s-.8547754-.4689317-1.1599469-.8340078c-.3059622-.3650761-.5336329-.8172285-.6830297-1.3580563-.1493792-.5400283-.2236823-1.1623364-.2236823-1.8653343,0-.6726371.0814892-1.2829625.2436593-1.8325752.1629608-.5496127.4066201-1.0161461.731751-1.4003997.3251309-.385053.731751-.681422,1.2198602-.889924.487301-.2093014,1.0568819-.3131482,1.7071613-.3131482.6287036,0,1.1751097.0942625,1.6416432.2827962.4661293.1893332.8535806.4649346,1.1635312.8276123s.5408189.8108419.6918146,1.3444747c.1517863.5344323.2276707,1.1463566.2276883,1.8357905ZM133.1799864,69.8013258c0-.4833039-.0423434-.9322674-.1286116-1.3476725-.0854775-.415405-.2276707-.7756933-.4273877-1.080856-.199717-.3059622-.4669375-.5440254-.8008534-.71578-.3331252-.1709551-.7453325-.2564326-1.2374301-.2564326-.4912894,0-.9043049.091873-1.2374301.2764008-.3339159.1845366-.6047382.4305854-.8132402.7381464s-.3578812.6670411-.4473647,1.0776583c-.0902741.4114079-.1350071.8427927-.1350071,1.2957446,0,.5008826.0415352.9626194.1246233,1.3844199.0838787.4218005.2236823.7852777.4218005,1.0904404.1973099.3059622.4617368.543226.7932632.7125822.3315264.1685568.7469314.2532349,1.2470233.2532349.496086,0,.9130899-.091873,1.2510117-.2764008s.6107296-.4337831.8168244-.7485302c.2061124-.3139477.3538928-.6774337.4409692-1.0904404.087867-.4138062.1318094-.8507782.1318094-1.3125151Z"/>
          <path class="st0" d="M144.1954322,73.8355494c-.0175699.0623116-.0439423.1110417-.0790821.1485886s-.083088.0663088-.1446002.0854775c-.0623028.0199682-.1373966.0343491-.2276707.0431341s-.2013159.0135815-.3331252.0135815c-.1357977,0-.251636-.0047966-.3458985-.0135815s-.1725539-.0231659-.2340661-.0431341c-.0615122-.0191688-.107844-.0479307-.1382048-.0854775-.0311514-.0375469-.0551168-.086277-.0727042-.1485886l-1.7862434-6.4395862h-.0135815l-1.6480386,6.4395862c-.0127733.0623116-.0351574.1110417-.0655006.1485886-.0311514.0375469-.0750937.0663088-.1318094.0854775-.0575238.0199682-.1310187.0343491-.2212753.0431341-.0894659.0087849-.2053042.0135815-.3458985.0135815-.1446002,0-.2660258-.0047966-.3626778-.0135815s-.1757517-.0231659-.2372639-.0431341c-.0615122-.0191688-.1086522-.0479307-.1414025-.0854775s-.055925-.086277-.0695065-.1485886l-2.2543757-7.8767246c-.0263548-.1014574-.0407446-.1805395-.0431341-.2372639-.0015989-.0575151.015971-.1014574.0527273-.1318094.0375469-.0311514.0982509-.0511284.1813389-.0599133.0838787-.0087849.1957111-.0127821.3363229-.0127821.1366059,0,.24445.0031977.323532.0095844s.1389954.0191688.1805482.0367474c.0423434.0175787.0702972.041544.0862682.071896.0151804.0311514.0271631.0702972.035948.1190273l1.9180527,7.145773h.0071861l1.8189937-7.1329909c.0135815-.0479307.0295526-.0886753.0495295-.1214255.019977-.0335497.051919-.0583145.0958613-.0758932s.1062452-.0311514.1877343-.0399452.1877343-.0127821.3195437-.0127821c.1230244,0,.2204846.0039972.2931888.0127821s.1310187.0223665.1749434.0399452.0758844.0423434.0958613.0758932c.0191688.0327503.035948.0734949.0487389.1214255l1.9579891,7.1329909h.0135815l1.8781164-7.1393775c.0135815-.0439335.0263548-.0822798.0399364-.1150389.0127733-.0335497.0407446-.0583145.0822798-.0758932s.1014486-.0311514.1781412-.0399452.1789494-.0127821.3067528-.0127821c.1318094,0,.235665.005596.3123576.0159798.0774832.0111832.1334082.0319509.1685656.0631111.0351574.0303608.0511284.0742943.0495295.1318094-.0023895.0567156-.0143722.1358065-.0367387.2372639l-2.2607711,7.8703379Z"/>
          <path class="st0" d="M152.7839307,73.6182625c0,.0790909-.0039884.1485886-.0127733.2077025s-.0239653.1086434-.0463318.1485886c-.0215758.0391457-.04714.0678989-.0758844.0854775s-.0599133.0263636-.0950707.0263636h-4.094137c-.1006579,0-.1965193-.0343491-.2867934-.1022568-.0894659-.0678989-.1350071-.1877343-.1350071-.3594888v-7.6067104c0-.1717545.0455412-.2907818.1350071-.3594888.0902741-.0678989.1861355-.1022568.2867934-.1022568h4.0478052c.0351574,0,.0670994.0087849.0958613.0263636.0279537.0175787.0511284.0463318.0686983.086277.0175699.0391457.0319596.0886753.0431341.1477892.0103838.0599133.015971.1334082.015971.221284,0,.0790909-.0055872.1477892-.015971.2077025-.011192.0591139-.0255642.107844-.0431341.1445915-.0175699.0375469-.0407446.0647099-.0686983.0822798-.0287619.0175787-.0607216.0263636-.0958613.0263636h-3.3352229v2.6769668h2.8607128c.0351574,0,.0670994.0095844.0950707.0295613.0287619.0191688.0527273.0471312.0727042.0822798s.0343491.0830792.0431341.1445915.0127733.1342076.0127733.2180863c0,.0790909-.0039884.1469897-.0127733.2037054-.0087849.0575151-.0231747.1038469-.0431341.1390042s-.0439423.0599133-.0727042.0758932c-.0279537.0151804-.0599133.0223665-.0950707.0223665h-2.8607128v3.0524355h3.3815547c.0351574,0,.0663088.0087849.0950707.0263636s.0543261.044733.0758844.0822798c.0223665.0375469.0375469.0854775.0463318.1453909.0087849.0591139.0127733.1326088.0127733.2204934Z"/>
          <path class="st0" d="M165.8500292,73.8355494c-.0175699.0623116-.0439423.1110417-.0790821.1485886s-.083088.0663088-.1446002.0854775c-.0623028.0199682-.1373966.0343491-.2276707.0431341s-.2013159.0135815-.3331252.0135815c-.1357977,0-.251636-.0047966-.3458985-.0135815s-.1725539-.0231659-.2340661-.0431341c-.0615122-.0191688-.107844-.0479307-.1382048-.0854775-.0311514-.0375469-.0551168-.086277-.0727042-.1485886l-1.7862434-6.4395862h-.0135815l-1.6480386,6.4395862c-.0127733.0623116-.0351574.1110417-.0655006.1485886-.0311514.0375469-.0750937.0663088-.1318094.0854775-.0575238.0199682-.1310187.0343491-.2212753.0431341-.0894659.0087849-.2053042.0135815-.3458985.0135815-.1446002,0-.2660258-.0047966-.3626778-.0135815s-.1757517-.0231659-.2372639-.0431341c-.0615122-.0191688-.1086522-.0479307-.1414025-.0854775s-.055925-.086277-.0695065-.1485886l-2.2543757-7.8767246c-.0263548-.1014574-.0407446-.1805395-.0431341-.2372639-.0015989-.0575151.015971-.1014574.0527273-.1318094.0375469-.0311514.0982509-.0511284.1813389-.0599133.0838787-.0087849.1957111-.0127821.3363229-.0127821.1366059,0,.24445.0031977.323532.0095844s.1389954.0191688.1805482.0367474c.0423434.0175787.0702972.041544.0862682.071896.0151804.0311514.0271631.0702972.035948.1190273l1.9180527,7.145773h.0071861l1.8189937-7.1329909c.0135815-.0479307.0295526-.0886753.0495295-.1214255.019977-.0335497.051919-.0583145.0958613-.0758932s.1062452-.0311514.1877343-.0399452.1877343-.0127821.3195437-.0127821c.1230244,0,.2204846.0039972.2931888.0127821s.1310187.0223665.1749434.0399452.0758844.0423434.0958613.0758932c.0191688.0327503.035948.0734949.0487389.1214255l1.9579891,7.1329909h.0135815l1.8781164-7.1393775c.0135815-.0439335.0263548-.0822798.0399364-.1150389.0127733-.0335497.0407446-.0583145.0822798-.0758932s.1014486-.0311514.1781412-.0399452.1789494-.0127821.3067528-.0127821c.1318094,0,.235665.005596.3123576.0159798.0774832.0111832.1334082.0319509.1685656.0631111.0351574.0303608.0511284.0742943.0495295.1318094-.0023895.0567156-.0143722.1358065-.0367387.2372639l-2.2607711,7.8703379Z"/>
          <path class="st0" d="M177.2936533,73.5918989c0,.0878758-.0047966.1613707-.0135815.221284-.0087849.0591139-.0239653.1094429-.0455412.1509869-.0223665.0423434-.0479307.0726954-.0758844.0926636-.0287619.0199682-.0607216.0295613-.0958613.0295613h-3.7770004c-.1014486,0-.1957111-.0343491-.2835957-.1022568s-.1318094-.1877343-.1318094-.3594888v-3.1442996l-.8436009.5472144c-.0750937.0439335-.1318094.0367474-.1717457-.0231659-.0391457-.0591139-.0591227-.185336-.0591227-.3786576,0-.0750937.0023895-.1406031.0063954-.1981181.0047966-.0567156.0143722-.1070446.0295526-.1509869.015971-.0439335.0351574-.080681.0599133-.1094429.0239653-.0279625.055925-.0535267.0950707-.0758932l.8835373-.5663919v-3.8033552c0-.0311514.0087849-.0599133.0263548-.086277s.0487389-.0479307.0926636-.0655094.1014486-.0311514.1741528-.0399452.163769-.0127821.2740025-.0127821c.1054545,0,.1949204.0039972.2700141.0127821s.1342164.0223665.1781412.0399452.0742855.0391457.091873.0655094.0263548.0551168.0263548.086277v3.0979678l1.4898744-.9362558c.0750937-.0439335.1318094-.0351486.1717457.0263636.0391457.0615122.0591227.1845366.0591227.3690732,0,.0790909-.0031977.1477892-.0095932.2045048-.0071861.0575151-.0175699.1070446-.0335585.1485886-.0151804.041544-.0335585.077492-.055925.1086434-.0215758.0303608-.0527273.0567156-.091873.0790909l-1.5298108.9554333v3.3296357h3.0588309c.0351574,0,.0670994.0095844.0958613.0295613.0279537.0191688.0535179.0479307.0758844.0854775.0215758.0375469.0367387.0870764.0455412.1485886s.0135815.1358065.0136167.2236736Z"/>
          <path class="st0" d="M185.6912374,69.7222349c0,.6902158-.0814892,1.3117244-.2436593,1.8661249-.1629608.5536098-.4058119,1.024931-.7285533,1.4139725-.3227414.388242-.7285533.6878175-1.2158543.8963194-.4881093.2085019-1.0576901.3131482-1.7079519.3131482-.6414769,0-1.1958949-.0958613-1.6640272-.2867934s-.8547754-.4689317-1.1599469-.8340078c-.3059622-.3650761-.5336329-.8172285-.6830297-1.3580563-.1493792-.5400283-.2236823-1.1623364-.2236823-1.8653343,0-.6726371.0814892-1.2829625.2436593-1.8325752.1629608-.5496127.4066201-1.0161461.731751-1.4003997.3251309-.385053.731751-.681422,1.2198602-.889924.487301-.2093014,1.0568819-.3131482,1.7071613-.3131482.6287036,0,1.1751097.0942625,1.6416432.2827962.4657252.1893332.8531765.4649346,1.1631271.8276123s.5408189.8108419.6918146,1.3444747c.1517863.5344323.2276707,1.1463566.2276883,1.8357905ZM184.4913541,69.8013258c0-.4833039-.0423434-.9322674-.1286116-1.3476725-.0854775-.415405-.2276707-.7756933-.4273877-1.080856-.199717-.3059622-.4665334-.5440254-.8004493-.71578-.3331252-.1709551-.7453325-.2564326-1.2374301-.2564326-.4912894,0-.9043049.091873-1.2374301.2764008-.3339159.1845366-.6047382.4305854-.8132402.7381464s-.3578812.6670411-.4473647,1.0776583c-.0902741.4114079-.1350071.8427927-.1350071,1.2957446,0,.5008826.0415352.9626194.1246233,1.3844199.0838787.4218005.2236823.7852777.4218005,1.0904404.1973099.3059622.4617368.543226.7932632.7125822.3315264.1685568.7469314.2532349,1.2470233.2532349.496086,0,.9130899-.091873,1.2510117-.2764008s.6103254-.4337831.8164379-.7485302c.2061124-.3139477.3538928-.6774337.4409692-1.0904404.087867-.4138062.1318094-.8507782.1317918-1.3125151Z"/>
          <path class="st0" d="M194.0432804,69.6958712c0,.7389459-.0950707,1.3836205-.2835957,1.934832-.1893332.552011-.4649346,1.00896-.8276123,1.3716378-.3626778.3618783-.8076354.6334914-1.3348904.8140308-.5272374.17974-1.155941.2700141-1.8853025.2700141h-1.8062204c-.1006579,0-.1965193-.0343491-.2867934-.1022568-.0894659-.0678989-.1350071-.1877343-.1350071-.3594888v-7.6067104c0-.1717545.0455412-.2907818.1350071-.3594888.0902741-.0678989.1861355-.1022568.2867934-.1022568h1.9316343c.7381464,0,1.3620534.0958613,1.8725116.2867934.5096675.1917227.9370552.465734,1.2821631.8244234.3442997.35789.6063371.7916643.78367,1.3013406.1781412.5104669.2676246,1.0856438.2676422,1.7271295ZM192.8497925,69.7422031c0-.4609374-.0567156-.8907234-.1709551-1.2885585-.1150301-.3978264-.2939795-.7413354-.5376388-1.0313265s-.5528016-.5168624-.9258808-.6790325c-.3738698-.1629696-.8547754-.24445-1.4435426-.24445h-1.1535515v6.638495h1.1663248c.5448249,0,1.0041546-.0678989,1.3780244-.2045048.3730616-.1358065.6854192-.3451079.9354564-.6263053.2508454-.2811974.4385797-.6334914.5639936-1.0576901s.1877343-.9266714.1877695-1.5066273Z"/>
          <path class="st0" d="M200.5499748,73.611867c0,.0830792-.0047966.1549753-.0135815.2140892s-.0231747.1086434-.0431341.1485886c-.0191688.0391457-.0439423.0678989-.071896.0854775-.0287619.0175787-.0631111.0263636-.1022568.0263636h-5.036797c-.1142395,0-.2061124-.0351486-.2764096-.1054457s-.1054545-.1821383-.1054545-.3363229v-.2436505c0-.0575151.0031977-.1102423.0095932-.158173.0063954-.0487301.0207676-.0998585.0431341-.1549753.0215758-.0551168.0527273-.116629.091873-.1845366.0399364-.0678989.087867-.1485886.1453909-.2404528l3.9351646-6.1567899h-3.8888327c-.0439423,0-.0814892-.0087849-.1126406-.0263636-.0303608-.0175787-.055925-.0455324-.0750937-.0830792-.019977-.0367474-.0343491-.0854775-.0431341-.1445915s-.0135815-.1286116-.0135815-.2077025c0-.0878758.0047966-.1621701.0135815-.2244818.0087849-.0615122.0231747-.1118412.0431341-.1509869.0191688-.0399452.044733-.0686983.0750937-.086277.0311514-.0175787.0686983-.0263636.1126406-.0263636h4.7460152c.1182278,0,.2116997.0343491.280398.1022568.0679076.0686983.1014486.1725539.1014486.3131482v.257232c0,.0702972-.0039884.1326088-.0127733.1877343s-.0239653.1110417-.0463318.1685568c-.0215758.0567156-.051919.1182278-.0886753.1845366-.0375469.0655094-.0870764.1421932-.1485886.230069l-3.9151876,6.1312257h4.166033c.0742855,0,.1318094.0367474.1709551.1118412.0399364.0742943.0599133.1973187.0599133.3690732Z"/>
          <path class="st0" d="M203.1007194,73.9146315c0,.035948-.0095932.0663088-.0263548.0926636-.0175699.0263636-.0487389.0471312-.0926636.0623116-.0439423.0159798-.1022568.0287619-.1749434.0399452-.071896.0111832-.163769.0167792-.2732119.0167792-.1054545,0-.1957111-.005596-.2700141-.0167792-.0750937-.0111832-.1342164-.0239653-.1781412-.0399452-.0439423-.0151804-.0750937-.035948-.0926636-.0623116s-.0263548-.0567156-.0263548-.0926636v-8.1866839c0-.0351486.0103838-.0663088.0295526-.0926636.019977-.0263636.0527273-.0471312.0990591-.0623116s.1054545-.0287619.1781412-.0399452c.0727042-.0103838.1589724-.0159798.260421-.0159798.1094429,0,.2013159.005596.2732119.0159798.0727042.0111832.1310187.0247648.1749434.0399452s.0750937.035948.0926636.0623116c.0167792.0263636.0263548.0575151.0263548.0926636v8.1866839Z"/>
        </g>
      </g>
    </g>
  </g>
</svg>