<?xml version="1.0" encoding="UTF-8"?>
<svg id="Warstwa_1" xmlns="http://www.w3.org/2000/svg" version="1.1" viewBox="0 0 125.2300034 90">
  <!-- Generator: Adobe Illustrator 29.0.1, SVG Export Plug-In . SVG Version: 2.1.0 Build 192)  -->
  <defs>
    <style>
      .st0, .st1 {
        fill: #fff;
      }

      .st1 {
        fill-rule: evenodd;
      }
    </style>
  </defs>
  <path class="st0" d="M50.0600014,83.8300018c0-.3300018-.0200005-1.4000015-.0200005-1.4899979,0-.1399994-.1100006-.2200012-.3100014-.2200012h-.4500008s-.0499992-.0199966-.0499992-.0500031v-.2099991s.0200005-.0400009.0499992-.0400009h.3100014c.1699982,0,.4300003.0199966.7900009.0199966.1300011,0,2.7799988,0,2.9000015-.0299988.0200005.1299973.25,1.1500015.2999992,1.3499985,0,.0299988,0,.0500031-.0200005.0500031l-.1399994.0500031s-.0400009,0-.0600014-.0500031c-.0699997-.1200027-.2599983-.4000015-.4799995-.6900024-.1291161-.178299-.3166618-.305687-.5299988-.3600006-.1899986-.0400009-1.3899994-.0699997-1.6100006-.0699997v2.4499969c.1100006,0,.9000015-.0199966.9900017-.0400009.1699982-.0299988.2599983-.0999985.3300018-.3300018.0299988-.1200027.0600014-.2399979.0800018-.3700027,0-.0299988.0200005-.0500031.0499992-.0500031h.1500015s.0400009.0199966.0400009.0500031v.8600006c0,.2699966.0200005.6399994.0400009.7900009,0,.0400009,0,.0500031-.0499992.0599976l-.1399994.0299988s-.0499992-.0199966-.0499992-.0500031-.0600014-.2900009-.0800018-.3700027c-.0195847-.1589279-.1501236-.281044-.3100014-.2900009-.3400002-.0299988-.6800003-.0500031-1.0299988-.0500031v1.8899994c0,.2099991.0400009.2399979.2900009.2399979h.3699989s.0699997.0199966.0699997.0500031v.1900024s0,.0599976-.0600014.0599976-.3800011-.0199966-1.0299988-.0199966c-.5900002,0-.8800011.0199966-.9900017.0199966-.0299988,0-.0499992-.0199966-.0499992-.0500031v-.1800003s.0200005-.0400009.0499992-.0400009h.3300018c.2000008,0,.25-.0299988.2599983-.1699982s.0299988-1.0999985.0299988-2.4000015v-.5500031l.029995.0100327ZM55.6399994,86.3000031c0,.4300003.0900002.5699997.2200012.5699997.0999985,0,.2000008-.0400009.2599983-.1100006.0299988-.0400009.0499992-.0500031.0800018-.0299988l.0800018.0599976s.0400009.0599976,0,.1399994c-.0999985.2300034-.3300018.3799973-.5900002.3700027-.2814369-.0128708-.5110817-.2297592-.5400009-.5100021h-.0200005c-.2000008.2200012-.4599991.3799973-.7400017.4599991-.1500015.0400009-.2999992.0599976-.4500008.0500031-.1800003,0-.4500008-.1500015-.4500008-.6299973,0-.3499985.1599998-.6600037.75-.9199982.2999992-.1200027.5800018-.2600021.8499985-.4400024v-.4899979c0-.1500015-.0400009-.2900009-.1100006-.4199982-.1183243-.119133-.2824669-.1811371-.4500008-.1699982-.1800003,0-.3499985.0599976-.4900017.1600037-.1100006.0999985-.0400009.2099991-.0400009.3499985,0,.2600021-.0900002.4300003-.4000015.4300003-.1199989,0-.1800003-.0699997-.1800003-.2399979.0499992-.3099976.2400017-.5699997.5200005-.7099991.2700005-.1800003.5900002-.2699966.9199982-.2600021.2200012-.0199966.4399986.0500031.6100006.1999969.1300011.1500015.1899986.3399963.1699982.5400009v1.5999985l.0000114-.0000076ZM55.0900002,85.5400009c-.2700005.2099991-1.0099983.3600006-1.0099983.9899979-.0299988.1999969.1199989.3899994.3199997.4100037h.0699997c.2200012,0,.6199989-.2600021.6199989-.4700012v-.9400024.0100021ZM59.2400017,85.2700043c0-.5599976-.1100006-.6999969-.2299995-.8199997-.141468-.0956192-.3093109-.144577-.4799995-.1399994-.4746857.0162659-.8463058.4142685-.83004.8889542.0000153.000351.0000267.0006943.0000381.0010452v1.5500031c0,.1200027.0400009.1999969.1500015.1999969h.2700005c.0699997,0,.0800018.0199966.0800018.0699997v.1200027c0,.0500031,0,.0899963-.0600014.0899963s-.2700005-.0199966-.6800003-.0199966-.6399994.0199966-.7000008.0199966-.0600014-.0199966-.0600014-.0699997v-.1399994c0-.0599976,0-.0699997.0900002-.0699997h.25c.0699997,0,.1100006-.0400009.1100006-.1900024v-1.7300034c.0149384-.1604309-.0678406-.3141556-.2099991-.3899994l-.1599998-.0800018s-.0499992-.0400009-.0499992-.0599976v-.0599976s.0299988-.0500031.0499992-.0599976l.6599998-.3300018s.0999985-.0400009.1500015-.0500031c.0400009,0,.0699997.0500031.0699997.1100006l.0299988.4400024h.0200005c.2599983-.3499985.6699982-.5599976,1.1100006-.5699997.3800011,0,.7200012.2300034.8499985.5800018h.0400009c.2700005-.3499985.6699982-.5599976,1.1100006-.5800018.2400017-.0199966.4799995.0599976.6599998.2200012.2599983.2300034.4000015.5800018.3600006.9300003v1.6900024c0,.1100006.0699997.1500015.1599998.1500015h.2000008c.0699997,0,.0800018.0199966.0800018.0699997v.1299973c0,.0500031,0,.0800018-.0499992.0800018s-.2599983-.0199966-.6300011-.0199966-.6599998.0199966-.7000008.0199966-.0600014-.0199966-.0600014-.0800018v-.1299973c0-.0500031,0-.0699997.0999985-.0699997h.1899986c.0699997,0,.1399994-.0400009.1500015-.1200027v-1.7500076c.02425-.2263336-.0568657-.4512482-.2200012-.6100006-.1643524-.1127014-.3609161-.168869-.5600014-.1600037-.2700005.0199966-.5200005.1699982-.6599998.3899994-.0999985.2399979-.1399994.5100021-.1100006.7600021v1.3099976c0,.0999985.0400009.1699982.1500015.1699982h.2599983c.0699997,0,.0800018.0199966.0800018.0699997v.1200027c0,.0599976-.0200005.0899963-.0499992.0899963s-.25-.0199966-.6599998-.0199966-.6599998.0199966-.7099991.0199966-.0499992-.0199966-.0499992-.0800018v-.1200027c0-.0599976,0-.0800018.0800018-.0800018h.2200012c.1199989,0,.1699982-.0299988.1699982-.1299973l.0400009-1.5599976-.0200043.0000153ZM63.3300018,85.0100021c0-.2600021-.0400009-.3899994-.4199982-.4499969-.0499992,0-.0699997-.0199966-.0699997-.0500031v-.0699997s.0200005-.0400009.0499992-.0500031c.2799988-.0999985.5499992-.2200012.8100014-.3700027.0400009-.0299988.0900002-.0400009.1500015-.0500031.0400009,0,.0400009.0400009.0400009.0899963v2.7200012c0,.1399994.0400009.1999969.1200027.1999969h.3300018c.0599976,0,.0800018.0199966.0800018.0699997v.1299973c0,.0500031-.0199966.0800018-.0699997.0800018s-.4099998-.0199966-.7200012-.0199966c-.4399986,0-.7299995.0199966-.8199997.0199966s-.0600014-.0199966-.0600014-.0599976v-.1500015s.0200005-.0599976.0800018-.0599976h.3699989c.0800018,0,.1100006-.0299988.1199989-.1500015v-.6900024l.0200005-1.1200027-.0100098-.0199814ZM63,82.6900024c.0099983-.2300034.2099991-.4100037.4399986-.3899994h.0200005c.2099991,0,.3800011.1500015.3899994.3499985v.0400009c0,.2200012-.1800003.4100037-.4000015.4100037h-.0400009c-.2299995,0-.4099998-.1900024-.4199982-.4100037h.0100021ZM65.9800034,84.9500046v1.7699966c0,.1299973.0400009.2300034.1999969.2300034h.3300018c.0699997,0,.0899963.0199966.0899963.0699997v.1299973s0,.0800018-.0500031.0800018-.3799973-.0199966-.8499985-.0199966-.7799988.0199966-.8499985.0199966-.0500031-.0299988-.0500031-.0800018v-.1299973c0-.0500031,0-.0699997.0999985-.0699997h.3600006c.0800018,0,.1600037-.0500031.1699982-.1900024v-2.4599991c0-.5400009,0-1.2200012-.0199966-1.4199982,0-.2200012-.1600037-.4199982-.3799973-.4499969l-.1500015-.0500031s-.0500031-.0199966-.0500031-.0400009v-.0599976s.0199966-.0400009.0699997-.0500031c.3000031-.1299973.5999985-.2699966.8799973-.4400024.0500031-.0400009.0999985-.0599976.1600037-.0599976.0500031,0,.0699997.0400009.0599976.1399994,0,.4199982-.0299988,1.9800034-.0299988,2.4000015l.0199966.6800003h-.0099869ZM66.5800018,88.8700027c.0199966-.1699982.1699982-.3000031.3499985-.2900009.1200027.0100021.2300034.0400009.3499985.0899963.0599976,0,.1200027,0,.1600037-.0500031.2300034-.4100037.4300003-.8499985.5899963-1.2900009-.0400009-.1900024-.8399963-2.5400009-.9000015-2.6999969s-.1600037-.3300018-.3499985-.3300018h-.1999969c-.0500031,0-.0599976-.0199966-.0599976-.0699997v-.1500015s0-.0500031.0599976-.0500031.25.0199966.6900024.0199966c.3799973,0,.6200027-.0199966.6999969-.0199966s.0699997.0199966.0699997.0500031v.1600037s0,.0599976-.0500031.0599976h-.1399994c-.0800018,0-.1100006.0500031-.0999985.1699982.0199966.1699982.5400009,1.8300018.6200027,1.9800034h.0299988c.0800018-.1200027.7300034-1.6800003.7799988-1.8799973s-.0199966-.2799988-.1299973-.2799988h-.1200027s-.0500031-.0199966-.0500031-.0599976v-.1500015s0-.0599976.0400009-.0599976c.0999985,0,.2600021.0199966.6200027.0199966.2099991,0,.3799973-.0199966.4599991-.0199966s.0500031.0299988.0500031.0599976v.1399994s0,.0699997-.0400009.0699997h-.1200027c-.1100006,0-.1999969.0500031-.2600021.1399994-.4400024.8199997-.8300018,1.6699982-1.1800003,2.5400009-.3700027.8399963-.6600037,1.5400009-.8000031,1.7900009-.0899963.2799988-.3499985.4800034-.6399994.4899979-.2099991.0299988-.4000015-.1100006-.4300003-.3199997v-.0400009h.0100021l-.0099945-.0199966ZM91.8800049,83.8300018c0-.3300018-.0199966-1.4000015-.0199966-1.4899979,0-.1399994-.1100006-.2200012-.3099976-.2200012h-.4400024s-.0500031-.0100021-.0500031-.0400009v-.2099991s.0199966-.0400009.0500031-.0400009h.3099976c.1800003,0,.4300003.0199966.7900009.0199966.1299973,0,2.7799988,0,2.8899994-.0299988.0199966.1299973.25,1.1500015.3000031,1.3499985,0,.0299988,0,.0500031-.0199966.0500031l-.1399994.0500031s-.0400009,0-.0599976-.0500031c-.0699997-.1200027-.2600021-.4000015-.4800034-.6900024-.1311264-.1762238-.3178558-.3030548-.5299988-.3600006-.1900024-.0400009-1.3899994-.0699997-1.6100006-.0699997v2.4499969c.1100006,0,.9000015-.0199966.9899979-.0400009.1699982-.0299988.2600021-.0999985.3300018-.3300018.0299988-.1200027.0599976-.2399979.0800018-.3700027,0-.0299988.0199966-.0500031.0500031-.0500031h.1500015s.0500031.0199966.0500031.0500031v.8600006c0,.2699966.0199966.6399994.0400009.7900009,0,.0400009-.0199966.0500031-.0500031.0599976l-.1399994.0299988s-.0500031-.0199966-.0500031-.0500031-.0599976-.2900009-.0800018-.3700027c-.0299988-.1600037-.1500015-.2799988-.3099976-.2900009-.3399963-.0299988-.6800003-.0500031-1.0299988-.0500031v1.8899994c0,.2099991.0400009.2399979.2900009.2399979h.3700027s.0699997.0199966.0699997.0500031v.1900024s0,.0599976-.0599976.0599976-.3799973-.0199966-1.0299988-.0199966c-.5899963,0-.8700027.0199966-.9899979.0199966-.0299988,0-.0500031-.0199966-.0500031-.0500031v-.1699753s.0199966-.0400009.0500031-.0400009h.3300018c.1999969,0,.25-.0299988.2600021-.1699982s.0299988-1.0999985.0299988-2.4000015v-.5599976h.0199738ZM95.6100082,86.7799988c-.6200027-.6999969-.5500031-1.7699966.1500015-2.3899994.0290756-.0204239.0559006-.0438919.0800018-.0699997.2900009-.2300034.6500015-.3600006,1.0100021-.3600006.3899994,0,.7699966.1699982,1.0599976.4400024.3300018.3199997.5199966.7699966.5100021,1.2300034-.0299988.9000015-.75,1.6200027-1.6500015,1.6500015-.4400024,0-.8700027-.1800003-1.1600037-.5100021v.0099945ZM97.7900085,85.5599976c0-.8399963-.6100006-1.3700027-.9899979-1.3700027-.2200012,0-.4300003.0800018-.5800018.2399979-.3000031.3199997-.4499969.75-.4000015,1.1900024-.0299988.3799973.0699997.75.2900009,1.0599976.1600037.2600021.4499969.4100037.75.3899994.5699997,0,.9400024-.6999969.9400024-1.5100021l-.0100021.0000076ZM101.7400055,85.6699982v.8899994c.0199966.2300034.1100006.2600021.1999969.2600021.0800018,0,.1699982,0,.25-.0199966.0599976-.0199966.0800018,0,.0899963.0299988l.0199966.0999985s0,.0599976-.0400009.0699997l-.7900009.2600021s-.0999985.0299988-.1500015.0299988c-.0299988,0-.0599976,0-.0699997-.0899963l-.0599976-.4400024h-.0199966c-.25.3199997-.6200027.5100021-1.0299988.5299988-.2825546.0203629-.5540695-.1134872-.7099991-.3499985-.3099976-.4000015-.2900009-.6600037-.2900009-1.4800034v-.8799973c0-.2099991-.1100006-.2600021-.2900009-.2799988-.1299973,0-.1699982-.0199966-.1699982-.0500031v-.1399994s.0199966-.0599976.0800018-.0599976h.8499985s.0800018.0299988.0800018.0800018v.0199966c0,.0699997-.0299988.4199982-.0299988.8700027v.5400009c0,.3000031-.0800018.7799988.1699982,1.1299973.1299973.1999969.3600006.3099976.6100006.2900009.2600021-.0400009.5-.1699982.6600037-.3799973.0400009-.0599976.0699997-.1299973.0699997-.2099991v-1.8000031c0-.2099991-.1399994-.25-.3300018-.2600021-.1299973,0-.1699982-.0199966-.1699982-.0500031v-.1299973c0-.0599976.0199966-.0699997.0899963-.0699997h.9199982s.0699997.0299988.0699997.0699997c-.0400009.3399963-.0500031.6699982-.0400009,1l.0199966.5299988.0100098-.0100021ZM105.840004,86.7900009c0,.1200027.0699997.1600037.1699982.1600037h.2399979c.0699997,0,.0800018.0199966.0800018.0699997v.1200027c0,.0500031-.0199966.0899963-.0599976.0899963s-.2900009-.0199966-.7200012-.0199966-.6299973.0199966-.6800003.0199966-.0599976-.0199966-.0599976-.0899963v-.1200027c0-.0500031.0199966-.0699997.0999985-.0699997h.2200012c.0800018,0,.1500015-.0400009.1500015-.1699982v-1.6299973c0-.3000031,0-.5199966-.2200012-.6800003-.1611862-.109848-.3559113-.1594086-.5500031-.1399994-.2300034.0100021-.4499969.1200027-.6100006.2900009-.1200027.1399994-.1800003.3300018-.1699982.5100021v1.5599976c0,.2099991.0199966.25.1800003.25h.1900024c.0599976,0,.0800018.0199966.0800018.0800018v.1299973s-.0199966.0699997-.0500031.0699997-.2600021-.0199966-.6600037-.0199966-.6299973.0199966-.6600037.0199966-.0500031-.0199966-.0500031-.0699997v-.1399994s.0199966-.0699997.0800018-.0699997h.2200012c.0999985,0,.1500015-.0199966.1500015-.1500015v-1.7799988c0-.1999969-.1200027-.3799973-.3099976-.4499969l-.0599976-.0299988c-.0500031-.0199966-.0599976-.0400009-.0599976-.0699997v-.0400009s.0299988-.0599976.0699997-.0800018l.6600037-.3600006s.0899963-.0400009.1399994-.0500031c.0400009,0,.0500031.0299988.0599976.0899963l.0500031.4599991c.2600021-.3199997.6299973-.5199966,1.0400009-.5500031.2200012,0,.4499969.0500031.6399994.1699982.2300034.1800003.3799973.4300003.4199982.7200012v1.9499969l-.0200043.0200043ZM109.090004,82.5999985c0-.2900009-.0500031-.3799973-.4800034-.4499969-.0400009,0-.0500031-.0199966-.0500031-.0500031v-.1299973s0-.0500031.0599976-.0500031l.8300018-.1600037c.0699997,0,.1200027-.0199966.1800003-.0199966s.0500031.0500031.0400009.1399994c-.0199966.3799973-.0299988,1.4800034-.0299988,2.4300003v1.6500015c-.0199966.2300034,0,.4700012.0800018.6900024.0899963.0800018.2099991.1200027.3300018.1299973.1100006,0,.1399994.0199966.1500015.0500031v.0599976s0,.0699997-.0500031.0800018l-.8499985.2900009s-.0800018,0-.0999985-.0599976l-.0999985-.3300018c-.3099976.2600021-.6999969.4000015-1.1100006.4100037-.3300018.0400009-.6699982-.0899963-.8899994-.3499985-.3399963-.3099976-.5199966-.7600021-.4800034-1.2200012,0-.4800034.1900024-.9499969.5299988-1.2799988.2900009-.3099976.6999969-.4800034,1.1200027-.4800034.2699966,0,.5500031.0400009.8099976.1100006v-1.4600067h.0100021ZM109.090004,84.9899979c0-.1299973-.0100021-.25-.0699997-.3700027-.1601639-.279747-.4690552-.4400558-.7900009-.4100037-.2600021,0-.5.0899963-.6800003.2699966-.2399979.2699966-.3600006.6299973-.3499985.9899979,0,.8600006.5899963,1.4800034,1.0299988,1.4800034.3300018.0299988.6500015-.1399994.8199997-.4199982.0299988-.0800018.0500031-.1699982.0500031-.25v-1.2900009l-.0100021.0000076ZM59.9200058,57.0899963c0,.1199989.0699997.1599998.1699982.1599998h.2400017c.0699997,0,.0800018.0200005.0800018.0699997v.1199989c0,.0499992,0,.0800018-.0600014.0800018s-.2900009-.0200005-.7200012-.0200005-.6300011.0200005-.6800003.0200005-.0600014-.0200005-.0600014-.0800018v-.1199989c0-.0499992.0200005-.0699997.0999985-.0699997h.2200012c.0900002,0,.1500015-.0400009.1500015-.1699982v-1.6300011c0-.2999992,0-.5200005-.2200012-.6800003-.160675-.1109734-.3558197-.1606445-.5499992-.1399994-.2299995.0099983-.4599991.1199989-.6100006.2999992-.1199989.1399994-.1800003.3300018-.1699982.5099983v1.5600052c0,.2000008.0200005.25.1800003.25h.1899986c.0600014,0,.0800018.0200005.0800018.0800018v.1300011s0,.0699997-.0499992.0699997-.2599983-.0200005-.6599998-.0200005-.6300011.0200005-.6599998.0200005-.0499992-.0200005-.0499992-.0699997v-.1399994s.0200005-.0699997.0800018-.0699997h.2200012c.0999985,0,.1500015-.0200005.1500015-.1500015v-1.7700005c0-.2000008-.1199989-.3800011-.3100014-.4500008l-.0600014-.0299988c-.0499992-.0200005-.0600014-.0499992-.0600014-.0699997v-.0400009s.0299988-.0600014.0699997-.0800018l.6599998-.3600006s.0900002-.0499992.1399994-.0499992c.0400009,0,.0499992.0299988.0600014.0900002l.0499992.4599991c.2599983-.3100014.6300011-.5099983,1.0400009-.5499992.2200012,0,.4500008.0499992.6399994.1699982.2299995.1800003.3800011.4300003.4199982.7200012v1.9399986l-.0200005.0099983ZM63.1700058,52.8999977c0-.2799988-.0499992-.3800011-.4799995-.4399986-.0400009,0-.0499992-.0200005-.0499992-.0499992v-.1300011s0-.0499992.0600014-.0499992l.8300018-.1599998c.0699997,0,.1199989-.0200005.1800003-.0200005s.0499992.0499992.0400009.1399994c-.0200005.3800011-.0299988,1.4799995-.0299988,2.4300003v1.6500015c-.0200005.2299995,0,.4700012.0800018.6899986.0900002.0800018.2100029.1300011.329998.1300011.1100006,0,.1399994.0200005.1500015.0499992v.0600014s0,.0699997-.0500031.0800018l-.8499985.2900009s-.0800018,0-.0999985-.0600014l-.0999985-.3300018c-.3100014.2599983-.7000008.4000015-1.1100006.4099998-.3300018.0400009-.6599998-.0900002-.8899994-.3300018-.3400002-.3100014-.5200005-.7599983-.4799995-1.2200012,0-.4799995.1899986-.9500008.5299988-1.2900009.2900009-.3100014.7000008-.4799995,1.1199989-.4700012.2700005,0,.5499992.0400009.8100014.1100006v-1.4799995h.0099983l-.0000076-.0099983ZM63.1700058,55.2899971c0-.1300011-.0099983-.25-.0699997-.3699989-.1601639-.279747-.4690552-.4400558-.7900009-.4099998-.2599983,0-.5.0900002-.6800003.2700005-.2299995.2700005-.3600006.6300011-.3499985.9900017,0,.8499985.5900002,1.4799995,1.0299988,1.4799995.3300018.0299988.6500015-.1399994.8199997-.4199982.0299988-.0800018.0499992-.1699982.0499992-.2599983v-1.2900009l-.0099983.0099945ZM112.840004,86.2899933c0,.4300003.0899963.5699997.2200012.5699997.0999985,0,.1999969-.0400009.2600021-.1100006.0299988-.0400009.0500031-.0500031.0800018-.0299988l.0699997.0599976s.0400009.0599976,0,.1399994c-.0999985.2300034-.3300018.3799973-.5899963.3700027-.2808838-.0099487-.5092621-.2297058-.5299988-.5100021h-.0199966c-.1999969.2200012-.4599991.3799973-.75.4599991-.1500015.0400009-.2900009.0599976-.4400024.0500031-.1800003,0-.4499969-.1500015-.4499969-.6299973,0-.3499985.1600037-.6600037.75-.9199982.3000031-.1200027.5800018-.2600021.8499985-.4400024v-.4899979c0-.1500015-.0400009-.2900009-.1100006-.4199982-.1183243-.119133-.2824631-.1811371-.4499969-.1699982-.1800003,0-.3499985.0599976-.4899979.1600037-.1100006.0999985-.0400009.2099991-.0400009.3499985,0,.2600021-.0899963.4300003-.4000015.4300003-.1200027,0-.1800003-.0699997-.1800003-.2399979.0500031-.3099976.2399979-.5699997.5199966-.7099991.2699966-.1800003.5899963-.2699966.9199982-.2600021.2200012-.0199966.4400024.0500031.6100006.1999969.1299973.1500015.1900024.3399963.1699982.5400009,0,0,0,1.5999985-.0000076,1.5999908ZM112.2900009,85.5299911c-.2699966.2099991-1.0100021.3600006-1.0100021.9899979-.0299988.1999969.1200027.3899994.3199997.4100037h.0699997c.2200012,0,.6200027-.2600021.6200027-.4700012v-.9400024.0100021ZM55.9099998,56.5999985c0,.4300003.0900002.5699997.2200012.5699997.0999985,0,.2000008-.0400009.2599983-.1100006.0299988-.0400009.0400009-.0499992.0800018-.0299988l.0699997.0600014s.0400009.0600014,0,.1399994c-.0999985.2299995-.3300018.3800011-.5900002.3699989-.2814369-.0128708-.5110817-.2297554-.5400009-.5099983-.2000008.2200012-.4599991.3800011-.75.4599991-.1500015.0400009-.2900009.0600014-.4399986.0499992-.1800003,0-.4500008-.1500015-.4500008-.6300011,0-.3499985.1599998-.6599998.75-.9099998.2999992-.1199989.5800018-.2700005.8499985-.4399986v-.4799995c0-.1500015-.0400009-.2900009-.1100006-.4199982-.1193161-.1175842-.2827415-.1793213-.4500008-.1699982-.1800003,0-.3499985.0600014-.4900017.1599998-.1100006.0999985-.0400009.2099991-.0400009.3499985,0,.2599983-.0900002.4300003-.4000015.4300003-.1199989,0-.1800003-.0699997-.1800003-.2400017.0499992-.3100014.2400017-.5699997.5200005-.7099991.2700005-.1800003.5999985-.2700005.9199982-.2599983.2200012-.0200005.4399986.0499992.5999985.2000008.1300011.1500015.2000008.3400002.1699982.5400009v1.5999985h-.0200005l.0200119-.0200043ZM55.3600006,55.8400002c-.2700005.2099991-.9900017.3499985-.9900017.9900017-.0200005.2000008.1199989.3899994.3199997.4099998h.0699997c.2200012,0,.6199989-.2599983.6199989-.4700012l-.0200005-.9399986.0000038.0099983ZM114.6900024,86.25c0,.5699997.2600021.6600037.3899994.6600037.1699982,0,.3399963-.0299988.5-.0999985.0299988-.0199966.0699997-.0100021.0899963.0199966s.0400009.0699997.0400009.0699997c.0199966.0299988,0,.0599976,0,.0800018-.2300034.1999969-.5299988.3000031-.8399963.3000031-.3656387-.0098724-.6723862-.2787933-.7300034-.6399994,0-.3099976.0199966-.9800034.0199966-1.0800018v-.1699982c0-.1399994,0-.6399994.0199966-.9599991h-.4599991c-.0699997,0-.1100006-.0299988-.1100006-.0899963s.0400009-.0899963.1399994-.1399994c.3399963-.2600021.6399994-.5800018.8600006-.9499969.0100021-.0500031.0599976-.0800018.1100006-.0800018.0599976,0,.0800018.0500031.0800018.1100006l-.0400009.75h1.0500031s.0500031.0199966.0599976.0500031v.0199966l-.0800018.2600021s-.0199966.0599976-.0699997.0599976h-.9700012c0,.3499985-.0199966.7099991-.0199966,1.0599976v.7600021h-.0199966l-.0199966.0099869ZM116.6700058,85c0-.2600021-.0400009-.3899994-.4199982-.4499969-.0500031,0-.0699997-.0199966-.0699997-.0500031v-.0699997s.0199966-.0400009.0500031-.0500031c.2799988-.0999985.5500031-.2200012.8099976-.3700027.0400009-.0299988.0899963-.0400009.1500015-.0500031.0400009,0,.0400009.0400009.0400009.0899963v2.7200012c0,.1399994.0400009.1999969.1200027.1999969h.3300018c.0599976,0,.0800018.0199966.0800018.0699997v.1299973c0,.0500031-.0199966.0800018-.0699997.0800018s-.4100037-.0199966-.7200012-.0199966c-.4400024,0-.7300034.0199966-.8199997.0199966-.0400009,0-.0599976-.0199966-.0599976-.0599976v-.1500015s.0199966-.0599976.0800018-.0599976h.3700027c.0800018,0,.1100006-.0299988.1200027-.1500015v-.6900024l.0199966-1.1200027-.0100174-.0199814ZM116.340004,82.6800003c.0100021-.2300034.2099991-.4100037.4400024-.3899994h.0199966c.2099991,0,.3799973.1500015.3899994.3499985v.0199966c0,.2200012-.1800003.4100037-.4000015.4100037h-.0400009c-.2200012,0-.3899994-.1800003-.4100037-.4000015l.0000076.0100021ZM118.4600067,86.7700043c-.6200027-.7099991-.5400009-1.7799988.1600037-2.3899994.0199966-.0199966.0500031-.0400009.0699997-.0599976.2799988-.2300034.6399994-.3600006,1.0100021-.3600006.3899994,0,.7699966.1699982,1.0599976.4400024.3300018.3199997.5199966.7699966.5100021,1.2300034-.0299988.9000015-.75,1.6200027-1.6500015,1.6500015-.4400024,0-.8600006-.1800003-1.1600037-.5100098ZM120.640007,85.5500031c0-.8399963-.6100006-1.3700027-.9899979-1.3700027-.2200012,0-.4300003.0800018-.5800018.2399979-.3000031.3199997-.4499969.75-.4000015,1.1900024-.0299988.3700027.0699997.75.2799988,1.0599976.1600037.25.4499969.4100037.75.3899994.5699997,0,.9400024-.6999969.9400024-1.5099945ZM124.7700043,86.7900009c0,.1200027.0699997.1600037.1699982.1600037h.2399979c.0699997,0,.0800018.0199966.0800018.0699997v.1200027c0,.0500031,0,.0899963-.0599976.0899963s-.2799988-.0199966-.7099991-.0199966-.6299973.0199966-.6600037.0199966-.0599976-.0199966-.0599976-.0899963v-.1200027c0-.0500031.0199966-.0699997.0999985-.0699997h.2200012c.0800018,0,.1399994-.0400009.1500015-.1699982v-1.6299973c0-.3000031,0-.5199966-.2200012-.6800003-.1611862-.109848-.3559113-.1594086-.5500031-.1399994-.2300034.0100021-.4599991.1200027-.6100006.2900009-.1200027.1399994-.1800003.3300018-.1699982.5100021v1.5599976c0,.2099991.0199966.25.1800003.25h.1900024c.0599976,0,.0800018.0199966.0800018.0800018v.1299973s0,.0699997-.0500031.0699997-.25-.0199966-.6600037-.0199966-.6299973.0199966-.6600037.0199966-.0500031-.0199966-.0500031-.0699997v-.1399994s.0199966-.0699997.0800018-.0699997h.2200012c.0999985,0,.1500015-.0199966.1500015-.1500015v-1.7799988c0-.1999969-.1200027-.3799973-.3099976-.4499969l-.0599976-.0299988c-.0500031-.0199966-.0599976-.0400009-.0599976-.0699997v-.0400009s.0299988-.0599976.0699997-.0800018l.6600037-.3600006s.0899963-.0400009.1399994-.0500031c.0400009,0,.0500031.0299988.0599976.0899963l.0500031.4599991h.0199966c.25-.3199997.6299973-.5199966,1.0299988-.5500031.2200012,0,.4499969.0500031.6399994.1699982.2200012.1800003.3700027.4300003.4100037.7200012l-.0199966,1.9499969-.0300064.0200043ZM2.6500001,77.2799988c-.48-.3600006-.71-.4899979-.9100001-.4899979s-.41.2699966-.65.6900024-.42.4899979-.71.4899979-.44-.2099991-.36-.6600037c.16-1.0199966.56-6.1999969.66-7.3799973.04-.2399979.12-.2399979.27-.2399979l.6.0400009c.16,0,.23.0800018.23.3300018-.0190905,1.6859207.4800824,3.3370361,1.4299999,4.7300034,1.2106762,1.885704,3.2991047,3.0241623,5.54,3.0199966,2.3800001,0,5.3800001-1.5100021,5.3800001-5.1800003,0-4.1999969-2.9300003-5.75-6.0900002-6.8899994-1.23-.4499969-4.0799999-1.4700012-5.7800002-3.3100014-1.3099998-1.3500023-1.9799998-3.260006-1.9799998-5.9500046,0-2.0400009,1.23-4.0400009,2.45-5.2200012,1.4299998-1.3899994,3.4000001-1.9599991,5.5400004-1.9599991,1.6099997,0,3.1999998.3499985,4.6700001,1.0200005.3500004.2099991.5500002.1699982.75-.0400009l.54-.4700012c.1300001-.1500015.3199997-.2299995.5199995-.2400017.1999998,0,.3299999.3300018.3299999.6899986,0,1.4300003.5100002,5.5800018.5500002,6.4799995,0,.2000008-.04.2799988-.1999998.3300018l-.4700003.1199989c-.0799999.0400009-.1800003,0-.2200003-.0699997,0-.0200005-.0100002-.0299988-.0200005-.0499992-.4099998-1.7000008-1.2700005-3.2599983-2.4700003-4.5299988-1.0699997-1.1800003-2.4499998-1.75-4.3000002-1.75-3.5299997,0-4.8000002,2.6899986-4.8000002,4.7700005,0,1.1399994.24,2.4900017,1.23,3.5499992,1.1500001,1.1800003,3.3600001,2.079998,4.5100007,2.4500008,2.7299995.9000015,4.96,1.5900002,6.3699999,3.3799973,1.0300016,1.2600021,1.7400007,2.8500061,1.7400007,5.5400085,0,4.8099976-2.8500004,8.9300003-8.0699997,8.9300003-2.77-.0100021-4.71-.8700027-6.27-2.1299973l-.0100002-.0000076ZM19.7199993,67.25c0-.9899979-.2800007-1.5500031-1.4300003-2.1999969l-.9099998-.5299988c-.2700005-.1200027-.2700005-.2399979-.2700005-.3700027v-.3300018c0-.1199989.0799999-.2099991.2700005-.2900009l3.789999-1.9500008c.2700005-.1800003.5900002-.2900009.9099998-.3300018.2000008,0,.2800007.2099991.2800007.8199997l.1599998,1.9600029h.1200008c1.3965397-1.7602806,3.5333729-2.7695427,5.7800007-2.7299995,2.0200005,0,3.3600006.9000015,4.5100002,1.9799995,1.5,1.5500031,2.1399994,3.2200012,2.1399994,6.3600006,0,5.3399963-3.6000004,9.6200027-8.5400009,9.6200027-1.3500004.0199966-2.7000008-.2200012-3.9699993-.6900024v8.5999985c0,1.1399994.2800007,1.3499985.8700008,1.3499985h1.7299995c.3299999,0,.3600006.1600037.3600006.4100037v.7099991c0,.2399979-.0799999.3700027-.3600006.3700027-.2000008,0-1.5400009-.1200027-4.0799999-.1200027-2.289999,0-3.6800003.1200027-3.9899998.1200027s-.3600006-.1200027-.3600006-.3700027v-.7300034c0-.2099991.0799999-.3700027.4699993-.3700027h1.539999c.6599998,0,.75-.4100037.8299999-1.0199966.1200008-.9000015.1200008-3.0999985.1200008-7.090004l.0300007-13.1699982v-.0099945ZM22.5699997,74.7099991c0,.9000015.0799999,1.6299973.8299999,2.1600037,1.1100006.8199997,2.3400002,1.0999985,3.9699993,1.0999985,2.2600002,0,4.5900002-1.75,4.5900002-6.8099976-.0300007-5.7099991-2.5100002-8-5.1700001-8-1.7725868.0599327-3.3813839,1.052597-4.2299995,2.6100006l.0200005,8.9300003-.0100002.0099945ZM50.7900009,70.5100021c0,1.9599991,0,3.9700012.0800018,4.8099976.1199989,1.2600021.5600014,1.4300003,1.0299988,1.4300003.4399986,0,.8800011-.0299988,1.3100014-.1200027.3300018-.0800018.4300003,0,.4700012.1699982l.1199989.5299988c.0400009.2399979-.0400009.3300018-.2000008.3700027l-4.170002,1.4300003c-.25.0999985-.5200005.1600037-.7900009.1600037-.1599998,0-.3100014-.0800018-.3499985-.4899979l-.3300018-2.3600006h-.0800018c-1.1100006,1.5899963-3.4000015,2.8499985-5.3800011,2.8499985-1.1100006,0-2.4099998-.1200027-3.7200012-1.8799973-1.6199989-2.1600037-1.5400009-3.5-1.5400009-7.9899979v-4.7300034c-.0400009-1.1399994-.5900002-1.4300003-1.5-1.5499992-.6599998-.0400009-.8699989-.0800018-.8699989-.2799988v-.7299995c0-.2400017.0800018-.3300018.4300003-.3300018h3.5200005c.1899986,0,.3699989-.0299988.5499992-.0800018.1599998,0,.3300018-.0400009.4399986-.0400009.2299995-.0099983.4199982.1599998.4399986.3899994v.0999985c-.0400009.3699989-.1599998,2.2799988-.1599998,4.6900024v2.8899994c0,1.6299973-.3899994,4.2399979.8699989,6.1100006.9900017,1.4700012,2.0999985,1.5500031,3.1699982,1.5500031s2.6500015-1.0599976,3.4000015-2.0400009c.2200012-.3199997.3600006-.6999969.3899994-1.0999985v-9.6999969c-.0800018-1.1399994-.7099991-1.3400002-1.7000008-1.4300003-.6599998,0-.8699989-.0800018-.8699989-.2799988v-.6899986c0-.3300018.0800018-.3699989.4700012-.3699989h3.6800003c.2200012,0,.4399986-.0299988.6599998-.0800018.2000008,0,.3499985-.0400009.4700012-.0400009.1899986,0,.3499985.1399994.3600006.3300018v.0800018c-.0400009.3699989-.2400017,1.4300003-.2400017,5.4199982l.0400009,3.0199966.0000076-.0200043ZM70.1999969,76.5800018c0,.6600037.3499985.8600006.8700027.8600006h1.2600021c.3600006,0,.4400024.1200027.4400024.3700027v.6600037c0,.2799988-.0800018.4499969-.3300018.4499969s-1.5-.1200027-3.7600021-.1200027c-2.0199966,0-3.2799988.1200027-3.5599976.1200027s-.3300018-.1200027-.3300018-.4499969v-.6600037c0-.2900009.1200027-.3700027.5199966-.3700027h1.1500015c.4300003,0,.75-.2099991.7900009-.9400024.0400009-1.0599976.0800018-2.3600006.0800018-3.4199982v-5.3800049c0-1.6299973,0-2.8099976-1.1500015-3.6699982-.9499969-.7299995-1.9000015-.7299995-2.8899994-.7299995-1.2400017.0800018-2.3899994.6500015-3.2099991,1.5900002-.6399994.7799988-.9599991,1.7699966-.9099998,2.7699966v8.4400024c0,1.0999985.1199989,1.3499985.9500008,1.3499985h.9900017c.3300018,0,.4000015.1200027.4000015.4100037v.6900024c0,.2399979-.0800018.3700027-.2799988.3700027-.2799988,0-1.3499985-.1200027-3.4399986-.1200027s-3.2799988.1200027-3.5200005.1200027-.2700005-.1200027-.2700005-.3700027v-.7300034c0-.2399979.0800018-.3700027.3899994-.3700027h1.1500015c.5099983,0,.7900009-.1200027.7900009-.8199997v-9.5400009c0-1.2200012-.6300011-1.9199982-1.6199989-2.4000015l-.3300018-.1600037c-.2799988-.1200027-.3300018-.2399979-.3300018-.3700027v-.2099991c0-.2000008.1599998-.3300018.3600006-.4099998l3.4000015-1.9599991c.2200012-.1399994.4599991-.2299995.7099991-.2799988.2000008,0,.2799988.1599998.3300018.4900017l.2799988,2.4899979h.0900002c1.1500015-1.4700012,3.4399986-2.9799995,5.4199982-2.9799995,1.1800003-.0400009,2.3600006.2700005,3.3600006.9000015,1.1900024.8100014,2.1800003,2.8500023,2.1800003,3.8699989l.0199966,10.5200043-.0000076-.0099945ZM73.7399979,88.5599976c-1.4199982-.9000015-2.0199966-1.9599991-2.0199966-3.3099976,0-2.2799988,2.2600021-4.0299988,4.1500015-4.8899994v-.1600037c-1.6500015-.3700027-2.6500015-1.6299973-2.6500015-2.8499985,0-1.9599991,2.1800003-3.3399963,3.5599976-3.8700027v-.0599976c-1.5400009-.6900024-3.6800003-2.5699997-3.6800003-6.1999969,0-2.6500015,2.3000031-5.9099998,6.7600021-5.9099998,1.9374466-.0211754,3.7772141.8489342,4.9899979,2.3600006,1.0699997-.7700005,2.4100037-1.5900002,3.7200012-1.5900002s1.9400024.9000015,1.8600006,1.7099991c0,.8399963-.6999969,1.5199966-1.5400009,1.5100021-.5299988,0-1.0299988-.2300034-1.3799973-.6100006-.2300034-.1999969-.5199966-.3300018-.8300018-.3700027-.4400024-.0199966-.8700027.0699997-1.2699966.2399979.4000015.9800034.6100006,2.0400009.5899963,3.0999985.0400009,1.5899963-.4800034,3.1500015-1.4599991,4.4000015-1.0299988,1.1800003-3.2799988,2.0400009-4.590004,2.0400009-.6800003.0299988-1.3600006-.0400009-2.0199966-.1999969-.7900009.3300018-2.0999985,1.1399994-2.0999985,2.2799988,0,1.6500015,1.9800034,1.5500031,4.6299973,1.3899994,3.25-.1699982,5.2200012.1999969,6.8000031,1.4700012,1.2300034.9199982,1.9499969,2.3799973,1.9400024,3.9100037,0,1.9199982-.6600037,3.5100021-2.6500015,5.0100021-1.0299988.7699966-3.4000015,1.9199982-6.7600021,1.9199982-1.9300003-.0199966-4.1800003-.2200012-6.0800018-1.3199997h.0199966l.0100021-.0000076ZM86.7999954,84.3600006c0-2.4000015-1.7799988-4.2399979-5.7399979-3.9499969l-3.8099976.2799988c-1.2300034.3300018-3.1699982,1.7099991-3.1699982,3.9100037,0,1.0199966.75,2.2399979,1.5400009,2.8099976,1.3099976.9400024,2.7300034,1.1399994,5.5400009,1.1399994,1.4700012,0,5.8199997-1.0599976,5.6200027-4.1999969h.0199966l-.0000076.0099945ZM83.1200027,67c0-1.8000031-.3499985-2.8499985-1.0699997-3.6699982-.5-.5200005-1.1800003-.8400002-1.9000015-.9000015-1.0599976-.0600014-2.0899963.3600006-2.8099976,1.1399994-1.2600021,1.3899994-1.4199982,3.2600021-1.4199982,4.8099976-.041626,1.3014832.4122772,2.5702591,1.2699966,3.5500031.6100006.6600037,1.4700012,1.0299988,2.3700027,1.0199966,2.6699982,0,3.5400009-3.3799973,3.5400009-5.9499969h.0199966ZM92.3000031,67.9400024c-.0999985.6500015-.1399994,1.3000031-.1200027,1.9599991,0,4,2.4499969,7.0100021,5.6200027,7.0100021,1.9700012.0199966,3.8000031-1.0400009,4.75-2.7699966.0599976-.1399994.1999969-.2300034.3499985-.2099991l.5199966.2799988c.1200027.0400009.1999969.1699982,0,.6100006-.7099991,1.6299973-2.7699966,4.4400024-6.2900009,4.4400024-2.25,0-4.75-.6900024-6.2099991-2.8899994-1.3899994-2.0800018-1.7399979-3.5899963-1.7399979-6.4400024,0-1.5899963.3899994-4.3199997,2.4899979-6.4799995,1.6999969-1.7900009,3.6800003-2.1599998,5.6600037-2.1599998,4.5500031,0,5.8199997,4.4000015,5.8199997,5.9899979,0,.5699997-.4700012.6600037-1.1100006.6600037h-9.75l.0100021-.0000076ZM98.590004,66.7099991c.75,0,1.0699997-.1999969,1.0699997-.5699997,0-.9400024-.4800034-3.6399994-3.0500031-3.6399994-1.7399979,0-3.4000015,1.1800003-4.1500015,4.1999969h6.1299973l.0000076.0100021ZM119.8500061,76.5699997c0,.6600037.3600006.8600006.8700027.8600006h1.2699966c.3600006,0,.4400024.1200027.4400024.3700027v.6600037c0,.2799988-.0800018.4499969-.3300018.4499969s-1.5-.1200027-3.7600021-.1200027c-2.0199966,0-3.2799988.1200027-3.5599976.1200027s-.3300018-.1200027-.3300018-.4499969v-.6600037c0-.2900009.1200027-.3700027.5100021-.3700027h1.1699982c.4400024,0,.75-.2099991.7900009-.9400024.0400009-1.0599976.0800018-2.3600006.0800018-3.4199982v-5.3799973c0-1.6299973,0-2.8099976-1.1500015-3.6699982-.9499969-.7299995-1.9000015-.7299995-2.8899994-.7299995-1.2399979.0800018-2.3899994.6500015-3.1999969,1.5900002-.6399994.7799988-.9599991,1.7699966-.9100037,2.7699966v8.4400024c0,1.0999985.1200027,1.3499985.9499969,1.3499985h.9899979c.3099976,0,.3899994.1200027.3899994.4100037v.6900024c0,.2399979-.0800018.3700027-.2699966.3700027-.2799988,0-1.3499985-.1200027-3.4400024-.1200027s-3.2799988.1200027-3.5199966.1200027-.2799988-.1200027-.2799988-.3700027v-.7300034c0-.2399979.0800018-.3700027.4000015-.3700027h1.1399994c.5100021,0,.7900009-.1200027.7900009-.8199997v-9.5400009c0-1.2200012-.6399994-1.9199982-1.6200027-2.4000015l-.3300018-.1600037c-.2799988-.1200027-.3300018-.2399979-.3300018-.3700027v-.2099991c0-.2000008.1600037-.3300018.3600006-.4099998l3.4000015-1.9599991c.2200012-.1399994.4599991-.2299995.7099991-.2799988.1999969,0,.2799988.1599998.3300018.4900017l.2799988,2.4899979h.0800018c1.1500015-1.4700012,3.4400024-2.9799995,5.4199982-2.9799995,1.1800003-.0400009,2.3600006.2700005,3.3600006.9000015,1.1800003.8100014,2.1699982,2.8500023,2.1699982,3.8699989l.0199966,10.5200043.0000076-.0100021ZM26.8400002,54.2599983v-1.4900017c0-.1399994-.1100006-.2200012-.3099995-.2200012h-.4500008s-.0499992,0-.0499992-.0400009v-.2099991s.0200005-.0499992.0499992-.0499992h.3099995c.1700001,0,.4300003.0200005.7900009.0200005.1299992,0,2.7800007,0,2.8899994-.0299988.0200005.1300011.25,1.1500015.2999992,1.3400002v.0499992l-.1399994.0499992s-.0400009,0-.0599995-.0499992c-.0699997-.1199989-.2600002-.4000015-.4799995-.6899986-.1288986-.1765327-.3170319-.3007736-.5300007-.3499985-.1900005-.0499992-1.3899994-.0699997-1.6100006-.0699997v2.4599991c.1100006,0,.8999996-.0200005.9899998-.0400009.1700001-.0299988.2600002-.0999985.3299999-.3300018.0200005-.0800018.0499992-.2299995.0799999-.3699989,0-.0299988.0200005-.0499992.0499992-.0499992h.1499996s.0499992.0200005.0499992.0499992v.8699989c0,.2700005.0200005.6300011.0400009.7799988,0,.0400009-.0200005.0499992-.0499992.0600014l-.1499996.0299988s-.0400009-.0200005-.0499992-.0499992-.0599995-.2900009-.0799999-.3699989c-.0195827-.1589241-.1501236-.281044-.3099995-.2900009-.3400002-.0299988-.6800003-.0499992-1.0300007-.0499992v1.8899994c0,.2099991.0400009.2400017.2900009.2400017h.3700008s.0699997,0,.0699997.0499992v.1899986s0,.0600014-.0599995.0600014-.3799992-.0200005-1.0300007-.0200005c-.5900002,0-.8700008.0200005-.9899998.0200005-.0300007,0-.0400009,0-.0400009-.0499992v-.2099991s.0200005-.0400009.0499992-.0400009h.3299999c.2000008,0,.2600002-.0299988.2600002-.1699982s.0300007-1.0999985.0300007-2.4000015l-.0200005-.5200005h.0100002ZM31.7600002,55.3799973v1.7700005c0,.1300011.0400009.2299995.2000008.2299995h.3299999c.0699997,0,.0900002.0200005.0900002.0699997v.1300011s-.0200005.0800018-.0499992.0800018-.3799992-.0200005-.8500004-.0200005-.7800007.0200005-.8500004.0200005-.0499992-.0299988-.0499992-.0800018v-.1300011c0-.0499992,0-.0699997.1000004-.0699997h.3600006c.0799999,0,.1599998-.0499992.1700001-.1899986v-2.4599991c0-.5400009,0-1.2200012-.0200005-1.4199982,0-.2200012-.1599998-.4199982-.3799992-.4500008l-.1499996-.0499992s-.0499992-.0200005-.0499992-.0400009v-.0600014s.0200005-.0400009.0699997-.0499992c.2999992-.1300011.6000004-.2700005.8799992-.4399986.0499992-.0400009.1000004-.0600014.1599998-.0600014.0499992,0,.0699997.0400009.0599995.1399994,0,.4199982-.0300007,1.9799995-.0300007,2.4000015l.0200005.6899986-.0100021-.0100021ZM32.9900017,57.1999969c-.6199989-.7000008-.5400009-1.7700005.1599998-2.3899994.0200005-.0200005.0499992-.0400009.0800018-.0600014.2799988-.2299995.6300011-.3600006.9900017-.3600006.3899994,0,.7700005.1699982,1.0600014.4399986.3300018.3199997.5200005.7700005.5099983,1.2299995-.0400009.9000015-.7599983,1.6199989-1.6500015,1.6500015-.4399986,0-.8600006-.1699982-1.1500015-.5v-.0200005.0100021ZM35.170002,55.9799957c0-.8400002-.6100006-1.3699989-.9900017-1.3699989-.2200012,0-.4300003.0800018-.5800018.2400017-.2999992.3199997-.4500008.75-.4000015,1.1899986-.0299988.3699989.0699997.75.2799988,1.0600014.1599998.2599983.4500008.4099998.75.3899994.5600014,0,.9300003-.7000008.9300003-1.5099983l.010006-.0000038ZM36.6900024,55.6199951c0-.3899994-.0600014-.4599991-.2700005-.5800018l-.1399994-.0800018s-.0600014-.0200005-.0600014-.0499992v-.0499992s0-.0400009.0600014-.0699997l.7400017-.3899994s.0699997-.0299988.1100006-.0299988c.0499992,0,.0499992.0499992.0499992.0900002l.0400009.5200005h.0299988c.1800003-.3499985.5200005-.5900002.9000015-.6599998.1800003-.0299988.3499985.0900002.3800011.2700005v.0600014c0,.1899986-.1399994.3499985-.3300018.3699989-.0800018,0-.1500015-.0200005-.2200012-.0600014-.0755463-.0443306-.1625633-.0652161-.25-.0600014-.2000008.0200005-.3699989.1500015-.4399986.3300018-.0400009.0800018-.0600014.1599998-.0800018.2400017v1.5900002c0,.2299995.0499992.3100014.2099991.3100014h.3499985s.0499992.0200005.0499992.0699997v.1399994s0,.0699997-.0400009.0699997-.3899994-.0200005-.7999992-.0200005c-.4700012,0-.7799988.0200005-.8300018.0200005s-.0400009,0-.0400009-.0800018v-.1300011c0-.0499992,0-.0699997.0800018-.0699997h.2900009c.1100006,0,.1699982-.0499992.1699982-.1500015v-.9099998l.0200005-.7099991.0200043.0200005ZM39.340004,55.6199951c-.0200005.1199989-.0299988.2400017-.0200005.3600006,0,.7400017.4700012,1.2999992,1.0699997,1.2999992.3699989,0,.7200012-.1899986.9099998-.5099983.0099983-.0299988.0400009-.0400009.0699997-.0400009l.0999985.0499992s.0400009.0299988,0,.1199989c-.3174629.7062302-1.1473312,1.021389-1.8535652.7039223-.2110558-.0948715-.3953476-.2405128-.5364342-.4239235-.25-.3499985-.3600006-.7700005-.3300018-1.1899986,0-.4500008.1599998-.8800011.4799995-1.2000008.2799988-.2799988.6800003-.4300003,1.0800018-.4000015.6100006.0099983,1.0999985.5,1.1100006,1.1100006,0,.1100006-.0900002.1199989-.2099991.1199989h-1.8600006l-.0099983.0000038ZM40.5400047,55.3899956c.1399994,0,.2099991-.0400009.2099991-.1100006,0-.1699982-.0900002-.6599998-.5800018-.6599998-.3300018,0-.6599998.2200012-.7900009.7799988h1.1699982l-.0099945-.0099983ZM44.970005,57.1999969c0,.1199989.0699997.1599998.1699982.1599998h.2400017c.0699997,0,.0800018.0200005.0800018.0699997v.1199989c0,.0499992,0,.0800018-.0600014.0800018s-.2900009-.0200005-.7200012-.0200005-.6300011.0200005-.6800003.0200005-.0600014-.0200005-.0600014-.0800018v-.1199989c0-.0499992.0200005-.0699997.0999985-.0699997h.2200012c.0900002,0,.1500015-.0400009.1500015-.1800003v-1.6300011c0-.2999992,0-.5200005-.2200012-.6800003-.1611862-.1098442-.3559113-.1594086-.5499992-.1399994-.2299995.0099983-.4500008.1199989-.6100006.2900009-.1199989.1399994-.1899986.3300018-.1800003.5200005v1.5600014c0,.2099991.0200005.25.1800003.25h.1899986c.0600014,0,.0800018.0200005.0800018.0800018v.1300011s0,.0699997-.0499992.0699997-.2599983-.0200005-.6599998-.0200005-.6300011.0200005-.6599998.0200005-.0499992-.0200005-.0499992-.0699997v-.1399994s.0200005-.0699997.0800018-.0699997h.2200012c.0999985,0,.1500015-.0200005.1500015-.1500015v-1.7599983c0-.2000008-.1199989-.3800011-.3100014-.4500008l-.0600014-.0299988c-.0499992-.0200005-.0600014-.0499992-.0600014-.0699997v-.0400009s.0299988-.0600014.0699997-.0800018l.6599998-.3600006s.0900002-.0400009.1399994-.0499992c.0400009,0,.0499992.0299988.0600014.0900002l.0499992.4599991c.2599983-.3100014.6300011-.5099983,1.0400009-.5499992.2200012,0,.4500008.0499992.6399994.1699982.2299995.1800003.3800011.4300003.4199982.7200012v1.9399986l-.0099983.0099983ZM46.2900047,55.7799988c.0099983.4099998.1500015.8100014.3899994,1.1500015.1899986.25.5.4000015.8199997.3800011.3100014.0200005.6199989-.0999985.8300018-.3300018,0-.0200005.0299988-.0200005.0499992,0l.0800018.0800018s.0400009.0499992,0,.0999985c-.3199997.3300018-.75.5299988-1.2099991.5400009-.4500008.0299988-.8899994-.1699982-1.1699982-.5299988-.2299995-.2900009-.3499985-.6599998-.3300018-1.0299988,0-.8800011.6199989-1.7799988,1.6100006-1.7799988.7799988,0,1.0299988.4500008,1.0299988.6100006,0,.1399994-.1100006.2599983-.25.2599983h-.0299988c-.1899986,0-.3499985-.1300011-.4099998-.2999992-.1699982-.3100014-.3300018-.3300018-.5099983-.3300018-.4199982,0-.8699989.4000015-.8699989,1.1800003,0,0-.0299988,0-.0300064-.0000038ZM49.4000053,55.5900002c-.0200005.1199989-.0299988.2400017-.0200005.3600006,0,.7400017.4700012,1.2999992,1.0699997,1.2999992.3699989,0,.7200012-.1899986.9099998-.5099983,0-.0299988.0400009-.0400009.0699997-.0400009l.0999985.0499992s.0400009.0299988,0,.1199989c-.2099991.4799995-.6699982.7999992-1.2000008.8199997-.4599991.0299988-.9099998-.1699982-1.1800003-.5400009-.25-.3499985-.3600006-.7700005-.3300018-1.1899986,0-.4500008.1599998-.8800011.4700012-1.2000008.2799988-.2799988.6800003-.4300003,1.0800018-.4000015.6100006,0,1.0999985.5,1.1100006,1.1100006,0,.1100006-.0900002.1199989-.2099991.1199989h-1.8600006l-.0099983.0000038ZM50.6000061,55.3600006c.1399994,0,.2000008-.0400009.2000008-.1100006,0-.1699982-.0900002-.6599998-.5800018-.6599998-.3300018,0-.6599998.2200012-.7900009.7799988h1.1699982l.0000038-.0099983ZM66.840004,54.2000008c0-.4799995,0-1.2799988-.0199966-1.4199982-.0199966-.2000008-.0500031-.2700005-.2799988-.2700005h-.3499985s-.0500031-.0400009-.0500031-.0800018v-.1699982s0-.0499992.0500031-.0499992.3499985.0200005.9899979.0200005c.7300034,0,1.0500031-.0200005,1.1100006-.0200005s.0699997.0200005.0699997.0600014v.1800003s0,.0600014-.0800018.0600014h-.4499969c-.2300034,0-.2600021.0800018-.2600021.2900009,0,.0999985-.0199966,1.2400017-.0199966,1.7700005v.6599998c0,.1300011,0,1.7599983.0199966,2.0699997.1699982,0,1.6500015.0299988,1.8899994,0,.4499969-.0699997.9000015-.9900017.9899979-1.2700005.0199966-.0299988.0299988-.0400009.0599976-.0299988l.1200027.0499992s.0199966.0200005.0199966.0699997-.3300018,1.2999992-.3700027,1.5099983h-4.1299973c-.0500031,0-.0599976,0-.0599976-.0499992v-.1899986s0-.0499992.0500031-.0499992h.3700027c.2799988,0,.3300018-.1100006.3300018-.2099991s.0199966-2.0200005.0199966-2.4799995l-.0199966-.4399986-.0000076-.0100098ZM73.340004,56.6800003c0,.4300003.0899963.5699997.2200012.5699997.0999985,0,.1999969-.0400009.2600021-.1199989.0299988-.0400009.0500031-.0499992.0800018-.0299988l.0800018.0600014s.0400009.0600014,0,.1399994c-.0999985.2299995-.3300018.3800011-.5899963.3699989-.2761154-.0124016-.5015488-.225071-.5299988-.5-.1999969.2200012-.4599991.3800011-.7399979.4599991-.1500015.0400009-.3000031.0600014-.4499969.0499992-.1800003,0-.4499969-.1500015-.4499969-.6300011,0-.3300018.1600037-.6599998.75-.9099998.3000031-.1199989.5800018-.2700005.8499985-.4399986v-.4799995c0-.1500015-.0400009-.2900009-.1100006-.4199982-.1193161-.1175842-.2827377-.1793213-.4499969-.1699982-.1800003,0-.3499985.0600014-.4899979.1599998-.1100006.0999985-.0400009.2099991-.0400009.3499985,0,.2599983-.0899963.4300003-.4000015.4300003-.1200027,0-.1800003-.0699997-.1800003-.2400017.0500031-.3100014.2399979-.5699997.5199966-.7099991.2699966-.1800003.5899963-.2700005.9199982-.2599983.2200012-.0200005.4400024.0499992.6100006.2099991.1299973.1500015.1900024.3400002.1699982.5400009v1.5999985h-.0299988l-.0000153-.0300026ZM72.7900009,55.920002c-.2699966.2000008-1.0100021.3499985-1.0100021.9900017-.0199966.2000008.1200027.3899994.3199997.4099998h.0699997c.2200012,0,.6200027-.2599983.6200027-.4700012v-.9399986.0099983ZM77.0500031,56.0500031c0,.3600006,0,.7299995.0199966.8899994.0199966.2299995.1100006.2599983.1999969.2599983.0800018,0,.1699982,0,.25-.0200005.0599976,0,.0800018,0,.0899963.0299988l.0199966.0999985s0,.0600014-.0400009.0699997l-.7900009.2599983s-.0999985.0299988-.1500015.0299988c-.0299988,0-.0599976-.0200005-.0699997-.0900002l-.0599976-.4399986h-.0199966c-.25.3199997-.6200027.5099983-1.0299988.5299988-.2825546.0203629-.5540695-.1134834-.7099991-.3499985-.3099976-.4000015-.2900009-.6599998-.2900009-1.4799995v-.8800011c0-.2099991-.1100006-.2599983-.2900009-.2900009s-.1699982,0-.1699982-.0499992v-.1399994s.0199966-.0600014.0800018-.0600014h.8499985s.0800018.0299988.0800018.0699997v.0200005c0,.0699997-.0299988.4199982-.0299988.8699989v.5400009c0,.2999992-.0800018.7900009.1699982,1.1300011.1299973.2000008.3600006.3100014.5999985.2900009.2600021-.0400009.5-.1800003.6600037-.3800011.0400009-.0600014.0699997-.1300011.0800018-.2000008v-1.7999992c0-.2099991-.1399994-.25-.3300018-.2599983-.1299973,0-.1699982,0-.1699982-.0499992v-.1300011c0-.0600014.0199966-.0699997.0899963-.0699997h.9199982s.0699997.0299988.0699997.0699997c-.0400009.3400002-.0599976.6699982-.0500031,1v.5299988l.0200119.0000076ZM78.5699997,55.5700035c0-.3899994-.0599976-.4599991-.2699966-.5800018l-.1500015-.0800018s-.0599976-.0200005-.0599976-.0499992v-.0499992s0-.0400009.0599976-.0699997l.75-.3899994s.0699997-.0299988.1100006-.0299988c.0500031,0,.0500031.0499992.0500031.0900002l.0400009.5200005h.0299988c.1800003-.3499985.5199966-.5900002.9100037-.6599998.1800003-.0299988.3499985.0900002.3799973.2700005v.0600014c0,.1899986-.1299973.3400002-.3099976.3699989-.0800018,0-.1500015-.0200005-.2200012-.0600014-.0755463-.0443306-.1625595-.0652161-.25-.0600014-.1999969.0200005-.3700027.1500015-.4400024.3300018-.0400009.0800018-.0599976.1599998-.0800018.2400017v1.5900002c0,.2299995.0500031.3100014.2099991.3100014h.3499985s.0500031.0200005.0500031.0699997v.1399994s0,.0699997-.0400009.0699997-.3899994-.0200005-.8000031-.0200005c-.4700012,0-.7799988.0200005-.8300018.0200005s-.0500031,0-.0500031-.0800018v-.1300011c0-.0499992.0199966-.0699997.0899963-.0699997h.3199997c.1200027,0,.1699982-.0499992.1699982-.1500015v-.9099998l-.0199966-.7099991.0000076.0200005ZM81.2200012,55.5700035c-.0199966.1199989-.0299988.2400017-.0199966.3600006,0,.7400017.4700012,1.2999992,1.0699997,1.2999992.3700027,0,.7200012-.1899986.9100037-.5099983.0100021-.0299988.0400009-.0400009.0699997-.0400009l.0999985.0499992s.0400009.0299988,0,.1199989c-.2099991.4799995-.6699982.7999992-1.1999969.8199997-.4599991.0299988-.9100037-.1699982-1.1800003-.5400009-.25-.3499985-.3600006-.7700005-.3300018-1.1899986,0-.4500008.1699982-.8800011.4700012-1.2000008.2799988-.2799988.6800003-.4300003,1.0800018-.4000015.6100006,0,1.0999985.5,1.1100006,1.1100006,0,.1100006-.0899963.1199989-.2099991.1199989h-1.8600006l-.0100098.0000038ZM82.4199982,55.340004c.1399994,0,.2099991-.0400009.2099991-.1100006,0-.1699982-.0899963-.6599998-.5800018-.6599998-.3300018,0-.6600037.2200012-.7900009.7799988h1.1699982l-.0099945-.0099983ZM86.8699951,57.1600037c0,.1199989.0699997.1599998.1699982.1599998h.2399979c.0699997,0,.0800018.0200005.0800018.0699997v.1199989c0,.0499992-.0199966.0800018-.0599976.0800018s-.2900009-.0200005-.7200012-.0200005-.6299973.0200005-.6800003.0200005-.0599976-.0200005-.0599976-.0800018v-.1199989c0-.0499992.0199966-.0699997.0999985-.0699997h.2200012c.0800018,0,.1500015-.0400009.1500015-.1800003v-1.6300011c0-.2999992,0-.5200005-.2200012-.6800003-.1611862-.1098442-.3559113-.1594124-.5500031-.1399994-.2300034.0099983-.4499969.1199989-.6100006.2900009-.1192474.1462212-.1798477.3315735-.1699982.5200005v1.5600014c0,.2099991.0199966.25.1800003.25h.1900024c.0599976,0,.0699997.0200005.0699997.0800018v.1300011s0,.0699997-.0500031.0699997-.25-.0200005-.6600037-.0200005-.6299973.0200005-.6600037.0200005-.0500031-.0200005-.0500031-.0699997v-.1399994s.0199966-.0699997.0800018-.0699997h.2200012c.0999985,0,.1500015-.0200005.1500015-.1500015v-1.760006c0-.2000008-.1200027-.3800011-.3099976-.4500008l-.0599976-.0299988c-.0500031-.0200005-.0599976-.0499992-.0599976-.0699997v-.0400009s.0299988-.0600014.0699997-.0800018l.6600037-.3600006s.0899963-.0400009.1399994-.0499992c.0400009,0,.0500031.0299988.0599976.0900002l.0500031.4599991c.2600021-.3100014.6299973-.5099983,1.0299988-.5499992.2200012,0,.4499969.0499992.6399994.1699982.2300034.1800003.3799973.4300003.4199982.7200012v1.9500046ZM88.2099915,55.7400055c.0100021.4099998.1500015.8100014.3899994,1.1500015.1900024.25.5.4000015.8199997.3800011.3099976.0200005.6200027-.0999985.8300018-.3300018,0-.0200005.0299988-.0200005.0500031,0l.0800018.0800018s.0400009.0499992,0,.0999985c-.3199997.3300018-.75.5299988-1.2099991.5400009-.4499969.0299988-.8899994-.1699982-1.1699982-.5299988-.2300034-.2900009-.3399963-.6599998-.3300018-1.0299988,0-.8800011.6200027-1.7799988,1.6100006-1.7799988.7799988,0,1.0299988.4500008,1.0299988.6100006,0,.1399994-.1100006.2599983-.25.2599983h-.0299988c-.1900024,0-.3499985-.1300011-.4100037-.2999992-.1699982-.3100014-.3300018-.3300018-.5100021-.3300018-.4300003,0-.9000015.4000015-.9000015,1.1799965ZM91.3199921,55.5600052c-.0199966.1199989-.0299988.2400017-.0199966.3600006,0,.7400017.4700012,1.2999992,1.0699997,1.2999992.3700027,0,.7200012-.1899986.9100037-.5099983,0-.0299988.0400009-.0400009.0699997-.0400009l.0999985.0499992s.0400009.0299988,0,.1199989c-.318779.7038193-1.1477661,1.0159531-1.8515854.6971703-.2074661-.0939713-.388855-.237175-.5284119-.4171715-.25-.3499985-.3600006-.7700005-.3300018-1.1899986,0-.4500008.1600037-.8800011.4800034-1.2000008.2799988-.2799988.6800003-.4300003,1.0800018-.4000015.6100006,0,1.0999985.5,1.1100006,1.1100006,0,.1100006-.0899963.1199989-.2099991.1199989h-1.8700027l-.0100098.0000038ZM92.519989,55.3300056c.1399994,0,.1999969-.0400009.1999969-.1100006,0-.1699982-.0899963-.6599998-.5800018-.6599998-.3300018,0-.6600037.2200012-.7900009.7799988h1.1699982l.0000076-.0099983ZM57.7299995,11.4099998c-6.6800003,0-12.1000023,5.3999996-12.1000023,12.0799999s5.4000015,12.1000004,12.0800018,12.1000004,12.0999985-5.3999996,12.0999985-12.0799999c0-6.6900005-5.4100037-12.1000004-12.079998-12.1000004ZM57.7299995,34.3600006c-6,0-10.8600006-4.8600006-10.8699989-10.8600006,0-6,4.8600006-10.8599997,10.8600006-10.8699999,6,0,10.8600006,4.8599997,10.8700027,10.8599997,0,6-4.8600006,10.8599987-10.8600044,10.8700008Z"/>
  <path class="st0" d="M57.7000008,0c-12.9700012,0-23.4900017,10.5200005-23.4900017,23.4899998s10.5200005,23.4899998,23.4900017,23.4899998,23.4900017-10.5200005,23.4900017-23.4899998S70.6800003,0,57.7000008,0ZM57.7000008,45.1300011c-11.9500008,0-21.6399994-9.7000008-21.6300011-21.6499996,0-11.9499998,9.7000008-21.6399994,21.6500015-21.6299992,11.9499969,0,21.6299973,9.6899996,21.6299973,21.6299992,0,11.9499989-9.6800003,21.6400013-21.6299973,21.6499996h-.0200005Z"/>
  <path class="st1" d="M70.0599976,8.0500002h-.6999969c-1.5807266-.1207266-3.0116425-.9807572-3.8600006-2.3199997-.8399963-1.8099999-2.9799995-2.6099999-4.7999992-1.77-1.8199997.8399997-2.6100006,2.98-1.7700005,4.7999997.5471344,1.1846466,1.6894913,1.9831514,2.9900017,2.0900002.0999985,0,.5699997-.0200005.6800003,0,1.579998.1099997,3.0099983.96,3.8800011,2.29.8201447,1.8197794,2.9602203,2.6301451,4.7799988,1.8100014,1.8197861-.8201427,2.6301498-2.9602222,1.8100052-4.7800016h0c-.5400009-1.1999998-1.6999969-2.0100002-3.0100021-2.1199999h-.0100021.0099945ZM62.0899963,8.2200003c-.6056519-.047514-1.0581131-.5770102-1.0105972-1.1826625.0001907-.0024467.0003891-.0048923.0005989-.0073376.0475121-.6056523.5770073-1.0581136,1.182663-1.0106001.0024452.0001917.0048904.000392.0073357.0006003.6056519.047514,1.0581131.5770102,1.0105972,1.1826625-.0001907.0024467-.0003891.0048923-.0005989.0073376-.0475121.6056523-.5770073,1.0581136-1.182663,1.0105996-.0024452-.0001917-.0048904-.000392-.0073357-.0005999ZM69.6699982,12.8000002c-.6056519-.0475121-1.0581131-.5770063-1.0106049-1.1826591.0001907-.0024471.0003967-.0048943.0006027-.0073404.0475159-.6056528.5770111-1.0581141,1.182663-1.010601.002449.0001917.0048904.000392.0073395.0006008.6056519.0475121,1.0581131.5770063,1.0106049,1.1826591-.0001907.0024481-.0003967.0048952-.0006027.0073414-.0475159.6056528-.5770111,1.0581141-1.182663,1.010601-.002449-.0001917-.0048904-.000392-.0073395-.0006018ZM76.9799957,21.6199989c.0400009-.0900002.0899963-.1700001.1399994-.2600002,1.0950089-1.6720753.6272049-3.9152374-1.0448761-5.0102463-.1112823-.072876-.2264938-.1395626-.3451233-.1997547-1.7799988-.8999996-3.9599991-.1899996-4.8600006,1.5900002-.5999985,1.1800003-.5,2.6000004.2600021,3.7000008.710144,1.4194679.710144,3.0905323,0,4.5100002-.0500031.1100006-.3300018.5-.3600006.5900002-.9000015,1.7800007-.1999969,3.960001,1.5800018,4.8600006s3.9599991.2000008,4.8600006-1.5799999c.5999985-1.1800003.5100021-2.5900002-.2399979-3.6800003-.7099991-1.4200001-.6999969-3.0900002,0-4.5100002l.0099945-.0100002ZM75.0299988,28.7299995c-.2699966.5499992-.9400024.7600002-1.4800034.4899998s-.7600021-.9400005-.4899979-1.4799995.9300003-.7600002,1.4800034-.4899998.7699966.9400005.5,1.4899998l-.0100021-.0100002ZM75.0299988,19.8699989c-.2699966.5499992-.9400024.7700005-1.4800034.5s-.7699966-.9400005-.5-1.4799995c.2706223-.5467625.9332352-.7706223,1.4800034-.5000019.5467606.2706184.7706223.933239.5,1.4800014ZM73.3300018,35.1800003c-.1399994-1.9900017-1.8600006-3.5-3.8499985-3.3600006-1.3099976.0900002-2.4700012.8899994-3.0299988,2.0800018-.8654785,1.3314629-2.3058243,2.1793785-3.8899994,2.2900009-.1199989,0-.5900002-.0200005-.6800003,0-1.9900017.1399994-3.5,1.8600006-3.3600006,3.8499985s1.8600006,3.5,3.8499985,3.3600006c1.3100014-.0900002,2.4599991-.8800011,3.0199966-2.0600014.8634338-1.3320961,2.3058548-2.1775284,3.8899994-2.2799988h.6999969c1.9899979-.1300011,3.5-1.8600006,3.3600006-3.8400002v-.0299988l-.0099945-.0100021ZM62.1500015,40.9700012c-.6100006.0400009-1.1300011-.4199982-1.1699982-1.0299988-.0400009-.6100006.4199982-1.1300011,1.0299988-1.1699982.6100006-.0400009,1.1300011.4199982,1.1699982,1.0299988.0400009.6100006-.4199982,1.1399994-1.0299988,1.1800003v-.0100021ZM69.7799988,36.4800034c-.6100006.0400009-1.1299973-.4199982-1.1699982-1.0299988s.4199982-1.1300011,1.0299988-1.1699982c.6100006-.0400009,1.1299973.4199982,1.1699982,1.0299988s-.4199982,1.1399994-1.0199966,1.1800003l-.0100021-.0100021ZM56.8400002,6.9299998c-.1639595-1.9904552-1.9093704-3.4718163-3.9000015-3.3099999-1.2960739.1042919-2.4351883.8993793-2.9799995,2.0799999-.8473778,1.3417802-2.2779541,2.2053151-3.8600006,2.3299999h-.7000008c-1.9877777.1980057-3.4386711,1.9699326-3.2406654,3.9577093.192318,1.9306917,1.8737373,3.3657331,3.8106651,3.2522907,1.3079262-.1011209,2.4573097-.9056892,3-2.1000004.8473778-1.3417797,2.2779541-2.2053146,3.8600006-2.3299999h.6899986c1.9900017-.1599998,3.4799995-1.8999996,3.3300018-3.8900003l-.0099983.0100007ZM45.7900009,12.8099995c-.60532.0515661-1.1378326-.3973417-1.1893997-1.0026627-.000206-.0024452-.0004082-.0048914-.0005989-.0073376-.0515671-.6053209.3973389-1.1378336,1.0026588-1.1893997.0024452-.0002089.0048943-.0004091.0073395-.0006008.60532-.0515661,1.1378326.3973417,1.1893997,1.0026627.000206.0024452.0004082.0048914.0005989.0073376.0515671.6053209-.3973389,1.1378336-1.0026588,1.1893997-.0024452.0002089-.0048943.0004091-.0073395.0006008ZM53.3600006,8.2299995c-.6102753.0469437-1.143055-.4097261-1.1899986-1.0200009s.4097252-1.1430554,1.0200005-1.1899991c.6100006-.0500002,1.1399994.4099998,1.1899986,1.0100002.0515671.6053209-.3973389,1.1378326-1.0026627,1.1893997-.0024452.0002079-.0048904.0004082-.0073357.0005999l-.0100021.0100002ZM44.7099991,26.539999c-.0499992-.0900002-.3100014-.4799995-.3600006-.5900002-.710144-1.4194679-.710144-3.0905323,0-4.5100002,1.1300011-1.6399994.7200012-3.8999996-.9300003-5.0300007-1.642025-1.1347237-3.8930244-.7234735-5.0277481.9185524-.8350258,1.2083416-.8556786,2.8018684-.0522537,4.0314465.0499992.0900002.0999985.1700001.1399994.2600002.710144,1.4194679.710144,3.0905323,0,4.5100002-1.1199989,1.6499996-.6899986,3.8999996.9700012,5.0200005,1.6599998,1.1199989,3.9000015.6900005,5.0200005-.9699993.7299995-1.0900002.8199997-2.4799995.2400017-3.6499996v.0100002ZM40.9199982,18.3999977c.5499992-.2700005,1.2099991-.0499992,1.4799995.4899998s.0499992,1.210001-.4900017,1.4799995c-.5499992.2700005-1.2099991.0499992-1.4799995-.4899998-.2700005-.5499992-.0499992-1.2099991.4900017-1.4799995ZM41.9099998,29.2299976c-.5499992.2700005-1.2099991.0499992-1.4799995-.4899998-.2739677-.5422306-.0564957-1.2038898.4857368-1.4778557.0014191-.0007191.0028419-.0014324.0042648-.0021439.5499992-.2700005,1.2099991-.0499992,1.4799995.4899998.2700005.5499992.0499992,1.210001-.4900017,1.4799995ZM53.5900002,36.1799965c-.0999985,0-.5699997.0200005-.6899986,0-1.5834122-.1130676-3.0227509-.960392-3.8899994-2.2900009-.8472214-1.8047867-2.9970932-2.5810452-4.8018799-1.7338257-.0027084.0012741-.0054169.0025482-.0081215.0038261-1.8100014.8499985-2.579998,3-1.7299995,4.8100014.5619583,1.182209,1.7146759,1.9723167,3.0200005,2.0699997h.7000008c1.5800018.1100006,3.0200005.9500008,3.8899994,2.2799988.8499985,1.8100014,3,2.5900002,4.8100014,1.7400017,1.8081818-.8451805,2.5888481-2.996151,1.7436676-4.8043327-.5575752-1.1928825-1.7198219-1.988102-3.0336685-2.0756683h-.0100021ZM45.6800003,36.5099983c-.6090813-.0589752-1.0550308-.6005478-.9960556-1.2096291.056591-.5844574.5593147-1.0232735,1.1460571-1.00037.6100006.0400009,1.0699997.5699997,1.0299988,1.1699982-.0499992.6100006-.5800018,1.0600014-1.1800003,1.0099983v.0300026ZM53.3100014,41c-.6090813-.0589752-1.0550308-.6005478-.9960556-1.2096291.056591-.5844574.5593147-1.0232735,1.1460571-1.00037.6100006.0400009,1.0699997.5699997,1.0299988,1.1699982-.0499992.6100006-.5800018,1.0600014-1.1800003,1.0099983v.0300026Z"/>
</svg>