<?xml version="1.0" encoding="UTF-8"?>
<svg id="Warstwa_1" xmlns="http://www.w3.org/2000/svg" version="1.1" viewBox="0 0 241.6906475 90">
  <!-- Generator: Adobe Illustrator 29.0.1, SVG Export Plug-In . SVG Version: 2.1.0 Build 192)  -->
  <defs>
    <style>
      .st0 {
        fill: #fff;
      }

      .st1 {
        isolation: isolate;
      }
    </style>
  </defs>
  <g class="st1">
    <g id="Warstwa_11" data-name="Warstwa_1">
      <g id="Logo">
        <g>
          <path class="st0" d="M58.6902467,25.5384071c.5885515,0,1.1129087.0893444,1.5474904.2556755.3196488.1023579.4987723.2812641.4987723.5627419,0,.1021405-.0255922.230087-.114933.4857588-.1023542.3326586-.2558929.4859762-.5885478.4859762-.0767693,0-.1791236-.0255886-.2684716-.0511771-.3196488-.114933-.6523036-.1789062-.9975409-.1789062-1.201822,0-1.7903698.549732-1.7903698,2.7109277,0,2.1228109.575538,2.7109277,1.777791,2.7109277.4857625,0,.8695945-.0893444,1.2404203-.2428794.1279465-.0511771.2303007-.0639732.3322275-.0639732.268899,0,.4094242.1663311.5117858.4347991l.0511771.1407389c.0511771.1533176.0637558.230087.0637558.3324412,0,.2556755-.1917023.4347991-.511351.575538-.4861936.230087-1.1124776.3836183-1.7522025.3836183-2.097005,0-3.6444954-.8951867-3.6444954-4.2712141,0-3.2864656,1.777791-4.2709967,3.6444917-4.2709931Z"/>
          <path class="st0" d="M62.424956,26.3821957c0-.422003.281043-.703267.7030533-.703267h4.1051041c.4475952,0,.6392975.2430968.6392975.6906883v.1917023c0,.422003-.1917023.6648824-.6392975.6648824h-2.8004894c-.0767693,0-.1405252.0511771-.1405252.1407389v1.4832997c0,.0895618.0637558.1407389.1405252.1407389h1.6368348c.4475952,0,.6392975.2428794.6392975.6776785v.1791236c0,.4347991-.1917023.6648824-.6392975.6648824h-1.6368348c-.0767693,0-.1405252.0639732-.1405252.1407389v1.6112462c0,.0767657.0637558.1279465.1405252.1279465h2.979613c.4345817,0,.6392975.2428794.6392975.703267v.1791236c0,.4347991-.2047158.6648824-.6392975.6648824h-4.2842276c-.422003,0-.7030533-.2812641-.7030533-.703267,0,0,0-6.8544127,0-6.8544053Z"/>
          <path class="st0" d="M69.540033,26.4077842c0-.4601703.2684716-.7288556.7286382-.7288556h.2047158c.4606013,0,.8440059.1919197,1.1124776.6011265l2.6473855,4.1304716c.0511771.076552.0767693.1277291.1275117.1277291.0385984,0,.0385984-.0383847.0385984-.1021405v-4.0539233c0-.5113474.2684716-.7288556.7672366-.7288556h.1917023c.4987723,0,.7672366.2175082.7672366.7288556v6.8416166c0,.4603876-.2554581.7160632-.7160595.7160632h-.1917023c-.5625282,0-.8440059-.2172909-1.0868853-.5883341l-2.7111414-4.2198196c-.0511771-.0895618-.0893481-.1407389-.1279465-.1407389-.0255922,0-.0255922.0511771-.0255922.1151503v4.1304716c0,.5113474-.281043.7288556-.7672366.7288556h-.1917023c-.4987723,0-.7672366-.2175082-.7672366-.7288556,0,0,0-6.8288242,0-6.8288168Z"/>
          <path class="st0" d="M79.6138985,27.3797403c0-.0767657-.0641906-.1407389-.1405252-.1407389h-1.3557917c-.4345817,0-.6392975-.2428794-.6392975-.7160632v-.1789062c0-.4347991.2047158-.6650998.6392975-.6650998h4.8979329c.4345817,0,.6392975.2430968.6392975.7160632v.1791236c0,.4347991-.2047158.6648824-.6392975.6648824h-1.3939553c-.0767693,0-.1405252.0639732-.1405252.1407389v5.7928986c0,.5499494-.2944913.7928288-.8314272.7928288h-.2172872c-.5243572,0-.8184211-.2428794-.8184211-.7928288v-5.7928986Z"/>
          <path class="st0" d="M85.0001914,26.3821957c0-.422003.2814778-.703267.7030533-.703267h2.2509748c1.9178851,0,2.8386604.9335677,2.8386604,2.6727604,0,1.0868853-.3964181,1.8413332-1.1636547,2.2633361-.0381636.0255886-.0767693.0383847-.0767693.0895618,0,.0255886.0130135.0511771.0385984.1023579l1.4446977,2.3784865c.0641906.1023579.1023542.2044947.1023542.3196488,0,.2556755-.1786888.4603876-.5369359.4603876h-.6778959c-.4475952,0-.6648824-.2428794-.8695982-.6139226l-1.240424-2.2249515c-.0381636-.0639732-.0893481-.1151503-.1917023-.1151503-.0511771,0-.2047158.0127961-.2558929.0127961h-.3708259c-.0893481,0-.1405252.0511771-.1405252.1407389v2.0076606c0,.5499494-.2940565.7928288-.8309924.7928288h-.1921371c-.5369359,0-.8309924-.2428794-.8309924-.7928288,0,0,0-6.7904395.0000074-6.7904432ZM87.5447879,29.4897551c.8440059,0,1.3301995-.1791236,1.3301995-1.1380661,0-.9335677-.4861936-1.1382835-1.3301995-1.1382835h-.5499494c-.0893481,0-.1405252.0511771-.1405252.1407389v1.9948682c0,.0895618.0511771.1407389.1405252.1407389,0,0,.5499494,0,.5499494.0000037Z"/>
          <path class="st0" d="M92.5476763,26.4461689c0-.549732.2944913-.7928288.8314272-.7928288h.2172872c.5373707,0,.8314272.2430968.8314272.7928288v4.2456256c0,1.5344805.3834046,1.8285371,1.355357,1.8285371.9589389,0,1.3297647-.3068526,1.3297647-1.8413332v-4.2328295c0-.549732.2944913-.7928288.8314272-.7928288h.2172872c.5369359,0,.8314272.2430968.8314272.7928288v4.4245318c0,2.5448139-1.4837382,3.2099173-3.2099137,3.2099173-1.8541293,0-3.2355059-.5115647-3.2355059-3.1843251,0,0,0-4.4501203.0000147-4.450124Z"/>
          <path class="st0" d="M101.0189798,26.4333765c0-.4857588.2814778-.7800327.7416517-.7800327h1.1510759c.3578124,0,.6904746.153535.8565847.6011265l1.4963096,3.951348c.0381636.0767657.0511771.0895618.076762.0895618.038171,0,.0507497-.0127961.0763346-.0895618l1.5219018-3.9641441c.1535313-.4092105.4731801-.5627419.8314272-.5627419h1.0868853c.4345817,0,.7030533.2686853.7030533.7288556v6.8032356c0,.5243609-.281043.7544442-.7798153.7544442h-.2047158c-.511351,0-.7928288-.230087-.7928288-.7544442v-4.9233004c0-.0511771-.0125787-.0767657-.0381636-.0767657s-.0385984.0127961-.0641906.0767657l-1.6112499,4.0792945c-.0893481.2428794-.2558929.4092105-.5369359.4092105h-.4606013c-.2940565,0-.4731801-.153535-.5751069-.422003l-1.6112499-4.0664983c-.0255922-.0511771-.0385984-.0767657-.0641906-.0767657s-.0381636.0255886-.0381636.0767657v4.9233004c0,.5243609-.2814778.7544442-.7802501.7544442h-.2047158c-.4983375,0-.7798153-.230087-.7798153-.7544442,0,0,0-6.7776434.0000074-6.7776507Z"/>
          <path class="st0" d="M114.7815835,26.3821957c0-.422003.2814778-.703267.7030533-.703267h2.3789212c1.662427,0,2.4808407.7672403,2.4808407,2.1483995,0,.8312135-.4731801,1.4193302-.9463601,1.6496309-.0511771.0255886-.0641906.0383847-.0641906.0639732s.0130135.0511771.0641906.0639732c.6774611.230087,1.317186.7544442,1.317186,1.9436874,0,1.5728615-.9081965,2.3912826-2.6599642,2.3912826h-2.5706235c-.4215682,0-.7030533-.2812641-.7030533-.703267v-6.8544127ZM117.4797187,29.0293675c.6137053,0,.9719524-.2428794.9719524-.9207753,0-.6776785-.3582471-.8951867-.9719524-.8951867h-.7034807c-.0893481,0-.1405252.0511771-.1405252.1407389v1.5344805c0,.0767657.0511771.1407389.1405252.1407389,0,0,.7034807,0,.7034807.0000037ZM116.7762306,32.4053986h.895183c.7160595,0,1.1124776-.1791236,1.1124776-.9591563,0-.7672403-.3964181-.9719524-1.1124776-.9719524h-.895183c-.0893481,0-.1405252.0639732-.1405252.1407389v1.6496309c0,.0895618.0511771.1407389.1405252.1407389Z"/>
          <path class="st0" d="M121.782155,33.0830734l2.1611993-6.7646336c.1275117-.422003.4089895-.6906883.9459327-.6906883h.7546652c.549942,0,.8184211.2686853.9589463.6906883l2.1355997,6.739045c.0511845.1407389.0767693.268468.0767693.3708259,0,.2942739-.1916949.5371533-.549942.5371533h-.6392975c-.4475878,0-.6392975-.2428794-.7672366-.6776785l-.2814778-.9207753c-.0255849-.1023579-.0893407-.1407389-.1916949-.1407389h-2.3784791c-.1023542,0-.1661101.0383847-.1916949.1407389l-.2940639.9589426c-.1279391.422003-.3070626.6395112-.7164942.6395112h-.5750995c-.3452336,0-.5243572-.2047121-.5243572-.5115647,0-.1023579.038171-.230087.0767693-.3708259h-.0000442ZM125.9510149,30.717383c.0763272,0,.1149403-.0255886.1149403-.1023579,0-.0383847-.0130135-.1151503-.0637558-.268468l-.7420791-2.4936368c-.0255849-.0767657-.0255849-.1023579-.0637558-.1023579-.0255849,0-.038171.0255886-.0637558.1023579l-.7420791,2.4936368c-.0507423.1533176-.0637558.230087-.0637558.268468,0,.0767657.0385984.1023579.1149403.1023579,0,0,1.5093304,0,1.509301,0Z"/>
          <path class="st0" d="M130.2547554,26.3821957c0-.422003.2814778-.703267.7030533-.703267h2.046259c1.9053064,0,3.682659.8440059,3.682659,4.1304716,0,3.2736732-1.7773526,4.1304716-3.682659,4.1304716h-2.046259c-.4215756,0-.7030533-.2812641-.7030533-.703267,0,0,0-6.8544127,0-6.854409ZM132.2749874,32.3926025h.3964181c1.2660089,0,2.08443-.3068526,2.08443-2.5831986,0-2.2889247-.8184211-2.5831986-2.08443-2.5831986h-.3964181c-.0893407,0-.1530966.0383847-.1530966.1279465v4.8977118c0,.1023579.0637558.1407389.1530966.1407389Z"/>
          <path class="st0" d="M137.612277,33.0830734l2.1611993-6.7646336c.1275117-.422003.4089895-.6906883.9459327-.6906883h.7546652c.549942,0,.8184211.2686853.9589463.6906883l2.1355997,6.739045c.0511845.1407389.0767693.268468.0767693.3708259,0,.2942739-.1916949.5371533-.549942.5371533h-.6392975c-.4475878,0-.6392975-.2428794-.7672366-.6776785l-.2814778-.9207753c-.0255849-.1023579-.0893407-.1407389-.1916949-.1407389h-2.3784791c-.1023542,0-.1661101.0383847-.1916949.1407389l-.2940639.9589426c-.1279391.422003-.3070626.6395112-.7164942.6395112h-.5750995c-.3452336,0-.5243572-.2047121-.5243572-.5115647,0-.1023579.038171-.230087.0767693-.3708259h-.0000442ZM141.7811369,30.717383c.0767693,0,.1149403-.0255886.1149403-.1023579,0-.0383847-.0130135-.1151503-.0637558-.268468l-.7420791-2.4936368c-.0255849-.0767657-.0255849-.1023579-.0637558-.1023579-.0255849,0-.038171.0255886-.0637558.1023579l-.7416517,2.4936368c-.0511845.1533176-.0641832.230087-.0641832.268468,0,.0767657.0385984.1023579.1149403.1023579,0,0,1.5093304,0,1.509301,0Z"/>
          <path class="st0" d="M146.0844353,26.4077842c0-.4601703.2684643-.7288556.7286382-.7288556h.2047084c.4606013,0,.8440059.1919197,1.1124702.6011265l2.6473855,4.1304716c.0511845.076552.0767693.1277291.1275117.1277291.0385984,0,.0385984-.0383847.0385984-.1021405v-4.0539233c0-.5113474.2684643-.7288556.7672366-.7288556h.1916949c.4987723,0,.7672366.2175082.7672366.7288556v6.8416166c0,.4603876-.2554508.7160632-.7160668.7160632h-.1916949c-.5625282,0-.8440059-.2172909-1.0868853-.5883341l-2.7111414-4.2198196c-.0511845-.0895618-.0893407-.1407389-.1279391-.1407389-.0255996,0-.0255996.0511771-.0255996.1151503v4.1304716c0,.5113474-.2810356.7288556-.7672366.7288556h-.1916949c-.4987723,0-.7672366-.2175082-.7672366-.7288556,0,0,0-6.8288242.0000147-6.8288168ZM148.1688653,24.668809v-.1279465c0-.3324412.1023542-.4987723.4089895-.6265014l2.3403229-1.0231295c.1149403-.0639732.2047084-.1023579.2940639-.1023579.2047084,0,.3326623.1663311.3326623.4603876v.2556755c0,.3966318-.1023542.6523073-.5117858.7802501l-2.1226009.6648824c-.1661101.0511771-.2940639.1023579-.4350165.1023579-.1916949,0-.3066352-.1407389-.3066352-.3836183Z"/>
          <path class="st0" d="M157.3020152,33.1470466c0-.3068526.1149403-.6011265.3066352-.9079792l2.9540208-4.8337386c.0511845-.0767657.0511845-.1023579.0511845-.1279465,0-.0383847-.0255849-.0511771-.0893407-.0511771h-2.5450313c-.4345743,0-.6392975-.2428794-.6392975-.6904709v-.2044947c0-.422003.2047084-.6523073.6392975-.6523073h4.4373242c.383832,0,.6267114.2430968.6267114.6267151v.1789062c0,.3708259-.1279391.7034844-.3326623,1.0231295l-2.9666069,4.7057958c-.0511845.0767657-.0511845.1023579-.0511845.1279465s.0255849.0511771.0897828.0511771h2.7874833c.4350165,0,.6392975.2428794.6392975.6904709v.2047121c0,.422003-.204281.6520899-.6392975.6520899h-4.6802036c-.3582471,0-.588113-.2428794-.588113-.6139226v-.1789062ZM159.3990165,23.9653282c0-.6648824.383832-.8949693.8565773-.8949693.4861862,0,.8951904.230087.8951904.8949693,0,.6523073-.4089895.8695945-.8951904.8695945-.4727453,0-.8565773-.2172909-.8565773-.8695945Z"/>
          <path class="st0" d="M166.5756755,30.8962892c0-.0893444-.0255849-.1917023-.0767693-.268468l-2.2249551-4.1304716c-.0511845-.1023579-.0897828-.2172909-.0897828-.3196488,0-.2940565.2177219-.5371533.5755417-.5371533h.6267114c.4731874,0,.6136979.2686853.8184211.6778959l1.2529954,2.4296636c.0511845.1021405.0767693.1405215.1023542.1405215s.0511845-.0383847.1023542-.1405215l1.240424-2.4680483c.1916949-.3708259.3196488-.6395112.7802501-.6395112h.6136979c.3322201,0,.549942.2303007.549942.5115647,0,.1023579-.0385984.2047121-.0897828.3068526l-2.2375265,4.1688562c-.0511845.0895618-.0767693.1919197-.0767693.2812641v2.2635535c0,.5499494-.2940639.7928288-.8184211.7928288h-.2177219c-.5369433,0-.8309924-.2428794-.8309924-.7928288,0,0,0-2.276346.0000295-2.2763496Z"/>
          <path class="st0" d="M172.2356499,26.3821957c0-.422003.2814778-.703267.7030533-.703267h2.046259c1.9053064,0,3.682659.8440059,3.682659,4.1304716,0,3.2736732-1.7773526,4.1304716-3.682659,4.1304716h-2.046259c-.4215756,0-.7030533-.2812641-.7030533-.703267,0,0,0-6.8544127,0-6.854409ZM174.2558819,32.3926025h.3964181c1.2660089,0,2.08443-.3068526,2.08443-2.5831986,0-2.2889247-.8184211-2.5831986-2.08443-2.5831986h-.3964181c-.0893407,0-.1530966.0383847-.1530966.1279465v4.8977118c0,.1023579.0637558.1407389.1530966.1407389Z"/>
          <path class="st0" d="M180.0520338,29.8094039c0-3.1969038,1.6368421-4.2709967,3.4658066-4.2709967,1.9820757,0,3.4779505.9589426,3.4779505,4.2709967,0,3.1969038-1.6494135,4.2712141-3.4779505,4.2712141-1.9820757,0-3.4658066-.9591563-3.4658066-4.2712141ZM185.0648996,29.8094039c0-2.2889247-.5113437-2.7365162-1.5470593-2.7365162-1.074314,0-1.5349153.4475915-1.5349153,2.7365162,0,2.2891421.4987723,2.7365162,1.5349153,2.7365162,1.0738718,0,1.5470593-.4473741,1.5470593-2.7365162Z"/>
          <path class="st0" d="M188.0605548,26.4973497c-.038171-.1151503-.0511845-.2044947-.0511845-.3068526,0-.3068526.1661101-.5499494.549942-.5499494h.6392975c.4475878,0,.652311.2558892.7546652.6778959l1.1892396,4.7569729c.0125714.0767657.038171.1279465.0767693.1279465.0255849,0,.038171-.0511771.0637558-.1279465l1.3553496-4.8593272c.0897828-.3196488.3452336-.5499494.6778959-.5499494h.6136979c.3326623,0,.61414.2303007.7034807.5499494l1.3683631,4.8593272c.0255849.0767657.0511845.1279465.0893407.1279465.0385984,0,.0511845-.0511771.0641832-.1279465l1.1892396-4.7697654c.1019268-.422003.3066352-.6650998.7542231-.6650998h.588113c.3712606,0,.5243572.2303007.5243572.5371533,0,.1023579-.0125714.1919197-.038171.3068526l-1.8671354,6.89258c-.1023542.3708259-.3578197.6267151-.8184211.6267151h-.7286382c-.4475878,0-.7290656-.2558892-.8314346-.6267151l-1.278595-4.5012974c-.0255849-.1021405-.0385984-.1533176-.0767693-.1533176-.0385984,0-.0511845.0511771-.0767693.1533176l-1.240424,4.526886c-.0897828.3452373-.3582471.6011265-.805835.6011265h-.6774537c-.4475878,0-.7290656-.2558892-.8184211-.6011265l-1.8927203-6.9053724.000059-.0000037Z"/>
          <path class="st0" d="M200.4365868,32.6354819c.1023542-.3196488.2684643-.4603876.549942-.4603876.0893407,0,.204281.0383847.3066352.0639732.422003.153535.9207753.3068526,1.4837308.3068526.6518689,0,1.1124702-.2172909,1.1124702-.7800327,0-.4985549-.2689064-.7160632-.7928215-.9205579l-.8826043-.3454547c-1.1380698-.4347991-1.8541219-1.1636547-1.8541219-2.4552521,0-1.6240423,1.2022531-2.5062155,2.736741-2.5062155.6648824,0,1.3171934.0637558,1.8411084.268468.3196488.1151503.4731874.3068526.4731874.5881167,0,.1023579,0,.2430968-.0893407.4859762-.1279391.3324412-.2814778.4859762-.5755417.4859762-.4089895,0-.8565773-.2940565-1.5470593-.2940565-.5885552,0-.9337888.230087-.9337888.7672403,0,.5115647.2814778.703267.8570194.9463638l1.0868853.4473741c1.0357156.422003,1.6749984,1.0615142,1.6749984,2.2251688,0,1.7263965-1.2148392,2.6215833-3.056375,2.6215833-.7672366,0-1.4577186-.1407389-1.9946471-.3708259-.3196488-.1279465-.4987723-.2942739-.4987723-.5883341,0-.1023579.0125714-.2172909.1023542-.4859762Z"/>
          <path class="st0" d="M207.4584102,26.4461689c0-.549732.2940639-.7928288.8309924-.7928288h.2047084c.5369433,0,.8314346.2430968.8314346.7928288v2.3912789c0,.0895618.0255849.1023579.0511845.1023579.038171,0,.0507423-.0127961.1149403-.0895618l2.2891384-2.6213659c.2810504-.3324412.5369433-.575538.9715176-.575538h.7290656c.3326623,0,.549942.1919197.549942.4475915,0,.153535-.0641832.2812641-.2047084.4347991l-2.4552484,2.7365162c-.038171.0383847-.0511845.0639732-.0511845.0895618s0,.0511771.0386131.1023579l2.5827601,3.7084686c.0641832.1023579.1153677.2172909.1153677.3324412,0,.2428794-.1791236.4603876-.6011265.4603876h-.7546652c-.4345743,0-.7030533-.2175082-.9459327-.5627419l-1.6754405-2.4936368c-.0511845-.076552-.0767693-.1021405-.1023542-.1021405s-.0511845.0127961-.1149403.0893444l-.4350165.4603876c-.0763272.0895618-.1019268.1407389-.1019268.2558892v1.5600691c0,.5499494-.2944913.7928288-.8314346.7928288h-.2047084c-.5369433,0-.8309924-.2428794-.8309924-.7928288,0,0,0-6.7264663.0000147-6.7264663Z"/>
          <path class="st0" d="M215.5024936,26.4461689c0-.549732.2940639-.7928288.8309924-.7928288h.2047084c.5369433,0,.8314346.2430968.8314346.7928288v6.7264663c0,.5499494-.2944913.7928288-.8314346.7928288h-.2047084c-.5369433,0-.8309924-.2428794-.8309924-.7928288v-6.7264663Z"/>
          <path class="st0" d="M222.7433505,25.5384071c.5885552,0,1.1129123.0893444,1.5474867.2556755.3196488.1023579.4987723.2812641.4987723.5627419,0,.1021405-.0255849.230087-.1149403.4857588-.1023542.3326586-.2558929.4859762-.5885552.4859762-.0767693,0-.1791236-.0255886-.2684643-.0511771-.3196488-.114933-.652311-.1789062-.9975446-.1789062-1.2018257,0-1.7903661.549732-1.7903661,2.7109277,0,2.1228109.5755417,2.7109277,1.7777947,2.7109277.4857588,0,.8695908-.0893444,1.240424-.2428794.1279391-.0511771.230308-.0639732.3322201-.0639732.2689064,0,.4094316.1663311.5117858.4347991l.0511845.1407389c.0511845.1533176.0637558.230087.0637558.3324412,0,.2556755-.1916949.4347991-.5113437.575538-.4861862.230087-1.1124702.3836183-1.7522098.3836183-2.0970013,0-3.6445027-.8951867-3.6445027-4.2712141,0-3.2864656,1.7777947-4.2709967,3.6445027-4.2709931Z"/>
          <path class="st0" d="M226.4780635,26.4461689c0-.549732.2940639-.7928288.8309924-.7928288h.2047084c.5369433,0,.8314346.2430968.8314346.7928288v2.3275231c0,.076552.0637558.1405215.1405252.1405215h2.3910652c.0767693,0,.1409526-.0639732.1409526-.1405215v-2.3275231c0-.549732.2940639-.7928288.8184211-.7928288h.2172945c.5369433,0,.8314346.2430968.8314346.7928288v6.7264663c0,.5499494-.2944913.7928288-.8314346.7928288h-.2172945c-.5243572,0-.8184211-.2428794-.8184211-.7928288v-2.55761c0-.0895618-.0641832-.1407389-.1409526-.1407389h-2.3910652c-.0767693,0-.1405252.0639732-.1405252.1407389v2.55761c0,.5499494-.2944913.7928288-.8314346.7928288h-.2047084c-.5369433,0-.8309924-.2428794-.8309924-.7928288v-6.7264663Z"/>
          <path class="st0" d="M55.9925463,41.1024414c0-.549732.2940565-.7928288.8309961-.7928288h.2047121c.5369359,0,.8314309.2430968.8314309.7928288v6.7264663c0,.5499494-.2944913.7928288-.8314309.7928288h-.2047121c-.5369359,0-.8309961-.2428794-.8309961-.7928288v-6.7264663Z"/>
          <path class="st0" d="M59.9562593,41.089649c0-.4857588.281043-.7800327.7416517-.7800327h1.1510759c.3578124,0,.6904746.153535.8565847.6011265l1.4963169,3.9515654c.0381636.0763346.0511771.0893444.0767693.0893444.0381636,0,.0511771-.0130098.0763346-.0893444l1.5219018-3.9643615c.1535313-.4092105.4731801-.5627419.8314272-.5627419h1.0868853c.4345817,0,.7030533.2686853.7030533.7288556v6.8030182c0,.5243572-.281043.7546652-.7798153.7546652h-.2047158c-.511351,0-.7928288-.2303007-.7928288-.7546652v-4.923083c0-.0511771-.0125787-.0767657-.0381636-.0767657s-.0385984.0127961-.0641906.0767657l-1.6112499,4.0790771c-.0893481.2433142-.2558929.4094242-.5369359.4094242h-.4606013c-.2940565,0-.4731801-.1535313-.5751069-.422003l-1.6112499-4.0664983c-.0255922-.0511771-.0385984-.0767657-.0641906-.0767657s-.0381636.0255886-.0381636.0767657v4.923083c0,.5243572-.2814778.7546652-.7802501.7546652h-.2047158c-.4987723,0-.7798153-.2303007-.7798153-.7546652,0,0,0-6.777426-.0000074-6.7774297Z"/>
          <path class="st0" d="M71.4557443,46.7164301c.5629629,0,1.0231295.2172872,1.0231295,1.010116,0,.8058423-.4601739,1.010116-1.0231295,1.010116-.5625282,0-1.010116-.204281-1.010116-1.010116,0-.7928288.4475952-1.010116,1.010116-1.010116Z"/>
          <path class="st0" d="M77.4422942,41.0384682c0-.4217856.2814778-.703267.7030533-.703267h3.9259805c.4475952,0,.6392975.2430968.6392975.6904709v.1919197c0,.422003-.1917023.6648824-.6392975.6648824h-2.6213659c-.0767693,0-.1405252.0511771-.1405252.1407389v1.7775773c0,.0895618.0637558.1405215.1405252.1405215h1.5344805c.4345817,0,.6392975.2430968.6392975.6776785v.1791236c0,.4350128-.2047158.6648861-.6392975.6648861h-1.5344805c-.0767693,0-.1405252.0641906-.1405252.14096v2.2249478c0,.5499494-.2944913.7928288-.8314272.7928288h-.2047158c-.5369359,0-.8309924-.2428794-.8309924-.7928288,0,0,0-6.7904395-.0000074-6.7904395Z"/>
          <path class="st0" d="M84.075518,41.1024414c0-.549732.2940565-.7928288.8309924-.7928288h.2047158c.5369359,0,.8314272.2430968.8314272.7928288v6.7264663c0,.5499494-.2944913.7928288-.8314272.7928288h-.2047158c-.5369359,0-.8309924-.2428794-.8309924-.7928288v-6.7264663Z"/>
          <path class="st0" d="M88.0392273,41.1024414c0-.549732.2940565-.7928288.8309924-.7928288h.2047158c.5369359,0,.8314272.2430968.8314272.7928288v5.7545139c0,.0767693.0637558.1535313.1405252.1535313h2.4552558c.4475952,0,.6648824.2428794.6648824.7034807v.1917023c0,.4601739-.2172872.6904746-.6648824.6904746h-3.7598705c-.4345743,0-.703046-.2814778-.703046-.7034807v-6.7902221Z"/>
          <path class="st0" d="M94.5622784,41.1024414c0-.549732.2940565-.7928288.8309924-.7928288h.2047158c.5369359,0,.8314272.2430968.8314272.7928288v6.7264663c0,.5499494-.2944913.7928288-.8314272.7928288h-.2047158c-.5369359,0-.8309924-.2428794-.8309924-.7928288v-6.7264663Z"/>
          <path class="st0" d="M98.5259877,41.0384682c0-.4217856.2814778-.703267.7030533-.703267h2.3021519c1.9178851,0,2.8260817.9463638,2.8260817,2.6855565,0,1.7517714-.9081965,2.7111414-2.8260817,2.7111414h-.9975446c-.0893481,0-.1535313.0507423-.1535313.1405252v1.9564835c0,.5499494-.2940565.7928288-.8184211.7928288h-.2047158c-.5369359,0-.8309924-.2428794-.8309924-.7928288v-6.7904395ZM101.1217687,44.1844123c.8440059,0,1.317186-.2047121,1.317186-1.1636547,0-.9335677-.4731801-1.1382835-1.317186-1.1382835h-.588113c-.0893481,0-.1535313.0511771-.1535313.1407389v2.0204567c0,.0895618.0641906.1407389.1535313.1407389,0,0,.588113,0,.588113.0000037Z"/>
          <path class="st0" d="M104.8356572,47.7395669l2.1611993-6.7648509c.1275117-.422003.4089895-.6906883.9459327-.6906883h.7546652c.5499494,0,.8184211.2686853.9589389.6906883l2.1356071,6.7392587c.0511771.1405252.0767693.2684716.0767693.3708259,0,.2940565-.1917023.5369359-.5499494.5369359h-.6392975c-.4475952,0-.6392975-.2428794-.7672366-.6778959l-.2814778-.9207753c-.0255922-.1019194-.0893481-.1405252-.1917023-.1405252h-2.3784865c-.1023542,0-.1661101.0385984-.1917023.1405252l-.2940565.9593736c-.1279465.422003-.30707.6392975-.7164942.6392975h-.5751069c-.3452336,0-.5243572-.2047158-.5243572-.511351,0-.1023542.0381636-.2303007.0767546-.3708185ZM109.0045171,45.3736592c.0767693,0,.114933-.0255922.114933-.1023542,0-.0381636-.0130135-.114933-.0637558-.2684716l-.7420865-2.4936368c-.0255922-.0767657-.0255922-.1023579-.0637558-.1023579-.0255922,0-.0381636.0255886-.0637558.1023579l-.7416517,2.4936368c-.0511771.1535313-.0641906.2303007-.0641906.2684716,0,.0767693.0385984.1023542.114933.1023542h1.5093304Z"/>
          <path class="st0" d="M116.3728784,41.0384682c0-.4217856.281043-.703267.7030533-.703267h3.9259731c.4475878,0,.6392975.2430968.6392975.6904709v.1919197c0,.422003-.1916949.6648824-.6392975.6648824h-2.6213659c-.0767693,0-.1405252.0511771-.1405252.1407389v1.7775773c0,.0895618.0637558.1405215.1405252.1405215h1.5344805c.4345817,0,.6392975.2430968.6392975.6776785v.1791236c0,.4350128-.2047158.6648861-.6392975.6648861h-1.5344805c-.0767693,0-.1405252.0641906-.1405252.14096v2.2249478c0,.5499494-.2944913.7928288-.8314272.7928288h-.2047158c-.5369359,0-.8309924-.2428794-.8309924-.7928288v-6.7904395Z"/>
          <path class="st0" d="M122.9930886,41.0384682c0-.4217856.2810504-.703267.7030533-.703267h2.2509674c1.9178778,0,2.838653.9335677,2.838653,2.6727604,0,1.0868853-.3964181,1.8413332-1.1636547,2.2633361-.038171.0255922-.0767693.0385984-.0767693.0893481,0,.0255922.0130135.0511771.0385984.1023542l1.4447051,2.3784865c.0641832.1023542.1023542.2047158.1023542.3200835,0,.2554581-.1786962.4601739-.5369433.4601739h-.6778959c-.4475878,0-.6648824-.2428794-.8695908-.6137053l-1.240424-2.2253825c-.038171-.0637558-.0893407-.114933-.1916949-.114933-.0511845,0-.2047084.0130135-.2558929.0130135h-.3708185c-.0893407,0-.1405252.0511771-.1405252.1405252v2.0076606c0,.5499494-.2940639.7928288-.8309924.7928288h-.1921371c-.5369433,0-.8309924-.2428794-.8309924-.7928288v-6.7904542ZM125.5376778,44.1460276c.8440059,0,1.3302069-.1791236,1.3302069-1.1380661,0-.9335677-.4862009-1.1382835-1.3302069-1.1382835h-.549942c-.0893407,0-.1405252.0511771-.1405252.1407389v1.9948645c0,.0895618.0511845.1407389.1405252.1407389,0,0,.549942,0,.549942.0000074Z"/>
          <path class="st0" d="M130.6980103,41.1024414c0-.549732.2940639-.7928288.8309924-.7928288h.2047084c.5369433,0,.8314346.2430968.8314346.7928288v6.7264663c0,.5499494-.2944913.7928288-.8314346.7928288h-.2047084c-.5369433,0-.8309924-.2428794-.8309924-.7928288v-6.7264663Z"/>
          <path class="st0" d="M134.6617197,41.0384682c0-.4217856.2810504-.703267.7030533-.703267h4.1051041c.4475878,0,.6392975.2430968.6392975.6904709v.1919197c0,.422003-.1916949.6648824-.6392975.6648824h-2.8004968c-.0767693,0-.1405252.0511771-.1405252.1407389v1.4832997c0,.0895618.0637558.1407389.1405252.1407389h1.6368421c.4475878,0,.6392975.2430968.6392975.6776785v.1791236c0,.4345817-.1916949.6648824-.6392975.6648824h-1.6368421c-.0767693,0-.1405252.0641906-.1405252.14096v1.6112499c0,.0763346.0637558.1275117.1405252.1275117h2.9796204c.4345743,0,.6392975.2433142.6392975.7034807v.1791236c0,.4345817-.2047084.6648824-.6392975.6648824h-4.2842276c-.422003,0-.7030533-.2814778-.7030533-.7034807v-6.8541953Z"/>
          <path class="st0" d="M141.7772314,41.0384682c0-.4217856.2810504-.703267.7030533-.703267h2.046259c1.9053064,0,3.682659.8440059,3.682659,4.1304716,0,3.2738869-1.7773526,4.1304716-3.682659,4.1304716h-2.046259c-.422003,0-.7030533-.2814778-.7030533-.7034807v-6.8541953ZM143.7974634,47.0486576h.3964181c1.2660089,0,2.08443-.3066352,2.08443-2.5829812,0-2.2889247-.8184211-2.5831986-2.08443-2.5831986h-.3964181c-.0893407,0-.1530966.0383847-.1530966.1279465v4.8977155c0,.1023542.0637558.1405252.1530966.1405178Z"/>
          <path class="st0" d="M149.9197635,41.089649c0-.4857588.2810504-.7800327.7416517-.7800327h1.1510833c.3578197,0,.6904672.153535.8565773.6011265l1.4963169,3.9515654c.038171.0763346.0511845.0893444.0767693.0893444.038171,0,.0511845-.0130098.0763272-.0893444l1.5219018-3.9643615c.1535387-.4092105.4731874-.5627419.8314346-.5627419h1.0868853c.4345743,0,.7030533.2686853.7030533.7288556v6.8030182c0,.5243572-.2810504.7546652-.7798227.7546652h-.2047084c-.5113437,0-.7928215-.2303007-.7928215-.7546652v-4.923083c0-.0511771-.0125714-.0767657-.038171-.0767657s-.0385984.0127961-.064198.0767657l-1.6112425,4.0790771c-.0893407.2433142-.2558929.4094242-.5369433.4094242h-.4606013c-.2940639,0-.4731874-.1535313-.5750995-.422003l-1.6112425-4.0664983c-.0255849-.0511771-.0385984-.0767657-.0641832-.0767657s-.038171.0255886-.038171.0767657v4.923083c0,.5243572-.2814778.7546652-.7802501.7546652h-.2047084c-.4987723,0-.7798227-.2303007-.7798227-.7546652,0,0,0-6.777426-.0000147-6.7774297Z"/>
          <path class="st0" d="M159.9606751,47.7395669l2.1611993-6.7648509c.1275117-.422003.4089895-.6906883.9459327-.6906883h.7546652c.549942,0,.8184211.2686853.9589463.6906883l2.1355997,6.7392587c.0511845.1405252.0767693.2684716.0767693.3708259,0,.2940565-.1916949.5369359-.549942.5369359h-.6392975c-.4475878,0-.6392975-.2428794-.7672366-.6778959l-.2814778-.9207753c-.0255849-.1019194-.0893407-.1405252-.1916949-.1405252h-2.3784791c-.1023542,0-.1661101.0385984-.1916949.1405252l-.2940639.9593736c-.1279391.422003-.3070626.6392975-.7164942.6392975h-.5750995c-.3452336,0-.5243572-.2047158-.5243572-.511351,0-.1023542.038171-.2303007.0767693-.3708259l-.0000442.0000074ZM164.129535,45.3736592c.0767693,0,.1149403-.0255922.1149403-.1023542,0-.0381636-.0130135-.114933-.0637558-.2684716l-.7420791-2.4936368c-.0255849-.0767657-.0255849-.1023579-.0637558-.1023579-.0255849,0-.038171.0255886-.0637558.1023579l-.7416517,2.4936368c-.0511845.1535313-.0641832.2303007-.0641832.2684716,0,.0767693.0385984.1023542.1149403.1023542,0,0,1.5093304,0,1.509301,0Z"/>
          <path class="st0" d="M168.4328481,41.0640567c0-.4601703.2684643-.7288556.7286382-.7288556h.2047084c.4606013,0,.8440059.1919197,1.1124702.6011265l2.6473855,4.1302542c.0511845.0767693.0767693.1279465.1275117.1279465.0385984,0,.0385984-.0381636.0385984-.1023542v-4.0537059c0-.5113474.268479-.7288556.7672513-.7288556h.1916949c.4987723,0,.7672366.2175082.7672366.7288556v6.8416166c0,.4601739-.2554508.7160595-.7160668.7160595h-.1916949c-.5625282,0-.8440059-.2172872-1.0868853-.588113l-2.7111414-4.220037c-.0511845-.0895618-.0893407-.1407389-.1279391-.1407389-.0255849,0-.0255849.0511771-.0255849.1151503v4.1302579c0,.5117858-.2810504.729073-.7672366.729073h-.1916949c-.4987723,0-.7672366-.2172872-.7672366-.729073,0,0,0-6.8286068-.0000147-6.8286068Z"/>
          <path class="st0" d="M176.5103274,47.7395669l2.1611993-6.7648509c.1275117-.422003.4089895-.6906883.9459327-.6906883h.7546652c.549942,0,.8184211.2686853.9589463.6906883l2.1355997,6.7392587c.0511845.1405252.0767693.2684716.0767693.3708259,0,.2940565-.1916949.5369359-.549942.5369359h-.6392975c-.4475878,0-.6392975-.2428794-.7672366-.6778959l-.2814778-.9207753c-.0255849-.1019194-.0893407-.1405252-.1916949-.1405252h-2.3784791c-.1023542,0-.1661101.0385984-.1916949.1405252l-.2940639.9593736c-.1279391.422003-.3070626.6392975-.7164942.6392975h-.5750995c-.3452336,0-.5243572-.2047158-.5243572-.511351,0-.1023542.038171-.2303007.0767693-.3708259l-.0000442.0000074ZM180.6791873,45.3736592c.0767693,0,.1149403-.0255922.1149403-.1023542,0-.0381636-.0130135-.114933-.0637558-.2684716l-.7420791-2.4936368c-.0255849-.0767657-.0255849-.1023579-.0637558-.1023579-.0255849,0-.038171.0255886-.0637558.1023579l-.7416517,2.4936368c-.0511845.1535313-.0641832.2303007-.0641832.2684716,0,.0767693.0385984.1023542.1149403.1023542,0,0,1.5093304,0,1.509301,0Z"/>
          <path class="st0" d="M56.0250763,57.950052c0-.2771449.1500642-.4042218.415931-.4042218h.0693931c.265432,0,.4154962.1270769.4154962.4042218v4.0994595c0,1.9053064.4966022,2.2631188,1.6858454,2.2631188,1.2009561,0,1.6862802-.4154962,1.6862802-2.3208026v-4.0417756c0-.2771449.1500679-.4042218.4154962-.4042218h.0693931c.2654357,0,.4154962.1270769.4154962.4042218v4.203118c0,2.2405625-.9121021,2.979613-2.5866693,2.979613-1.6975546,0-2.5866693-.6236828-2.5866693-2.8872289,0,0,0-4.2955021.0000074-4.2955021Z"/>
          <path class="st0" d="M63.1522973,59.7629744c0-.2311702.1270769-.3695216.3808034-.3695216h.0693931c.2311702,0,.3348287.1270769.3465379.3118377l.0347002.4966059c0,.0576839.0112744.0806675.0347002.0806675.0229836,0,.0576839-.0347002.0806675-.0806675.3348287-.5659989.8314272-.854853,1.4780936-.854853,1.2239398,0,1.7669477.612401,1.7669477,1.963425v3.3487072c0,.2654357-.1387861.3925126-.3929473.3925126h-.0689583c-.265863,0-.4042218-.1270769-.4042218-.3925126v-3.1179717c0-1.0274698-.19647-1.4780936-1.1202813-1.4780936-.600257,0-1.0621626.5083151-1.2933328,1.0972976-.0229836.0576839-.0459747.1383514-.0459747.1847608v3.3140069c0,.2654357-.1387861.3925126-.4042218.3925126h-.0576839c-.265863,0-.4042218-.1270769-.4042218-.3925126v-4.8962012Z"/>
          <path class="st0" d="M69.0828951,57.730591c0-.415931.219461-.5425731.5425731-.5425731.3118377,0,.5430079.1266422.5430079.5425731s-.2311702.5542897-.5430079.5542897c-.3231195,0-.5425731-.1383514-.5425731-.5542897ZM69.1865536,59.8206582c0-.2654357.1387861-.3925126.4042218-.3925126h.0576839c.265863,0,.4042218.1270769.4042218.3925126v4.83851c0,.2654357-.1383514.3925126-.4042218.3925126h-.0576839c-.2654357,0-.4042218-.1270769-.4042218-.3925126v-4.83851Z"/>
          <path class="st0" d="M71.4683231,59.7976746c-.0229836-.0811023-.0229836-.1040933-.0229836-.1500679,0-.1158025.0806675-.219461.2424446-.219461h.3001285c.1847608,0,.2771449.1036585.3235469.3001285l1.0851536,4.2612366c.0117092.0923841.0347002.1036585.0464094.1036585.0112744,0,.0229836-.0112744.0459747-.1036585l1.1549815-3.9723826c.0576839-.1617771.1383514-.2771449.3465379-.2771449h.2424446c.219461,0,.3001285.1153677.3465379.2771449l1.2005214,3.9606734c.0234184.0923841.0464094.1040933.0581186.1040933.0112744,0,.0229836-.0117092.0459747-.1040933l1.0625974-4.2495274c.0459747-.2077518.1266422-.3001285.3231195-.3001285h.2771449c.1617771,0,.2311702.1036585.2311702.2077518,0,.0464094-.0117092.1040933-.0234184.1500679l-1.2816236,4.9655869c-.0576839.19647-.1730516.3231195-.4272054.3231195h-.3465379c-.2541538,0-.3808034-.1266422-.438922-.3348287l-1.1315557-3.7642034c-.0229836-.0576839-.0347002-.0811023-.0459747-.0811023-.0234184,0-.0347002.0234184-.0576839.0811023l-1.0972976,3.7759126c-.0576839.19647-.1617771.3231195-.4154962.3231195h-.3465379c-.2424446,0-.3578124-.1266422-.415931-.3348287,0,0-1.2816236-4.9421685-1.2816384-4.9421685Z"/>
          <path class="st0" d="M82.0895367,59.3470434c1.328033,0,1.858897.9008203,1.858897,2.1711694,0,.1387861,0,.3348287-.0112744.5083151-.0117092.1613424-.1387861.3001285-.3118377.3001285h-2.9449201c-.0459747,0-.0806675.0229836-.0806675.0806675,0,1.3857169.4501964,1.9864087,1.6281615,1.9864087.5312987,0,.8891111-.19647,1.2009561-.4276402.0576839-.0342654.1270769-.0576839.1734863-.0576839.1036585,0,.1730516.0464094.2424446.1504953l.0229836.0342654c.0459747.0576839.0693931.1387861.0693931.1847608,0,.1158025-.0581186.1847608-.1617771.265863-.438922.3348287-.9467949.5889826-1.674571.5889826-1.7552385,0-2.3784865-1.2009561-2.3784865-2.8872289,0-1.7435293.8080088-2.8985107,2.367212-2.8985034ZM83.0480482,61.6570063c.0576839,0,.0919493-.0234184.0919493-.0811023v-.1730516c0-.8544182-.2884193-1.3744425-1.1198465-1.3744425-.7507597,0-1.2126653.438922-1.3510167,1.2590747-.0229836.1153677-.0464094.2537191-.0464094.3001285,0,.0459747.0347002.0693931.0811023.0693931h2.344221Z"/>
          <path class="st0" d="M85.5340913,59.7512652c0-.1960352.1383514-.3578124.3578124-.3578124h.1153677c.1847608,0,.3118377.1153677.3352635.3812308l.0342654.4961711c0,.0581186.0117092.0928115.0464094.0928115.0112744,0,.0229836,0,.0459747-.0464094.3348287-.6466664.8314272-.9702207,1.3974261-.9702207.3695216,0,.5312987.0811023.5312987.3118377,0,.0576839-.0117092.1617771-.0229836.2424446-.0234184.2541538-.1617771.3235469-.3352635.3235469-.0806675,0-.1730516-.0117092-.3001285-.0117092-.5772734,0-1.0044788.3465379-1.2933328,1.0279045-.0229836.0464094-.0459747.1153677-.0459747.1730516v3.2450486c0,.2654357-.1387861.3925126-.4042218.3925126h-.0576839c-.265863,0-.4042218-.1270769-.4042218-.3925126,0,0,0-4.907903-.0000074-4.9078957Z"/>
          <path class="st0" d="M89.3121777,64.3473305c.0459747-.1383514.1500679-.219461.2771449-.219461.0459747,0,.0923841.0117092.1383514.0229836.3465379.1270769.7854525.2775796,1.305042.2775796.6926411,0,1.0855884-.2775796,1.0855884-.8661274,0-.4619056-.2541538-.6583756-.8314272-.8431364l-.6006918-.19647c-.7737433-.2537191-1.3627259-.6809319-1.3627259-1.5587685,0-.9467949.6700848-1.6168871,1.8823154-1.6168871.3695216,0,.8661274.0811023,1.2243745.219461.1613424.0581186.2307354.1500679.2307354.2888541,0,.0459747-.0229836.1617771-.0576839.2424446-.0576839.1500679-.1153677.19647-.2541538.19647-.0923841,0-.1847608-.0464094-.3001285-.0811023-.2541538-.0806675-.5195895-.1613424-.8544182-.1613424-.5542897,0-1.0508882.1613424-1.0508882.8080088,0,.5659989.3461032.7390505,1.016188.9585041l.5542897.1847608c.7390505.2424446,1.2703492.635392,1.2703492,1.4434008,0,1.0855884-.7624689,1.6862802-1.9746995,1.6862802-.5659989,0-1.0855884-.1270769-1.4438355-.265863-.2424446-.0923841-.3001285-.1617771-.3001285-.3118377,0-.0347002.0117092-.1036585.0464021-.2077518Z"/>
          <path class="st0" d="M95.0914106,66.5067907c.2307354,0,.4272054-.1387861.5772734-.6236828l.1960352-.6119736c.0234184-.0806675.0347002-.1270769.0347002-.219461,0-.0459747-.0112744-.0806675-.0459747-.1617771l-1.9170156-4.9998523c-.0464094-.1153677-.0576839-.19647-.0576839-.2424446,0-.1040933.0923841-.219461.2541538-.219461h.3001285c.1960352,0,.2888541.1036585.3578124.3001285l1.4780936,3.9493989c.0229836.0693931.0347002.1036585.0576839.1036585.0234184,0,.0464094-.0342654.0581186-.1036585l1.1428375-3.9611081c.0464094-.1847608.1387861-.2884193.3465379-.2884193h.2654357c.1734863,0,.2541538.1036585.2541538.219461,0,.0347002,0,.0689583-.0229836.1383514l-1.8593317,6.0624497c-.2884193.9238113-.5425731,1.3627259-1.3622985,1.3627259-.1847608,0-.3812308-.0229836-.5659989-.0693931-.1617771-.0347002-.219461-.1153677-.219461-.2537191,0-.0347002,0-.1158025.0229836-.2081792.0347002-.1500679.1158025-.2307354.2541538-.2307354.1040933,0,.2541538.0576839.4506459.0576912Z"/>
          <path class="st0" d="M100.1649963,60.247871c0-.0689583-.0347002-.1036585-.1040933-.1036585h-.3695216c-.1383514,0-.2537191-.1040933-.2537191-.2888541v-.0576839c0-.1847608.1153677-.3001285.2654357-.3348287l.3812308-.0811023c.0806675-.0112744.1153677-.0576839.1266422-.1266422l.1387861-.7854525c.0576839-.1847608.1730516-.3001285.3695216-.3001285h.0459747c.1847608,0,.2888541.1036585.2888541.2771449v.9003929c0,.0693931.0347002.1040933.0923841.1040933h1.1779651c.219461,0,.3118377.1153677.3118377.3235469v.0576839c0,.2077518-.0923841.3118377-.3118377.3118377h-1.1896743c-.0689583,0-.1036585.0459747-.1036585.1036585v3.4298094c0,.6119736.2884193.7273413.7160595.7273413.1847608,0,.3461032-.0576839.4731801-.1500679.0811023-.0576839.1500679-.1040933.2311702-.1040933.1036585,0,.1847608.0693931.2307354.1734863.0347002.0923841.0464094.1383514.0464094.2077518,0,.1153677-.0576839.19647-.1734863.265863-.3001285.2190262-.7043503.3348287-1.1315631.3348287-.7620341,0-1.25864-.415931-1.25864-1.2126653,0,0,0-3.6722541.0000074-3.6722614Z"/>
          <path class="st0" d="M105.9824002,59.3470434c1.3275983,0,1.858897.9008203,1.858897,2.1711694,0,.1387861,0,.3348287-.0112744.5083151-.0117092.1613424-.1387861.3001285-.3118377.3001285h-2.9449201c-.0459747,0-.0806675.0229836-.0806675.0806675,0,1.3857169.4501964,1.9864087,1.6281615,1.9864087.5312987,0,.8891111-.19647,1.2009561-.4276402.0576839-.0342654.1270769-.0576839.1730516-.0576839.1040933,0,.1734863.0464094.2428794.1504953l.0229836.0342654c.0459747.0576839.0693931.1387861.0693931.1847608,0,.1158025-.0576839.1847608-.1617771.265863-.438922.3348287-.9467949.5889826-1.674571.5889826-1.7552385,0-2.3789212-1.2009561-2.3789212-2.8872289,0-1.7435293.8084436-2.8985107,2.3676468-2.8985034ZM106.9404695,61.6570063c.0581186,0,.0928115-.0234184.0928115-.0811023v-.1730516c0-.8544182-.2888541-1.3744425-1.1202813-1.3744425-.7507597,0-1.2126653.438922-1.3510167,1.2590747-.0234184.1153677-.0464094.2537191-.0464094.3001285,0,.0459747.0347002.0693931.0811023.0693931h2.3437936Z"/>
          <path class="st0" d="M109.5943618,60.247871c0-.0689583-.0347002-.1036585-.1040933-.1036585h-.3695216c-.1383514,0-.2537191-.1040933-.2537191-.2888541v-.0576839c0-.1847608.1153677-.3001285.2654357-.3348287l.3812308-.0811023c.0806675-.0112744.1153677-.0576839.1270769-.1266422l.1383514-.7854525c.0576839-.1847608.1730516-.3001285.3695216-.3001285h.0464094c.1847608,0,.2884193.1036585.2884193.2771449v.9003929c0,.0693931.0347002.1040933.0923841.1040933h1.1779651c.219461,0,.3118377.1153677.3118377.3235469v.0576839c0,.2077518-.0923841.3118377-.3118377.3118377h-1.1892396c-.0693931,0-.1040933.0459747-.1040933.1036585v3.4298094c0,.6119736.2888541.7273413.7160595.7273413.1847608,0,.3461032-.0576839.4731801-.1500679.0811023-.0576839.1500679-.1040933.2311702-.1040933.1036585,0,.1847608.0693931.2307354.1734863.0347002.0923841.0464094.1383514.0464094.2077518,0,.1153677-.0576839.19647-.1734863.265863-.3001285.2190262-.7043503.3348287-1.1315631.3348287-.7620341,0-1.25864-.415931-1.25864-1.2126653,0,0,0-3.6722541.0000074-3.6722614Z"/>
          <path class="st0" d="M116.6725721,61.9801185c0-.0464094-.0117092-.0806675-.0464094-.0806675-.0229836,0-.0576839.0112744-.0919493.0459747l-.3465379.2311702c-.1040933.0576839-.1500679.0806675-.2424446.0806675-.1500679,0-.2771449-.2424446-.2771449-.3925126,0-.0923841.0459747-.1734863.1500679-.2311702l.8080088-.5308639c.0464094-.0234184.0464094-.0464094.0464094-.1040933v-3.0485713c0-.2771449.1500679-.4042218.415931-.4042218h.0806675c.2654357,0,.4154962.1270769.4154962.4042218v2.3901957c0,.0464094,0,.0811023.0347002.0923841.0347002,0,.0576839-.0229836.0923841-.0459747l.635392-.438922c.0689583-.0464094.1153677-.0693931.1730516-.0693931.1847608,0,.3348287.219461.3348287.415931,0,.0923841-.0459747.1500679-.1383514.2077518l-1.0855884.7160595c-.0347002.0229836-.0464094.0576839-.0464094.1270769v2.7827082c0,.0576839.0347002.0923841.1040933.0923841h2.783143c.2424446,0,.3461032.1387861.3461032.3695216v.0693931c0,.2424446-.1036585.3695216-.3461032.3695216h-3.4415186c-.2077518,0-.3578124-.1500679-.3578124-.3578124,0,0,0-2.6907589-.0000074-2.6907589Z"/>
          <path class="st0" d="M124.0457085,59.3470434c1.3046073,0,2.3555028.6700848,2.3555028,2.8985107,0,2.1941605-1.2009561,2.8872289-2.3555028,2.8872289-1.3167512,0-2.3676468-.6583756-2.3676468-2.8872289,0-2.2054349,1.2013835-2.8985107,2.3676468-2.8985107ZM125.500391,62.2455541c0-1.6164523-.4848893-2.1824513-1.4546826-2.1824513-.9814951,0-1.4668265.5659989-1.4668265,2.1824513,0,1.6051779.4853314,2.1828786,1.4668265,2.1828786.9697786,0,1.4546826-.5777081,1.4546826-2.1828786ZM122.9024362,58.319581v-.0576839c0-.1734863.0459673-.2424446.2307354-.3465379l1.697562-.8891111c.0694004-.0347002.1270843-.0576839.1730516-.0576839.1270843,0,.219461.1153677.219461.2884193v.1158025c0,.219461-.0689583.3695216-.3114103.4619056l-1.6398781.6349572c-.0811023.0347002-.1500606.0576839-.2077444.0576839-.1040933,0-.1617771-.0806675-.1617771-.2077518Z"/>
          <path class="st0" d="M127.6030222,62.2919635c0-1.9864087.8314346-2.9332036,2.3901957-2.9332036.39294,0,.6930758.0464094.9819225.1040933.0806749.0229836.1266422.0347002.161335.0347002s.0581113-.0234184.0581113-.1040933v-2.1017764c0-.2654357.1383587-.3925126.403787-.3925126h.0576839c.2658704,0,.4042144.1270769.4042144.3925126v7.4715851c0,.2077518-.1153677.3348287-.3348287.3348287h-.0923767c-.1847681,0-.3118377-.0923841-.3231121-.265863l-.0234184-.2884193c0-.0576839-.022991-.0811023-.0459673-.0811023-.0117166,0-.0346928.0117092-.0694004.0464094-.2884193.3231195-.796727.6236828-1.4204171.6236828-1.2239471,0-2.1477584-.6700848-2.1477289-2.8408416ZM131.1252157,63.7930482c.0346928-.0347002.0694004-.1036585.0694004-.1847608v-3.1986392c0-.0923841-.0346928-.1387861-.0928188-.1617771-.3348287-.1383514-.7620341-.2077518-1.1198539-.2077518-.8778292,0-1.4898028.3118377-1.4898028,2.1824439,0,1.4668192.3118377,2.1941605,1.432119,2.1941605.4731874,0,.9120947-.265863,1.2009561-.6236754Z"/>
          <path class="st0" d="M133.4364756,64.6708848c0-.1617771.0694004-.2888541.1500606-.4272054l2.5866657-3.9264079c.0464094-.0693931.0576839-.1040933.0576839-.1270769,0-.0347002-.022991-.0459747-.0689583-.0459747h-2.3212374c-.1847681,0-.3231121-.1158025-.3231121-.3005633v-.0806675c0-.19647.1383587-.3118377.3231121-.3118377h3.2220576c.161335,0,.2654283.1270769.2654283.2888541v.0576839c0,.1617771-.0576839.3118377-.1500606.4501964l-2.5983822,3.9264079c-.0346928.0576839-.0576839.0923841-.0576839.1153677,0,.0347002.0117166.0459747.0576839.0459747h2.6330751c.1847681,0,.3001359.1158025.3001359.3005633v.0923841c0,.1960352-.1153677.3001285-.3001359.3001285h-3.4992025c-.161335,0-.2771449-.1153677-.2771449-.2771449,0,0,0-.0806675.0000147-.0806822Z"/>
          <path class="st0" d="M138.8778585,57.2916764c0-.2654357.1383587-.3925126.4042144-.3925126h.0576839c.2654283,0,.4042144.1270769.4042144.3925126v4.3766043c0,.0347002.0112744.0693931.0459673.0693931.022991,0,.0464094-.0117092.1040933-.0347002l.5195821-.2077518c.0806749-.0347002.1040933-.0576839.1500606-.1158025l1.3740077-1.6858454c.1157951-.1730516.2311628-.2424446.438922-.2424446h.2771449c.1387861,0,.219461.0806675.219461.19647,0,.0806675-.0464094.1617771-.19647.3465379l-1.3969987,1.7435293c-.0346928.0459747-.0464094.0806675-.0464094.1153677,0,.0229836.0117166.0464094.0464094.1040933l1.8012131,2.7250244c.0346928.0464094.0464094.0923841.0464094.1387861,0,.1270769-.0923767.2307354-.2541538.2307354h-.2654283c-.2311628,0-.3812381-.0806675-.4853314-.2537191l-1.5934687-2.4366051c-.0346928-.0581186-.0459673-.0693931-.0806749-.0693931-.0117166,0-.0464094,0-.1040933.0229836l-.5078803.1847608c-.0576839.0229836-.0923767.0576839-.0923767.1387861v2.0206741c0,.2654357-.1387861.3925126-.4042144.3925126h-.0576839c-.2658704,0-.4042144-.1270769-.4042144-.3925126,0,0,0-7.3674991.0000147-7.3674844Z"/>
          <path class="st0" d="M144.3599915,57.730591c0-.415931.219461-.5425731.5425731-.5425731.3118377,0,.5430153.1266422.5430153.5425731s-.2311628.5542897-.5430153.5542897c-.3231121,0-.5425731-.1383514-.5425731-.5542897ZM144.4636574,59.8206582c0-.2654357.1387861-.3925126.4042144-.3925126h.0576839c.2658704,0,.4042144.1270769.4042144.3925126v4.83851c0,.2654357-.1383587.3925126-.4042144.3925126h-.0576839c-.2654283,0-.4042144-.1270769-.4042144-.3925126v-4.83851Z"/>
        </g>
        <path id="Znak" class="st0" d="M40.6268942,52.3010647c-1.6971272-.9812888-3.8683114-.4013995-4.849777,1.2948435-.3560991.6160854-.7698415,1.1883848-1.2322187,1.7116513h0c-.1496258.1693892-.3048888.3333107-.4640647.4922656-.0130135.0125714-.0255812.0247374-.0381489.0370877-.1552667.1530892-.3139931.3016465-.4775204.4443455l-.0117239.0103902c-1.38442,1.2048616-3.0646245,2.0410565-4.8723407,2.4129656-.0338417.0067499-.0685272.0127924-.1023247.0193213-.1756933.0344644-.352632.0637337-.5300165.0891344-.0581352.0082163-.116228.0164769-.1743632.0236247-.1621935.0206035-.3248309.0361961-.4879142.0492096-.0598669.0047972-.1192917.0108839-.1795583.0145683-.2173093.0134114-.4359063.021893-.654903.021893-4.770412,0-8.8178377-3.1533204-10.168416-7.4848491-.3114195-.9996742-.4792539-2.0620653-.4792539-3.1628189v-19.9643039c0-1.9599579-1.5891616-3.5490753-3.5490753-3.5490753-1.9604028,0-3.5495193,1.5891174-3.5495193,3.5490753v19.9643039c0,9.785004,7.9608146,17.7462608,17.7462626,17.7462608.3651573,0,.7286272-.0143473,1.0912109-.0366382.1001951-.0063078.1999444-.0165211.3005817-.0245164.2710471-.0212741.5416962-.047699.8106137-.0815444.0975755-.0121661.1951473-.0255849.2923211-.0394826.2957845-.0420618.589841-.0917135.8826043-.1483362.0568033-.0112818.1140524-.0207877.1708556-.0325116,2.9991627-.6121799,5.7944276-1.992687,8.1117705-4.0138032.0103939-.009108.0208282-.0184297.0312221-.0275376.265852-.233123.5256652-.4744991.7785037-.72432.026915-.0262481.053782-.0516045.079809-.0780736.255904-.2560845.506167-.5189116.7472816-.7919593.0082606-.009108.0169227-.0177665.0251833-.0273166.0221178-.0249143.0455215-.0481411.0671971-.0735049.0468552-.0537857.0880696-.1105853.1310156-.1663238.6861269-.8054149,1.309806-1.672434,1.8493284-2.60469.9815135-1.6966851.4016205-3.8680461-1.2946224-4.8493349ZM40.7487613,23.8739611h-14.0753221c-1.8900988,0-3.5408147,1.426257-3.6631258,3.3126695-.1340369,2.0670798,1.5028237,3.7857022,3.5417027,3.7857022h3.4150403c.8166967,0,1.2256899.9873313.6479744,1.5650431l-2.9305895,2.9308124c-1.3323678,1.3321449-1.5041114,3.5003115-.2693596,4.9228804.7108626.8190511,1.6984591,1.2289322,2.6860115,1.2289322.9081855,0,1.8168168-.346549,2.5094726-1.0394258l3.023856-3.023856c.5777155-.5774502,1.5652679-.1684571,1.5652679.6481991v4.1807939c0,1.8905428,1.4264781,3.5412569,3.3131116,3.663124,2.0670798.1338121,3.7854811-1.5034464,3.7854811-3.5417027v-15.0841006c0-1.9599579-1.5891174-3.5490753-3.5495211-3.5490716Z"/>
      </g>
    </g>
  </g>
</svg>